<svg width="22" height="22" viewBox="0 0 22 22" fill="none" xmlns="http://www.w3.org/2000/svg">
    <path
        d="M5.70001 17H3.15002C1.72002 17 1 16.28 1 14.85V3.15002C1 1.72002 1.72002 1 3.15002 1H7.45001C8.88001 1 9.59998 1.72002 9.59998 3.15002V5"
        stroke="#0A5EB0" stroke-width="1.5" stroke-miterlimit="10" stroke-linecap="round"
        stroke-linejoin="round" />
    <path
        d="M16.3692 7.41998V18.58C16.3692 20.19 15.5692 21 13.9592 21H8.1192C6.5092 21 5.69922 20.19 5.69922 18.58V7.41998C5.69922 5.80998 6.5092 5 8.1192 5H13.9592C15.5692 5 16.3692 5.80998 16.3692 7.41998Z"
        stroke="#0A5EB0" stroke-width="1.5" stroke-miterlimit="10" stroke-linecap="round"
        stroke-linejoin="round" />
    <path
        d="M12.4004 5V3.15002C12.4004 1.72002 13.1204 1 14.5504 1H18.8503C20.2803 1 21.0004 1.72002 21.0004 3.15002V14.85C21.0004 16.28 20.2803 17 18.8503 17H16.3704"
        stroke="#0A5EB0" stroke-width="1.5" stroke-miterlimit="10" stroke-linecap="round"
        stroke-linejoin="round" />
    <path d="M9 10H13" stroke="#0A5EB0" stroke-width="1.5" stroke-miterlimit="10"
        stroke-linecap="round" stroke-linejoin="round" />
    <path d="M9 13H13" stroke="#0A5EB0" stroke-width="1.5" stroke-miterlimit="10"
        stroke-linecap="round" stroke-linejoin="round" />
    <path d="M11 21V18" stroke="#0A5EB0" stroke-width="1.5" stroke-miterlimit="10"
        stroke-linecap="round" stroke-linejoin="round" />
</svg>
    