<svg width="22" height="22" viewBox="0 0 22 22" fill="none" xmlns="http://www.w3.org/2000/svg">
    <path fill-rule="evenodd" clip-rule="evenodd"
        d="M9.07003 1.94089C9.25866 1.68126 9.2612 1.3304 9.07636 1.06806C8.89152 0.805731 8.56026 0.690063 8.25231 0.780331C3.91711 2.05103 0.75 6.05715 0.75 10.8049C0.75 16.5736 5.42643 21.25 11.1951 21.25C15.9429 21.25 19.949 18.0829 21.2197 13.7477C21.31 13.4398 21.1943 13.1085 20.932 12.9237C20.6697 12.7389 20.3188 12.7414 20.0592 12.93C19.5776 13.2799 19.055 13.5764 18.4998 13.811L18.4998 7.75495C19.0735 6.97113 19.3171 6.19469 19.2346 5.42762C19.147 4.61342 18.7058 3.953 18.226 3.43032C17.7869 2.95201 17.2519 2.5233 16.7963 2.15818L16.6786 2.06379C16.1598 1.64695 15.8022 1.34093 15.6166 1.07298C15.4765 0.870693 15.2461 0.749994 15 0.75C14.7539 0.750006 14.5235 0.870716 14.3834 1.07302C14.1979 1.34095 13.8403 1.64696 13.3215 2.0638L13.2038 2.15822C12.7482 2.52332 12.2132 2.95203 11.7742 3.43033C11.2944 3.953 10.8532 4.61343 10.7656 5.42763C10.6832 6.19469 10.9267 6.97113 11.5004 7.75494L11.5004 13.3721C9.15178 12.0109 7.57208 9.46999 7.57208 6.5601C7.57208 4.83304 8.12767 3.23795 9.07003 1.94089ZM13.0004 14.0424L13.0004 8.25H16.9998V14.2735C16.4958 14.3748 15.9742 14.428 15.44 14.428C14.5884 14.428 13.7684 14.2927 13.0004 14.0424ZM2.25 10.8049C2.25 7.48017 4.06431 4.57784 6.75776 3.03604C6.31566 4.1242 6.07208 5.31411 6.07208 6.5601C6.07208 11.7338 10.2662 15.928 15.44 15.928C16.6859 15.928 17.8759 15.6844 18.964 15.2423C17.4222 17.9357 14.5199 19.75 11.1951 19.75C6.25486 19.75 2.25 15.7452 2.25 10.8049ZM17.3733 6.75L12.6269 6.75C12.2893 6.24911 12.2265 5.87187 12.257 5.588C12.2955 5.23032 12.4984 4.8595 12.8792 4.44467C13.2369 4.05501 13.6844 3.69593 14.1595 3.31462L14.2611 3.23307C14.5006 3.04065 14.7595 2.83184 15 2.60999C15.2407 2.83184 15.4996 3.04066 15.739 3.23308L15.8406 3.31459C16.3158 3.69591 16.7633 4.055 17.121 4.44468C17.5018 4.8595 17.7047 5.23033 17.7432 5.588C17.7737 5.87187 17.7109 6.24911 17.3733 6.75Z"
        fill="#0A5EB0" />
</svg>
    