<svg width="22" height="22" viewBox="0 0 22 22" fill="none" xmlns="http://www.w3.org/2000/svg">
    <path
        d="M8.16055 9.87C8.06055 9.86 7.94055 9.86 7.83055 9.87C5.45055 9.79 3.56055 7.84 3.56055 5.44C3.56055 2.99 5.54055 1 8.00055 1C10.4505 1 12.4405 2.99 12.4405 5.44C12.4305 7.84 10.5405 9.79 8.16055 9.87Z"
        stroke="#0A5EB0" stroke-width="1.5" stroke-linecap="round" stroke-linejoin="round" />
    <path
        d="M15.4093 3C17.3493 3 18.9093 4.57 18.9093 6.5C18.9093 8.39 17.4093 9.93 15.5393 10C15.4593 9.99 15.3693 9.99 15.2793 10"
        stroke="#0A5EB0" stroke-width="1.5" stroke-linecap="round" stroke-linejoin="round" />
    <path
        d="M3.1607 13.56C0.740703 15.18 0.740703 17.82 3.1607 19.43C5.9107 21.27 10.4207 21.27 13.1707 19.43C15.5907 17.81 15.5907 15.17 13.1707 13.56C10.4307 11.73 5.9207 11.73 3.1607 13.56Z"
        stroke="#0A5EB0" stroke-width="1.5" stroke-linecap="round" stroke-linejoin="round" />
    <path
        d="M17.3398 19C18.0598 18.85 18.7398 18.56 19.2998 18.13C20.8598 16.96 20.8598 15.03 19.2998 13.86C18.7498 13.44 18.0798 13.16 17.3698 13"
        stroke="#0A5EB0" stroke-width="1.5" stroke-linecap="round" stroke-linejoin="round" />
</svg>
    