<svg width="20" height="20" viewBox="0 0 20 20" fill="none" xmlns="http://www.w3.org/2000/svg">
    <path
        d="M18.7242 0.805037C18.6546 0.546456 18.4524 0.344611 18.1937 0.275457C17.935 0.206302 17.659 0.280332 17.4697 0.469687C17.3431 0.596219 17.2123 0.732325 17.0749 0.875204C15.9142 2.08222 14.2887 3.77259 10.8939 4.25756C7.13939 4.79392 4.25 7.30622 4.25 11C4.25 11.8251 4.39837 12.6168 4.67018 13.349C3.81838 13.7475 3.09405 14.2065 2.48952 14.7373C1.22323 15.849 0.534915 17.2292 0.260322 18.8768C0.192225 19.2854 0.46824 19.6718 0.876818 19.7399C1.2854 19.808 1.67182 19.5319 1.73991 19.1234C1.96532 17.7709 2.50596 16.7189 3.47915 15.8645C4.4732 14.9918 5.96929 14.2809 8.18202 13.7277C11.6187 12.8685 14.0013 10.7153 15.6078 8.49458C15.8506 8.15897 15.7753 7.6901 15.4397 7.44732C15.1041 7.20454 14.6352 7.27979 14.3924 7.6154C12.9256 9.64305 10.8149 11.5233 7.81821 12.2725C7.19179 12.4291 6.60698 12.6006 6.06248 12.789C5.86035 12.2313 5.75 11.6291 5.75 11C5.75 8.26349 7.86061 6.20612 11.1061 5.74248C14.4662 5.26246 16.3774 3.70087 17.5984 2.488C18.8835 8.09788 18.1013 11.47 16.7011 13.4406C15.1953 15.5599 12.8379 16.25 11 16.25C10.0425 16.25 9.14699 15.9944 8.37554 15.5481C8.017 15.3407 7.5582 15.4632 7.3508 15.8218C7.14339 16.1803 7.26591 16.6391 7.62446 16.8465C8.61805 17.4213 9.77178 17.75 11 17.75C13.1621 17.75 16.0547 16.9402 17.9239 14.3094C19.7943 11.677 20.5033 7.413 18.7242 0.805037Z"
        fill="#0A5EB0" />
</svg>
    