<svg width="48" height="54" viewBox="0 0 48 54" xmlns="http://www.w3.org/2000/svg">
    <path d="M14 2V9.5" fill="none" stroke-width="2.5" stroke-miterlimit="10"
        stroke-linecap="round" stroke-linejoin="round" />
    <path d="M34 2V9.5" fill="none" stroke-width="2.5" stroke-miterlimit="10"
        stroke-linecap="round" stroke-linejoin="round" />
    <path
        d="M34 5.75C42.325 6.2 46.5 9.375 46.5 21.125V36.575C46.5 46.875 44 52.025 31.5 52.025H16.5C4 52.025 1.5 46.875 1.5 36.575V21.125C1.5 9.375 5.675 6.225 14 5.75H34Z"
        fill="none" stroke-width="2.5" stroke-miterlimit="10" stroke-linecap="round"
        stroke-linejoin="round" />
    <path d="M45.875 41H2.125" fill="none" stroke-width="2.5" stroke-miterlimit="10"
        stroke-linecap="round" stroke-linejoin="round" />
    <path
        d="M24 18.125C25.4527 18.125 26.7459 18.5213 27.665 19.2588C28.571 19.9857 29.1503 21.0715 29.1504 22.5498C29.1504 23.9235 28.5406 24.9247 27.541 25.6133L26.8828 26.0674L27.5791 26.46C28.9788 27.2501 29.75 28.5632 29.75 30.0752C29.7499 31.4838 29.2111 32.5928 28.2559 33.3604C27.2881 34.1379 25.8475 34.5996 24 34.5996C22.1394 34.5996 20.6994 34.1372 19.7354 33.3604C18.7841 32.5937 18.25 31.4854 18.25 30.0752C18.25 28.5659 19.0195 27.2734 20.4043 26.4561L21.082 26.0557L20.4316 25.6123C19.4585 24.9488 18.8252 23.923 18.8252 22.5498C18.8252 21.0732 19.4089 19.9875 20.3213 19.2598C21.247 18.5214 22.5471 18.125 24 18.125ZM24 26.875C23.1016 26.875 22.2709 27.092 21.6523 27.5654C21.0177 28.0512 20.6504 28.7755 20.6504 29.6748C20.6504 30.5734 21.0169 31.303 21.6494 31.7949C22.2673 32.2754 23.0984 32.5 24 32.5C24.9016 32.5 25.7327 32.2754 26.3506 31.7949C26.9831 31.303 27.3496 30.5734 27.3496 29.6748C27.3496 28.7861 26.9811 28.0636 26.3496 27.5762C25.7324 27.0999 24.9017 26.875 24 26.875ZM24 20.25C23.2613 20.25 22.5757 20.4563 22.0654 20.8867C21.5456 21.3253 21.2501 21.9623 21.25 22.7246C21.25 23.476 21.5456 24.1168 22.0596 24.5625C22.5667 25.0023 23.2531 25.2246 24 25.2246C24.7469 25.2246 25.4333 25.0023 25.9404 24.5625C26.4544 24.1168 26.75 23.476 26.75 22.7246C26.7499 21.9623 26.4544 21.3253 25.9346 20.8867C25.4243 20.4563 24.7387 20.25 24 20.25Z"
    />
</svg>
    