<svg width="54" height="54" viewBox="0 0 54 54" xmlns="http://www.w3.org/2000/svg">
    <path d="M52 29.5V19.5C52 7 47 2 34.5 2H19.5C7 2 2 7 2 19.5V34.5C2 47 7 52 19.5 52H29.5"
        fill="none" stroke-width="2.5" stroke-linecap="round" stroke-linejoin="round" />
    <path
        d="M15.3242 33.2251L21.2742 25.5C22.1242 24.4 23.6992 24.2 24.7992 25.05L29.3743 28.65C30.4743 29.5 32.0492 29.3001 32.8992 28.2251L38.6743 20.775"
        fill="none" stroke-width="2.5" stroke-linecap="round" stroke-linejoin="round" />
    <path
        d="M45.6991 36.55L46.3991 37.975C46.7491 38.675 47.624 39.325 48.399 39.475L49.3491 39.625C52.1991 40.1 52.8741 42.2 50.8241 44.275L49.949 45.1499C49.374 45.7499 49.0491 46.9 49.2241 47.7L49.3491 48.225C50.1241 51.675 48.2991 52.9999 45.2991 51.1999L44.649 50.825C43.874 50.375 42.6241 50.375 41.8491 50.825L41.199 51.1999C38.174 53.0249 36.3491 51.675 37.149 48.225L37.274 47.7C37.449 46.9 37.1241 45.7499 36.5491 45.1499L35.6741 44.275C33.6241 42.2 34.2991 40.1 37.149 39.625L38.0991 39.475C38.8491 39.35 39.749 38.675 40.099 37.975L40.799 36.55C42.149 33.825 44.3491 33.825 45.6991 36.55Z"
        fill="none" stroke-width="2.5" stroke-linecap="round" stroke-linejoin="round" />
</svg>
    