<svg width="37" height="36" viewBox="0 0 37 36" fill="none" xmlns="http://www.w3.org/2000/svg">
    <path
        d="M30.1673 12.9999C30.1673 15.4166 29.4507 17.6333 28.2173 19.4833C26.4173 22.1499 23.5673 24.0333 20.2507 24.5166C19.684 24.6166 19.1007 24.6666 18.5007 24.6666C17.9007 24.6666 17.3173 24.6166 16.7507 24.5166C13.434 24.0333 10.584 22.1499 8.78398 19.4833C7.55065 17.6333 6.83398 15.4166 6.83398 12.9999C6.83398 6.54992 12.0507 1.33325 18.5007 1.33325C24.9507 1.33325 30.1673 6.54992 30.1673 12.9999Z"
        stroke="white" stroke-width="2" stroke-linecap="round" stroke-linejoin="round" />
    <path
        d="M33.9165 28.7833L31.1665 29.4333C30.5498 29.5833 30.0665 30.05 29.9331 30.6667L29.3498 33.1167C29.0331 34.45 27.3331 34.85 26.4498 33.8L18.4998 24.6667L10.5498 33.8167C9.66647 34.8667 7.96647 34.4667 7.64981 33.1333L7.06647 30.6833C6.91647 30.0667 6.43314 29.5833 5.83314 29.45L3.08314 28.8C1.81647 28.5 1.36647 26.9167 2.28314 26L8.78314 19.5C10.5831 22.1667 13.4331 24.05 16.7498 24.5334C17.3165 24.6334 17.8998 24.6834 18.4998 24.6834C19.0998 24.6834 19.6831 24.6334 20.2498 24.5334C23.5665 24.05 26.4165 22.1667 28.2165 19.5L34.7165 26C35.6331 26.9 35.1831 28.4833 33.9165 28.7833Z"
        stroke="white" stroke-width="2" stroke-linecap="round" stroke-linejoin="round" />
    <path
        d="M19.4673 7.96675L20.4506 9.9334C20.5839 10.2001 20.9339 10.4667 21.2506 10.5167L23.0339 10.8167C24.1673 11.0001 24.4339 11.8334 23.6173 12.6501L22.2339 14.0334C22.0006 14.2667 21.8673 14.7167 21.9506 15.0501L22.3506 16.7667C22.6673 18.1167 21.9506 18.65 20.7506 17.9334L19.0839 16.9501C18.7839 16.7667 18.2839 16.7667 17.9839 16.9501L16.3173 17.9334C15.1173 18.6334 14.4006 18.1167 14.7173 16.7667L15.1173 15.0501C15.1839 14.7334 15.0673 14.2667 14.8339 14.0334L13.4506 12.6501C12.6339 11.8334 12.9006 11.0167 14.0339 10.8167L15.8173 10.5167C16.1173 10.4667 16.4673 10.2001 16.6006 9.9334L17.5839 7.96675C18.0673 6.90008 18.9339 6.90008 19.4673 7.96675Z"
        stroke="white" stroke-width="2" stroke-linecap="round" stroke-linejoin="round" />
</svg>
    