<svg width="37" height="34" viewBox="0 0 37 34" fill="none" xmlns="http://www.w3.org/2000/svg">
    <path
        d="M18.5 22C21.2614 22 23.5 19.7614 23.5 17C23.5 14.2386 21.2614 12 18.5 12C15.7386 12 13.5 14.2386 13.5 17C13.5 19.7614 15.7386 22 18.5 22Z"
        stroke="white" stroke-width="2" stroke-miterlimit="10" stroke-linecap="round"
        stroke-linejoin="round" />
    <path
        d="M1.83398 18.4667V15.5334C1.83398 13.8001 3.25065 12.3667 5.00065 12.3667C8.01732 12.3667 9.25065 10.2334 7.73398 7.61672C6.86732 6.11672 7.38398 4.16672 8.90065 3.30006L11.784 1.65006C13.1007 0.866723 14.8007 1.33339 15.584 2.65006L15.7673 2.96672C17.2673 5.58339 19.734 5.58339 21.2507 2.96672L21.434 2.65006C22.2173 1.33339 23.9173 0.866723 25.234 1.65006L28.1173 3.30006C29.634 4.16672 30.1507 6.11672 29.284 7.61672C27.7673 10.2334 29.0007 12.3667 32.0173 12.3667C33.7507 12.3667 35.184 13.7834 35.184 15.5334V18.4667C35.184 20.2001 33.7673 21.6334 32.0173 21.6334C29.0007 21.6334 27.7673 23.7667 29.284 26.3834C30.1507 27.9001 29.634 29.8334 28.1173 30.7001L25.234 32.3501C23.9173 33.1334 22.2173 32.6667 21.434 31.3501L21.2507 31.0334C19.7507 28.4167 17.284 28.4167 15.7673 31.0334L15.584 31.3501C14.8007 32.6667 13.1007 33.1334 11.784 32.3501L8.90065 30.7001C7.38398 29.8334 6.86732 27.8834 7.73398 26.3834C9.25065 23.7667 8.01732 21.6334 5.00065 21.6334C3.25065 21.6334 1.83398 20.2001 1.83398 18.4667Z"
        stroke="white" stroke-width="2" stroke-miterlimit="10" stroke-linecap="round"
        stroke-linejoin="round" />
</svg>
    