<svg width="22" height="22" viewBox="0 0 22 22" fill="none" xmlns="http://www.w3.org/2000/svg">
    <path d="M15.9609 5.16992C17.9609 6.55992 19.3409 8.76992 19.6209 11.3199" stroke="#1882DF"
        stroke-width="1.5" stroke-linecap="round" stroke-linejoin="round" />
    <path d="M2.49023 11.3702C2.75023 8.83021 4.11023 6.62021 6.09023 5.22021" stroke="#1882DF"
        stroke-width="1.5" stroke-linecap="round" stroke-linejoin="round" />
    <path
        d="M7.18945 19.9399C8.34945 20.5299 9.66945 20.8599 11.0595 20.8599C12.3995 20.8599 13.6595 20.5599 14.7895 20.0099"
        stroke="#0A5EB0" stroke-width="1.5" stroke-linecap="round" stroke-linejoin="round" />
    <path
        d="M11.0593 6.70014C12.5946 6.70014 13.8393 5.45549 13.8393 3.92014C13.8393 2.38479 12.5946 1.14014 11.0593 1.14014C9.52395 1.14014 8.2793 2.38479 8.2793 3.92014C8.2793 5.45549 9.52395 6.70014 11.0593 6.70014Z"
        stroke="#0A5EB0" stroke-width="1.5" stroke-linecap="round" stroke-linejoin="round" />
    <path
        d="M3.83078 18.9199C5.36613 18.9199 6.61078 17.6752 6.61078 16.1399C6.61078 14.6045 5.36613 13.3599 3.83078 13.3599C2.29543 13.3599 1.05078 14.6045 1.05078 16.1399C1.05078 17.6752 2.29543 18.9199 3.83078 18.9199Z"
        stroke="#0A5EB0" stroke-width="1.5" stroke-linecap="round" stroke-linejoin="round" />
    <path
        d="M18.1706 18.9199C19.706 18.9199 20.9506 17.6752 20.9506 16.1399C20.9506 14.6045 19.706 13.3599 18.1706 13.3599C16.6353 13.3599 15.3906 14.6045 15.3906 16.1399C15.3906 17.6752 16.6353 18.9199 18.1706 18.9199Z"
        stroke="#0A5EB0" stroke-width="1.5" stroke-linecap="round" stroke-linejoin="round" />
</svg>
    