<svg width="168" height="168" viewBox="0 0 168 168" fill="none" xmlns="http://www.w3.org/2000/svg">
    <path
        d="M84.0003 0.666748C38.0837 0.666748 0.666992 38.0834 0.666992 84.0001C0.666992 129.917 38.0837 167.333 84.0003 167.333C129.917 167.333 167.334 129.917 167.334 84.0001C167.334 38.0834 129.917 0.666748 84.0003 0.666748ZM123.834 64.8334L76.5837 112.083C75.417 113.25 73.8337 113.917 72.167 113.917C70.5003 113.917 68.917 113.25 67.7503 112.083L44.167 88.5001C41.7503 86.0834 41.7503 82.0834 44.167 79.6667C46.5837 77.2501 50.5837 77.2501 53.0003 79.6667L72.167 98.8334L115 56.0001C117.417 53.5834 121.417 53.5834 123.834 56.0001C126.25 58.4167 126.25 62.3334 123.834 64.8334Z"
        fill="#4CAF4F" />
</svg>
    