<svg width="20" height="20" viewBox="0 0 20 20" fill="none" xmlns="http://www.w3.org/2000/svg">
    <path
        d="M2.17038 13.2998L6.70038 17.8298C8.56038 19.6898 11.5804 19.6898 13.4504 17.8298L17.8404 13.4398C19.7004 11.5798 19.7004 8.5598 17.8404 6.6898L13.3004 2.1698C12.3504 1.2198 11.0404 0.709805 9.70038 0.779805L4.70038 1.0198C2.70038 1.1098 1.11038 2.6998 1.01038 4.6898L0.770381 9.6898C0.710381 11.0398 1.22038 12.3498 2.17038 13.2998Z"
        stroke="#0C11D3" stroke-width="1.5" stroke-linecap="round" stroke-linejoin="round" />
    <path
        d="M7.5 10C8.88071 10 10 8.88071 10 7.5C10 6.11929 8.88071 5 7.5 5C6.11929 5 5 6.11929 5 7.5C5 8.88071 6.11929 10 7.5 10Z"
        stroke="#0C11D3" stroke-width="1.5" stroke-linecap="round" />
</svg>
    