<svg width="21" height="22" viewBox="0 0 21 22" fill="none" xmlns="http://www.w3.org/2000/svg">
    <path d="M7.70898 13.7L9.20898 15.2L13.209 11.2" stroke="#0A5EB0" stroke-width="1.5"
        stroke-linecap="round" stroke-linejoin="round" />
    <path
        d="M8.39844 5H12.3984C14.3984 5 14.3984 4 14.3984 3C14.3984 1 13.3984 1 12.3984 1H8.39844C7.39844 1 6.39844 1 6.39844 3C6.39844 5 7.39844 5 8.39844 5Z"
        stroke="#0A5EB0" stroke-width="1.5" stroke-miterlimit="10" stroke-linecap="round"
        stroke-linejoin="round" />
    <path
        d="M14.3984 3.02002C17.7284 3.20002 19.3984 4.43002 19.3984 9.00002V15C19.3984 19 18.3984 21 13.3984 21H7.39844C2.39844 21 1.39844 19 1.39844 15V9.00002C1.39844 4.44002 3.06844 3.20002 6.39844 3.02002"
        stroke="#0A5EB0" stroke-width="1.5" stroke-miterlimit="10" stroke-linecap="round"
        stroke-linejoin="round" />
</svg>
    