<svg width="22" height="22" viewBox="0 0 22 22" fill="none" xmlns="http://www.w3.org/2000/svg">
    <path
        d="M11 21C16.5228 21 21 16.5228 21 11C21 5.47715 16.5228 1 11 1C5.47715 1 1 5.47715 1 11C1 16.5228 5.47715 21 11 21Z"
        stroke="#0A5EB0" stroke-width="1.5" stroke-linecap="round" stroke-linejoin="round" />
    <path
        d="M11.3296 16.45C11.1496 16.51 10.8396 16.51 10.6596 16.45C9.09961 15.92 5.59961 13.69 5.59961 9.91C5.59961 8.24 6.93961 6.89001 8.59961 6.89001C9.57961 6.89001 10.4496 7.36001 10.9996 8.10001C11.5396 7.37001 12.4196 6.89001 13.3996 6.89001C15.0596 6.89001 16.3996 8.24 16.3996 9.91C16.3996 13.69 12.8996 15.92 11.3296 16.45Z"
        stroke="#0A5EB0" stroke-width="1.5" stroke-linecap="round" stroke-linejoin="round" />
</svg>
    