<svg width="22" height="22" viewBox="0 0 22 22" fill="none" xmlns="http://www.w3.org/2000/svg">
    <path
        d="M9.95008 1.44995C10.6401 0.859946 11.7701 0.859946 12.4701 1.44995L14.0501 2.81005C14.3501 3.07005 14.9101 3.28002 15.3101 3.28002H17.0101C18.0701 3.28002 18.9401 4.14996 18.9401 5.20996V6.91003C18.9401 7.30003 19.1501 7.87004 19.4101 8.17004L20.7701 9.75C21.3601 10.44 21.3601 11.57 20.7701 12.27L19.4101 13.85C19.1501 14.15 18.9401 14.71 18.9401 15.11V16.8101C18.9401 17.8701 18.0701 18.74 17.0101 18.74H15.3101C14.9201 18.74 14.3501 18.95 14.0501 19.21L12.4701 20.5699C11.7801 21.1599 10.6501 21.1599 9.95008 20.5699L8.37009 19.21C8.07009 18.95 7.51008 18.74 7.11008 18.74H5.38007C4.32007 18.74 3.45008 17.8701 3.45008 16.8101V15.1C3.45008 14.71 3.24008 14.15 2.99008 13.85L1.64008 12.26C1.06008 11.57 1.06008 10.45 1.64008 9.76L2.99008 8.17004C3.24008 7.87004 3.45008 7.31004 3.45008 6.92004V5.20996C3.45008 4.14996 4.32007 3.28002 5.38007 3.28002H7.11008C7.50008 3.28002 8.07009 3.07005 8.37009 2.81005L9.95008 1.44995Z"
        stroke="#0A5EB0" stroke-width="1.5" stroke-linecap="round" stroke-linejoin="round" />
    <path
        d="M9.08838 13.82L10.5384 14.94C10.7284 15.13 11.1484 15.22 11.4284 15.22H13.1984C13.7584 15.22 14.3684 14.8 14.5084 14.24L15.6284 10.82C15.8584 10.17 15.4384 9.60001 14.7384 9.60001H12.8684C12.5884 9.60001 12.3584 9.37008 12.3984 9.04008L12.6284 7.54008C12.7184 7.12008 12.4384 6.65005 12.0184 6.51005C11.6484 6.37005 11.1784 6.56 10.9884 6.84L9.06836 9.68998"
        stroke="#0A5EB0" stroke-width="1.5" stroke-miterlimit="10" />
    <path
        d="M6.69922 13.8199V9.23999C6.69922 8.57999 6.97922 8.34998 7.63922 8.34998H8.10922C8.75922 8.34998 9.04922 8.57999 9.04922 9.23999V13.8199C9.04922 14.4699 8.76922 14.71 8.10922 14.71H7.63922C6.97922 14.71 6.69922 14.4799 6.69922 13.8199Z"
        stroke="#0A5EB0" stroke-width="1.5" stroke-linecap="round" stroke-linejoin="round" />
</svg>
    