<svg width="16" height="15" viewBox="0 0 16 15" fill="none" xmlns="http://www.w3.org/2000/svg">
    <path
        d="M11.334 8.43317V10.4332C11.334 13.0998 10.2673 14.1665 7.60065 14.1665H5.06732C2.40065 14.1665 1.33398 13.0998 1.33398 10.4332V7.89984C1.33398 5.23317 2.40065 4.1665 5.06732 4.1665H7.06732"
        stroke="#0A5EB0" stroke-linecap="round" stroke-linejoin="round" />
    <path
        d="M11.3331 8.43317H9.19974C7.59974 8.43317 7.06641 7.89984 7.06641 6.29984V4.1665L11.3331 8.43317Z"
        stroke="#0A5EB0" stroke-linecap="round" stroke-linejoin="round" />
    <path d="M7.73242 0.833496H10.3991" stroke="#0A5EB0" stroke-linecap="round"
        stroke-linejoin="round" />
    <path d="M4.66602 2.8335C4.66602 1.72683 5.55935 0.833496 6.66602 0.833496H8.41268"
        stroke="#0A5EB0" stroke-width="1.5" stroke-linecap="round" stroke-linejoin="round" />
    <path d="M14.6663 4.8335V8.96016C14.6663 9.9935 13.8263 10.8335 12.793 10.8335" stroke="#0A5EB0"
        stroke-width="1.5" stroke-linecap="round" stroke-linejoin="round" />
    <path
        d="M14.666 4.8335H12.666C11.166 4.8335 10.666 4.3335 10.666 2.8335V0.833496L14.666 4.8335Z"
        stroke="#0A5EB0" stroke-width="1.5" stroke-linecap="round" stroke-linejoin="round" />
</svg>
    