<svg width="335" height="58" viewBox="0 0 335 58" fill="none" xmlns="http://www.w3.org/2000/svg">
    <mask id="mask0_2865_36205" style="mask-type:luminance" maskUnits="userSpaceOnUse" x="0" y="0"
        width="335" height="58">
        <path d="M335 0H0V58H335V0Z" fill="white" />
    </mask>
    <g mask="url(#mask0_2865_36205)">
        <path
            d="M43.4421 44.2463C43.1964 44.2463 42.9507 44.2953 42.7541 44.3932C41.673 44.8337 40.7884 45.1274 40.1987 45.2252C39.609 45.3231 38.1348 45.5679 38.1348 46.6936C38.1348 47.3788 38.577 48.1619 40.5919 48.1619C41.9678 48.1619 43.1472 47.9662 44.1301 47.5257C44.8181 47.232 45.1621 46.6936 45.1621 46.0084C45.1129 44.9316 44.4741 44.2463 43.4421 44.2463Z"
            fill="#7C7C7C" />
    </g>
    <mask id="mask1_2865_36205" style="mask-type:luminance" maskUnits="userSpaceOnUse" x="0" y="0"
        width="335" height="58">
        <path d="M335 0H0V58H335V0Z" fill="white" />
    </mask>
    <g mask="url(#mask1_2865_36205)">
        <path
            d="M63.4419 23.4937C62.8522 23.4937 62.3607 23.7873 62.0167 24.3257L61.4762 25.2067C61.2796 25.5004 61.2305 25.7941 61.2305 26.0877C61.2305 26.5772 61.427 26.9688 61.771 27.3114C62.115 27.605 62.5082 27.8008 62.9996 27.8008C63.5893 27.8008 64.0807 27.5072 64.4247 26.9688L64.9652 26.0877C65.1618 25.7941 65.211 25.5004 65.211 25.2067C65.211 24.7173 65.0144 24.3257 64.6704 23.9831C64.3264 23.6894 63.8841 23.4937 63.4419 23.4937Z"
            fill="#7C7C7C" />
    </g>
    <mask id="mask2_2865_36205" style="mask-type:luminance" maskUnits="userSpaceOnUse" x="0" y="0"
        width="335" height="58">
        <path d="M335 0H0V58H335V0Z" fill="white" />
    </mask>
    <g mask="url(#mask2_2865_36205)">
        <path
            d="M66.6845 18.4522C66.6845 18.3054 66.6354 18.1096 66.5862 17.8649L66.5371 17.767C65.9474 16.4944 64.5223 15.8582 62.3109 15.8582C61.3772 15.8582 60.4926 15.956 59.6572 16.2008H59.6081C57.3967 17.0328 56.2664 18.2565 56.2664 19.8227V20.0674C56.2664 20.8995 56.6104 21.6826 57.2493 22.4168C56.3647 22.9063 55.6276 23.3957 54.9888 23.8362L54.9396 23.8852C53.1705 25.4514 52.3351 26.5282 52.286 27.4582V27.605C52.286 28.2902 52.63 28.8286 53.2688 29.1223L53.3671 29.1712H53.4654C54.4482 29.3181 55.2836 29.416 55.9716 29.5628C53.6128 30.4928 51.4997 30.9822 49.7306 30.9822C49.6814 30.9822 49.6323 30.9822 49.5832 30.9822H49.4849C49.4357 30.9822 49.4357 30.9822 49.3866 30.9822H49.19C49.0917 30.9822 48.9935 30.9822 48.9443 31.0311C46.9295 31.2269 44.7181 31.2759 42.4084 31.0311C41.6222 30.7864 40.885 31.0801 40.4428 31.8143C40.2462 32.1569 40.1479 32.4995 40.1479 32.8421C40.1479 33.7721 40.885 34.4573 42.3102 34.8978C42.7524 35.0447 43.4896 35.1425 44.6198 35.2894C43.4896 36.4641 41.2782 37.4919 37.9857 38.3729C37.9365 38.3729 37.8874 38.4219 37.8383 38.4219C38.3297 36.8067 38.5262 35.4362 38.5262 34.3105C38.5262 32.8421 37.8874 30.8354 34.8406 29.7096C33.3172 29.1712 31.4007 28.8776 29.1401 28.8776C25.5036 28.8776 22.1129 29.2202 19.1152 29.8565C13.6113 31.0311 10.8594 33.1847 10.8594 36.2193C10.8594 39.1071 13.2673 41.1628 17.9849 42.2396C20.6386 42.8759 24.0294 43.1695 28.0099 43.1695C29.7298 43.1695 31.4498 43.0717 33.2189 42.8269C32.9241 43.7569 32.5801 44.7358 32.2361 45.8126C31.8921 46.5957 31.7447 47.1341 31.7447 47.5746C31.7447 48.3088 32.2361 48.6514 32.6784 48.6514C33.2681 48.6514 33.8086 48.1619 34.4966 46.7915C35.2829 45.1273 35.9709 43.6101 36.5114 42.2396C37.1994 42.0928 37.8383 41.9459 38.5262 41.7501C42.605 40.6733 45.4552 39.3029 47.1752 37.4919C48.1089 36.513 48.5512 35.4852 48.5512 34.4573C48.5512 34.4573 48.5512 34.4573 48.5512 34.4084C48.7969 34.4084 48.9935 34.3594 49.2392 34.3594H49.4849C49.6323 34.3594 49.7797 34.3594 49.878 34.3594H49.9763C52.3842 34.3594 55.087 33.6742 57.9373 32.3037L57.9864 32.2548C59.6081 31.2759 60.3452 30.297 60.3452 29.1712V28.9755C60.3452 28.2413 60.0012 27.605 59.3132 27.0176L59.1658 26.9198C58.527 26.5771 57.8881 26.3324 57.1019 26.1856C57.495 25.8919 57.9373 25.6472 58.3304 25.4514C65.6525 21.7805 66.488 19.7738 66.488 18.5991V18.4522H66.6845ZM62.5075 19.2843C62.2126 19.578 61.5738 20.0185 60.3452 20.7527C59.8047 20.3122 59.7064 20.0674 59.6572 19.9695C60.0995 19.3822 61.1806 19.2843 62.0652 19.2843C62.2618 19.2354 62.4092 19.2354 62.5075 19.2843ZM18.6238 38.7645C15.8227 38.0792 14.2993 37.1493 14.2993 36.2193C14.2993 34.9468 16.5598 33.821 20.6386 33.0379C23.538 32.4995 26.4373 32.2548 29.1893 32.2548C31.9412 32.2548 35.1846 32.5974 35.1846 34.3105C35.1846 35.4362 34.8897 37.0514 34.3492 39.205C32.2361 39.5476 30.1721 39.7434 28.1082 39.7434C24.5208 39.7923 21.3266 39.4497 18.6238 38.7645Z"
            fill="#7C7C7C" />
    </g>
    <mask id="mask3_2865_36205" style="mask-type:luminance" maskUnits="userSpaceOnUse" x="0" y="0"
        width="335" height="58">
        <path d="M335 0H0V58H335V0Z" fill="white" />
    </mask>
    <g mask="url(#mask3_2865_36205)">
        <path
            d="M67.3238 26.8709C67.5695 29.0245 67.766 30.346 67.8643 30.9823C68.0118 31.6675 68.3066 33.2338 69.4369 33.2338C70.862 33.2338 70.862 31.1781 70.862 30.395C70.862 30.1502 70.862 29.9055 70.8128 29.6608C70.4688 25.6962 70.174 22.5637 69.9774 20.4591C69.8791 19.4312 69.2403 19.0886 68.6506 19.0886C68.2575 19.0886 67.7169 19.2355 67.2746 19.8717C66.9306 20.3123 66.7832 20.8996 66.7832 21.5359V21.7317C66.9798 23.6895 67.1763 25.5004 67.3238 26.8709Z"
            fill="#7C7C7C" />
    </g>
    <mask id="mask4_2865_36205" style="mask-type:luminance" maskUnits="userSpaceOnUse" x="0" y="0"
        width="335" height="58">
        <path d="M335 0H0V58H335V0Z" fill="white" />
    </mask>
    <g mask="url(#mask4_2865_36205)">
        <path
            d="M86.735 29.318C86.5876 27.9965 86.2928 24.6193 85.8505 19.2353C85.7522 18.4033 85.2608 17.9138 84.4745 17.9138C84.1305 17.9138 83.59 18.0117 83.0985 18.5501C82.7546 18.9417 82.558 19.3822 82.558 19.9206V20.1164C82.902 24.3256 83.1968 27.5071 83.3934 29.5138C83.3934 29.6117 83.3934 29.7096 83.3934 29.8075C83.3934 30.0522 83.3934 30.1501 83.3443 30.1991C83.2951 30.248 83.1477 30.3459 82.8037 30.4927C82.0174 30.7864 81.3294 30.9822 80.6415 30.9822C80.494 30.9822 80.3466 30.9822 80.1992 31.0311C79.3146 31.0801 78.2826 31.3248 77.005 31.7653C75.0884 32.4995 73.6142 33.9678 72.6313 36.1214L72.5822 36.2682V36.3172C72.4348 36.464 71.8942 36.8066 69.8794 37.2961C67.8154 37.5408 66.4395 37.9324 66.4395 39.0092C66.4395 39.3028 66.5869 40.3307 68.1594 40.3307H68.356C71.8451 40.3307 74.0073 39.7434 74.9901 38.4708L76.6118 35.9256C77.7421 34.9467 78.9215 34.4083 80.1992 34.3104C80.3466 34.3594 80.494 34.3594 80.6906 34.3594C81.6243 34.3594 82.8037 34.1147 84.2288 33.5763C86.3419 32.7931 86.8333 31.2758 86.8333 30.1012C86.7842 29.9054 86.735 29.6117 86.735 29.318Z"
            fill="#7C7C7C" />
    </g>
    <mask id="mask5_2865_36205" style="mask-type:luminance" maskUnits="userSpaceOnUse" x="0" y="0"
        width="335" height="58">
        <path d="M335 0H0V58H335V0Z" fill="white" />
    </mask>
    <g mask="url(#mask5_2865_36205)">
        <path
            d="M90.077 20.41C89.9787 19.3822 89.3399 19.0396 88.7502 19.0396C88.3571 19.0396 87.8165 19.1864 87.3742 19.8227C87.0302 20.2632 86.8828 20.8505 86.8828 21.4868V21.6826C87.0794 23.7872 87.2759 25.5493 87.4234 26.9197C87.6691 29.0733 87.8656 30.3948 87.9639 31.0311C88.1114 31.7163 88.4062 33.2826 89.5365 33.2826C90.9616 33.2826 90.9616 31.2269 90.9616 30.4438C90.9616 30.199 90.9616 29.9543 90.9124 29.7096C90.5684 25.6471 90.3227 22.5636 90.077 20.41Z"
            fill="#7C7C7C" />
    </g>
    <mask id="mask6_2865_36205" style="mask-type:luminance" maskUnits="userSpaceOnUse" x="0" y="0"
        width="335" height="58">
        <path d="M335 0H0V58H335V0Z" fill="white" />
    </mask>
    <g mask="url(#mask6_2865_36205)">
        <path
            d="M104.869 28.584C105.458 28.584 105.95 28.2904 106.294 27.752L106.834 26.8709C107.031 26.5773 107.08 26.2836 107.08 25.9899C107.08 25.5005 106.884 25.1089 106.54 24.7663C106.196 24.4726 105.802 24.2769 105.311 24.2769C104.721 24.2769 104.23 24.5705 103.886 25.1089L103.345 25.9899C103.149 26.2836 103.1 26.5773 103.1 26.8709C103.1 27.3604 103.296 27.752 103.64 28.0946C103.984 28.4372 104.426 28.584 104.869 28.584Z"
            fill="#7C7C7C" />
    </g>
    <mask id="mask7_2865_36205" style="mask-type:luminance" maskUnits="userSpaceOnUse" x="0" y="0"
        width="335" height="58">
        <path d="M335 0H0V58H335V0Z" fill="white" />
    </mask>
    <g mask="url(#mask7_2865_36205)">
        <path
            d="M110.177 34.3596C112.535 34.3596 114.255 33.5275 115.238 31.8144C115.484 31.3739 115.631 30.9824 115.631 30.5908C115.631 29.6608 115.042 29.2693 114.452 29.2693C114.059 29.2693 113.666 29.4651 113.223 29.8077C112.339 30.5908 111.356 30.9824 110.177 30.9824C110.029 30.9824 109.882 30.9824 109.734 31.0313C108.85 31.0803 107.818 31.325 106.54 31.7655C104.624 32.4997 103.149 33.968 102.166 36.1216L102.117 36.2684V36.3174C101.97 36.4642 101.429 36.8068 99.4145 37.2963C97.3506 37.541 95.9746 37.9326 95.9746 39.0094C95.9746 39.303 96.122 40.3309 97.6946 40.3309H97.8911C101.38 40.3309 103.542 39.7435 104.525 38.471L106.147 35.9258C107.277 34.9469 108.457 34.4085 109.734 34.3106C109.882 34.3596 110.029 34.3596 110.177 34.3596Z"
            fill="#7C7C7C" />
    </g>
    <mask id="mask8_2865_36205" style="mask-type:luminance" maskUnits="userSpaceOnUse" x="0" y="0"
        width="335" height="58">
        <path d="M335 0H0V58H335V0Z" fill="white" />
    </mask>
    <g mask="url(#mask8_2865_36205)">
        <path
            d="M116.172 36.4642C116.172 35.3874 115.533 34.7021 114.501 34.7021C114.255 34.7021 114.009 34.7511 113.813 34.849C112.732 35.2895 111.847 35.5832 111.257 35.6811C110.668 35.7789 109.193 36.0237 109.193 37.1494C109.193 37.8346 109.636 38.6178 111.65 38.6178C113.026 38.6178 114.206 38.422 115.189 37.9815C115.778 37.6878 116.172 37.1494 116.172 36.4642Z"
            fill="#7C7C7C" />
    </g>
    <mask id="mask9_2865_36205" style="mask-type:luminance" maskUnits="userSpaceOnUse" x="0" y="0"
        width="335" height="58">
        <path d="M335 0H0V58H335V0Z" fill="white" />
    </mask>
    <g mask="url(#mask9_2865_36205)">
        <path
            d="M122.068 29.5628C122.658 29.5628 123.149 29.2691 123.493 28.7307L124.034 27.8497C124.23 27.556 124.279 27.2624 124.279 26.9687C124.279 26.4792 124.083 26.0877 123.739 25.7451C123.395 25.4514 123.002 25.2556 122.51 25.2556C121.921 25.2556 121.429 25.5493 121.085 26.0877L120.545 26.9687C120.348 27.2624 120.299 27.556 120.299 27.8497C120.299 28.3392 120.495 28.7307 120.839 29.0733C121.183 29.416 121.626 29.5628 122.068 29.5628Z"
            fill="#7C7C7C" />
    </g>
    <mask id="mask10_2865_36205" style="mask-type:luminance" maskUnits="userSpaceOnUse" x="0" y="0"
        width="335" height="58">
        <path d="M335 0H0V58H335V0Z" fill="white" />
    </mask>
    <g mask="url(#mask10_2865_36205)">
        <path
            d="M143.051 30.297C142.904 28.9755 142.609 25.5983 142.167 20.2143C142.068 19.3823 141.577 18.8928 140.791 18.8928C140.447 18.8928 139.906 18.9907 139.415 19.5291C139.071 19.9207 138.874 20.3612 138.874 20.8996V21.0954C139.218 25.3536 139.513 28.4861 139.709 30.4928C139.709 30.5907 139.709 30.6886 139.709 30.7865C139.709 31.0312 139.709 31.1291 139.66 31.1781C139.611 31.227 139.464 31.3249 139.12 31.4717C138.334 31.7654 137.646 31.9612 136.958 31.9612H136.908H136.859C136.368 31.9612 135.926 31.9612 135.631 31.9122C135.926 31.4717 136.22 31.0312 136.417 30.4928C136.564 30.1013 136.663 29.7097 136.663 29.3671C136.663 28.4861 136.171 27.4093 133.862 26.9688C133.665 26.9198 133.518 26.9198 133.37 26.9198C132.486 26.9198 131.699 27.3114 131.11 27.9966C130.569 28.6819 130.225 29.5139 130.176 30.5907V30.7865C130.176 31.0802 130.225 31.3738 130.274 31.6675C129.39 32.0101 128.505 32.108 127.621 31.9612H127.522C127.375 31.9612 127.227 31.9612 127.08 32.0101C126.195 32.0591 125.163 32.3038 123.886 32.7443C121.969 33.4785 120.495 34.9468 119.512 37.1004L119.463 37.2473V37.2962C119.316 37.443 118.775 37.7857 116.76 38.2751C114.696 38.5198 113.32 38.9114 113.32 39.9882C113.32 40.2819 113.468 41.3097 115.04 41.3097H115.237C118.726 41.3097 120.888 40.7224 121.871 39.4498L123.493 36.9046C124.623 35.9257 125.802 35.4363 127.08 35.2894C127.227 35.3384 127.375 35.3384 127.522 35.3384C127.817 35.3873 128.161 35.3873 128.505 35.3873C129.832 35.3873 131.208 35.0447 132.584 34.3595C133.665 34.9958 135.139 35.2894 137.007 35.2894H137.056H137.105C138.039 35.2894 139.218 35.0447 140.643 34.5063C142.756 33.7232 143.248 32.2059 143.248 31.0312C143.1 30.8844 143.1 30.5907 143.051 30.297Z"
            fill="#7C7C7C" />
    </g>
    <mask id="mask11_2865_36205" style="mask-type:luminance" maskUnits="userSpaceOnUse" x="0" y="0"
        width="335" height="58">
        <path d="M335 0H0V58H335V0Z" fill="white" />
    </mask>
    <g mask="url(#mask11_2865_36205)">
        <path
            d="M146.442 21.389C146.344 20.3612 145.705 20.0186 145.115 20.0186C144.722 20.0186 144.182 20.1654 143.739 20.8017C143.395 21.2422 143.248 21.8295 143.248 22.4658V22.6616C143.445 24.7662 143.641 26.5283 143.789 27.8987C144.034 30.0523 144.231 31.3738 144.329 32.0101C144.477 32.6953 144.771 34.2616 145.902 34.2616C147.327 34.2616 147.327 32.2059 147.327 31.4228C147.327 31.178 147.327 30.9333 147.278 30.6886C146.885 26.6261 146.639 23.4937 146.442 21.389Z"
            fill="#7C7C7C" />
    </g>
    <mask id="mask12_2865_36205" style="mask-type:luminance" maskUnits="userSpaceOnUse" x="0" y="0"
        width="335" height="58">
        <path d="M335 0H0V58H335V0Z" fill="white" />
    </mask>
    <g mask="url(#mask12_2865_36205)">
        <path
            d="M168.752 35.2405C168.163 35.2405 167.671 35.5341 167.327 36.0725L166.787 36.9536C166.59 37.2472 166.541 37.5409 166.541 37.8346C166.541 38.324 166.738 38.7156 167.082 39.0582C167.426 39.3519 167.819 39.5477 168.31 39.5477C168.9 39.5477 169.391 39.254 169.735 38.7156L170.276 37.8346C170.472 37.5409 170.522 37.2472 170.522 36.9536C170.522 36.4641 170.325 36.0725 169.981 35.7299C169.637 35.3873 169.195 35.2405 168.752 35.2405Z"
            fill="#7C7C7C" />
    </g>
    <mask id="mask13_2865_36205" style="mask-type:luminance" maskUnits="userSpaceOnUse" x="0" y="0"
        width="335" height="58">
        <path d="M335 0H0V58H335V0Z" fill="white" />
    </mask>
    <g mask="url(#mask13_2865_36205)">
        <path
            d="M181.726 28.1435C181.431 28.1435 181.136 28.2414 180.89 28.3882C180.104 28.8287 179.121 29.2203 177.893 29.6118C176.517 29.2692 176.517 28.6329 176.517 28.3393C176.517 28.1924 176.566 28.0945 176.615 27.9967C177.057 27.4583 177.303 27.4093 177.401 27.4093C177.45 27.4093 177.45 27.4093 177.45 27.4093C177.45 27.4093 177.45 27.4093 177.5 27.4583C177.745 28.1435 178.335 28.5351 179.023 28.5351C180.104 28.5351 180.792 27.8988 180.792 26.8709C180.792 26.6262 180.743 26.4304 180.645 26.1857C179.907 24.3747 178.581 23.9832 177.598 23.9832C176.173 23.9832 174.993 24.6194 174.01 25.8431C173.372 26.6262 173.028 27.4583 173.028 28.3393C173.028 29.1224 173.322 29.8566 173.814 30.5907C172.831 30.7865 171.946 30.8844 171.16 30.9334C170.964 30.8844 170.865 30.8355 170.865 30.8355C170.865 30.8355 170.865 30.8355 170.865 30.7865C170.865 30.7376 170.865 30.6886 170.914 30.6397C170.964 30.4439 171.013 30.2481 171.013 30.0524C171.013 29.0245 170.423 28.3882 169.44 28.3882C169.096 28.3882 168.556 28.4861 168.064 29.0735C166.934 30.2971 165.804 30.8844 164.526 30.8844C164.477 30.8844 164.428 30.8844 164.379 30.8844C164.329 30.8844 164.28 30.8844 164.231 30.8844C164.035 30.8844 163.543 30.8844 163.101 29.9055C162.511 28.6819 161.774 28.0456 160.89 28.0456C160.152 28.0456 159.366 28.5351 158.531 29.5629C158.039 30.1502 157.597 30.7376 157.106 31.3739C156.762 31.7165 155.926 32.2059 154.255 32.4996L151.553 32.8912C150.373 33.1359 149.734 33.6743 149.734 34.4085C149.734 34.8979 149.98 35.681 151.651 35.681C155.189 35.681 157.548 35.2405 158.776 34.3595L158.875 34.2616C159.612 33.4296 160.202 32.7443 160.644 32.2059C160.791 32.5486 160.84 32.6464 160.89 32.6954C161.578 33.7232 162.708 34.2616 164.28 34.2616C164.329 34.2616 164.379 34.2616 164.428 34.2616C164.477 34.2616 164.526 34.2616 164.575 34.2616C165.902 34.2616 167.229 33.8701 168.507 33.087C168.752 33.3317 168.998 33.5275 169.293 33.7232C169.588 34.0659 170.03 34.2616 170.62 34.2616C170.816 34.2616 171.013 34.2616 171.258 34.2616C171.357 34.2616 171.504 34.2616 171.602 34.2616C171.799 34.2616 171.996 34.2127 172.143 34.1637C173.519 34.0169 175.092 33.7722 176.861 33.2827C179.269 32.6464 181.185 31.9612 182.61 31.1781C183.2 30.8844 183.495 30.346 183.495 29.7097C183.495 29.2692 183.347 28.8777 183.003 28.5351C182.61 28.3393 182.168 28.1435 181.726 28.1435Z"
            fill="#7C7C7C" />
    </g>
    <mask id="mask14_2865_36205" style="mask-type:luminance" maskUnits="userSpaceOnUse" x="0" y="0"
        width="335" height="58">
        <path d="M335 0H0V58H335V0Z" fill="white" />
    </mask>
    <g mask="url(#mask14_2865_36205)">
        <path
            d="M216.912 28.535C217.501 28.535 217.993 28.2413 218.337 27.7029L218.877 26.8219C219.074 26.5282 219.123 26.2345 219.123 25.9409C219.123 25.4514 218.927 25.0599 218.583 24.7172C218.239 24.4236 217.845 24.2278 217.354 24.2278C216.764 24.2278 216.273 24.5215 215.929 25.0599L215.388 25.9409C215.192 26.2345 215.143 26.5282 215.143 26.8219C215.143 27.3113 215.339 27.7029 215.683 28.0455C216.027 28.3881 216.469 28.535 216.912 28.535Z"
            fill="#7C7C7C" />
    </g>
    <mask id="mask15_2865_36205" style="mask-type:luminance" maskUnits="userSpaceOnUse" x="0" y="0"
        width="335" height="58">
        <path d="M335 0H0V58H335V0Z" fill="white" />
    </mask>
    <g mask="url(#mask15_2865_36205)">
        <path
            d="M229.444 34.6042C228.854 34.6042 228.363 34.8979 228.019 35.4363L227.478 36.3173C227.282 36.611 227.232 36.9047 227.232 37.1983C227.232 37.6878 227.429 38.0794 227.773 38.422C228.117 38.7156 228.51 38.9114 229.002 38.9114C229.591 38.9114 230.083 38.6178 230.427 38.0794L230.967 37.1983C231.164 36.9047 231.213 36.611 231.213 36.3173C231.213 35.8279 231.016 35.4363 230.672 35.0937C230.328 34.8 229.886 34.6042 229.444 34.6042Z"
            fill="#7C7C7C" />
    </g>
    <mask id="mask16_2865_36205" style="mask-type:luminance" maskUnits="userSpaceOnUse" x="0" y="0"
        width="335" height="58">
        <path d="M335 0H0V58H335V0Z" fill="white" />
    </mask>
    <g mask="url(#mask16_2865_36205)">
        <path
            d="M230.721 29.3182C230.328 29.3182 229.935 29.514 229.493 29.8566C228.608 30.6397 227.625 31.0313 226.446 31.0313C226.397 31.0313 226.397 31.0313 226.348 31.0313C226.299 31.0313 226.299 31.0313 226.249 31.0313C225.66 31.0313 224.972 30.6397 224.186 29.8077C223.694 29.2693 223.154 29.1714 222.81 29.1714C221.778 29.1714 221.188 29.8077 221.188 30.8355C221.188 31.1781 221.286 31.5208 221.434 31.8144C222.072 32.9891 222.22 33.6743 222.22 34.017C222.22 36.4153 218.338 37.9815 215.094 38.8625C214.849 38.9115 214.603 39.0094 214.357 39.0583C214.701 37.8836 214.898 36.8558 214.898 35.9748C214.898 31.8634 211.556 29.7587 205.02 29.7587C201.777 29.7587 198.533 30.1013 195.388 30.7866C190.032 31.9123 187.477 33.7722 187.477 36.3663C187.477 38.7646 189.197 40.6735 192.587 41.995C195.585 43.1697 199.516 43.757 204.234 43.757C206.003 43.757 207.772 43.6591 209.541 43.4144C209.296 44.0997 208.902 45.0296 208.362 46.1064C208.018 46.8406 207.87 47.379 207.87 47.8195C207.87 48.5537 208.362 48.8963 208.804 48.8963C209.443 48.8963 209.984 48.3579 210.672 47.0853C211.556 45.568 212.293 44.1486 212.883 42.876C214.21 42.5824 215.487 42.2397 216.814 41.8482C222.466 40.0862 225.463 37.541 225.66 34.3106C225.856 34.3106 226.053 34.3596 226.249 34.3596C226.299 34.3596 226.299 34.3596 226.348 34.3596C226.397 34.3596 226.397 34.3596 226.446 34.3596C228.805 34.3596 230.525 33.5275 231.508 31.8144C231.753 31.3739 231.901 30.9824 231.901 30.5908C231.901 29.7098 231.311 29.3182 230.721 29.3182ZM190.867 36.3663C190.867 36.2195 191.064 35.0448 197.108 33.968C200.303 33.4296 202.956 33.1359 205.069 33.1359C206.986 33.1359 208.411 33.2828 209.345 33.5764C211.31 34.1638 211.507 35.1916 211.507 35.9748C211.507 36.8068 211.261 38.0794 210.721 39.8414C208.46 40.233 206.298 40.4288 204.234 40.4288C200.057 40.4288 196.617 39.8904 194.012 38.8625C191.998 38.0794 190.867 37.1984 190.867 36.3663Z"
            fill="#7C7C7C" />
    </g>
    <mask id="mask17_2865_36205" style="mask-type:luminance" maskUnits="userSpaceOnUse" x="0" y="0"
        width="335" height="58">
        <path d="M335 0H0V58H335V0Z" fill="white" />
    </mask>
    <g mask="url(#mask17_2865_36205)">
        <path
            d="M274.653 24.4726C274.358 23.8852 273.818 23.5916 273.179 23.5916C272.737 23.5916 272.344 23.7384 272 24.081C271.656 24.4236 271.459 24.8152 271.459 25.3046C271.459 25.5983 271.508 25.843 271.656 26.0878C271.705 26.1856 271.803 26.4793 272.049 27.2135C272.344 28.0456 272.344 28.2903 272.344 28.2903C272.344 29.2692 271.066 30.1991 270.034 30.8354C268.854 31.5207 267.626 32.0591 266.496 32.4996C265.857 32.7443 265.12 32.9401 264.383 33.1359C264.923 31.5207 265.169 30.1991 265.169 29.1713C265.169 27.7029 264.53 25.6962 261.483 24.5705C259.96 24.0321 258.043 23.7384 255.783 23.7384C252.146 23.7384 248.805 24.081 245.758 24.7173C240.254 25.892 237.502 28.0456 237.502 31.0802C237.502 33.87 239.861 35.8278 244.48 36.9046C247.183 37.5409 250.623 37.8346 254.702 37.8346C256.078 37.8346 257.699 37.6878 259.567 37.443C258.928 39.1072 258.191 41.016 257.306 43.1696C256.962 43.9527 256.815 44.5401 256.815 44.9806C256.815 45.8127 257.355 46.0574 257.699 46.0574C258.387 46.0574 258.928 45.3232 259.517 44.2464C260.943 41.4565 262.122 39.0093 263.007 36.9046C264.923 36.5131 266.643 36.0236 268.166 35.4852C273.228 33.6743 275.783 31.227 275.783 28.2903C275.783 27.8008 275.636 27.1156 275.341 26.1856C275.095 25.4025 274.85 24.8641 274.653 24.4726ZM240.893 31.0312C240.893 29.7586 243.153 28.6329 247.232 27.8987C250.131 27.3603 252.982 27.1156 255.783 27.1156C258.535 27.1156 261.778 27.4582 261.778 29.1713C261.778 30.1502 261.434 31.7164 260.746 33.87C260.599 33.919 260.402 33.919 260.255 33.9679C258.142 34.3105 256.274 34.4574 254.652 34.4574C251.655 34.4574 248.854 34.2127 246.298 33.7721C242.809 33.0869 240.893 32.157 240.893 31.0312Z"
            fill="#7C7C7C" />
    </g>
    <mask id="mask18_2865_36205" style="mask-type:luminance" maskUnits="userSpaceOnUse" x="0" y="0"
        width="335" height="58">
        <path d="M335 0H0V58H335V0Z" fill="white" />
    </mask>
    <g mask="url(#mask18_2865_36205)">
        <path
            d="M267.185 23.0533C267.775 23.0533 268.266 22.7596 268.61 22.2212L269.151 21.3402C269.347 21.0465 269.397 20.7528 269.397 20.4592C269.397 19.9697 269.2 19.5782 268.856 19.2355C268.512 18.9419 268.119 18.7461 267.627 18.7461C267.038 18.7461 266.546 19.0398 266.202 19.5782L265.662 20.4592C265.465 20.7528 265.416 21.0465 265.416 21.3402C265.416 21.8296 265.613 22.2212 265.957 22.5638C266.301 22.9064 266.743 23.0533 267.185 23.0533Z"
            fill="#7C7C7C" />
    </g>
    <mask id="mask19_2865_36205" style="mask-type:luminance" maskUnits="userSpaceOnUse" x="0" y="0"
        width="335" height="58">
        <path d="M335 0H0V58H335V0Z" fill="white" />
    </mask>
    <g mask="url(#mask19_2865_36205)">
        <path
            d="M293.967 36.9536C293.722 36.9536 293.476 37.0026 293.279 37.1005C292.198 37.541 291.314 37.8346 290.724 37.9325C290.134 38.0304 288.66 38.2751 288.66 39.4009C288.66 40.0861 289.102 40.8692 291.117 40.8692C292.493 40.8692 293.673 40.6734 294.655 40.2329C295.343 39.9393 295.687 39.4009 295.687 38.7156C295.589 37.6388 294.95 36.9536 293.967 36.9536Z"
            fill="#7C7C7C" />
    </g>
    <mask id="mask20_2865_36205" style="mask-type:luminance" maskUnits="userSpaceOnUse" x="0" y="0"
        width="335" height="58">
        <path d="M335 0H0V58H335V0Z" fill="white" />
    </mask>
    <g mask="url(#mask20_2865_36205)">
        <path
            d="M327.335 27.1645C327.04 27.1645 326.745 27.2624 326.352 27.4092C324.73 28.0945 321.978 28.8286 318.243 29.6607C314.214 30.5417 311.167 30.9822 309.201 30.9822C309.152 30.9822 309.152 30.9822 309.103 30.9822C309.054 30.9822 309.054 30.9822 309.005 30.9822C308.808 30.9822 308.71 30.9822 308.661 30.9333C308.12 25.9898 307.727 21.9274 307.481 18.8438C307.383 17.8649 306.744 17.2776 305.811 17.2776C304.729 17.2776 304.091 17.9139 304.091 18.8928V19.0886C304.435 23.2489 304.729 26.4793 304.975 28.6818C304.68 28.8776 304.041 29.2202 302.764 29.7097C300.749 30.4928 298.636 30.8843 296.474 30.8843C296.08 30.8843 295.736 30.9822 295.442 31.178C295.442 31.178 295.442 31.178 295.392 31.178C295.294 30.9333 295.196 30.5417 295.049 30.0033L294.999 29.8565C294.705 29.3181 294.066 28.6818 292.739 28.6329C291.215 28.4371 289.545 28.5839 287.825 29.0734H287.776C284.63 30.297 283.009 32.0101 283.009 34.0658C282.468 34.2126 281.829 34.1637 281.092 34.0168H280.945C280.797 34.0168 280.699 34.0168 280.65 34.0168L279.471 23.0042C279.471 21.2421 278.586 20.9974 278.095 20.9974H277.701L277.603 21.0464C276.325 21.4869 276.129 22.4168 276.129 22.9063V23.0042C276.473 25.6962 276.768 28.486 277.063 31.3248C277.259 34.5063 277.357 35.1915 277.407 35.3873V35.4362C277.652 36.3662 278.488 37.4919 280.847 37.4919C281.289 37.6877 281.731 37.7856 282.272 37.7856C282.91 37.7856 283.648 37.6388 284.483 37.3451C288.169 37.1983 288.955 35.7299 288.955 34.5552C288.955 34.3105 288.906 33.9679 288.807 33.4784L288.758 33.3316L288.709 33.2337C288.611 33.0869 288.464 32.94 288.316 32.7932C289.889 32.2548 291.215 32.059 292.247 32.2059C292.297 32.3038 292.346 32.4995 292.395 32.7443L292.444 32.8911C292.788 33.7232 293.623 34.751 295.638 34.751C295.786 34.751 295.933 34.751 296.08 34.751H296.768C297.014 34.751 297.211 34.6531 297.358 34.4573C299.668 34.3594 301.928 33.87 304.091 33.0379C304.631 32.8421 305.123 32.5974 305.565 32.4016C305.909 33.3805 306.793 34.4573 309.103 34.4573C309.152 34.4573 309.152 34.4573 309.201 34.4573C309.251 34.4573 309.251 34.4573 309.3 34.4573C311.167 34.4573 313.87 34.1147 317.359 33.3805C319.914 32.8911 322.224 32.3038 324.337 31.7164L324.288 31.8143C324.19 32.059 324.19 32.3038 324.19 32.4995C324.19 33.4295 324.779 33.821 325.418 33.821C325.86 33.821 326.45 33.6253 326.991 32.7443C328.17 30.7865 328.711 29.416 328.711 28.535C328.563 27.7029 328.072 27.1645 327.335 27.1645Z"
            fill="#7C7C7C" />
    </g>
</svg>
    