<svg width="22" height="22" viewBox="0 0 22 22" fill="none" xmlns="http://www.w3.org/2000/svg">
    <path fill-rule="evenodd" clip-rule="evenodd"
        d="M8.95 17.428C9.477 17.644 10.238 17.752 11 17.752C11.762 17.752 12.523 17.644 13.05 17.428C14.75 16.73 14.75 15.101 14.75 13.911L14.75 6.973C14.75 4.92 13.068 3.25 11 3.25C8.932 3.25 7.25 4.92 7.25 6.973L7.25 13.911C7.25 15.101 7.25 16.73 8.95 17.428ZM8.75 9.25V7.75L13.25 7.75V9.25L8.75 9.25ZM8.75 10.75L13.25 10.75L13.25 13.911C13.25 15.171 13.177 15.754 12.48 16.04C11.803 16.318 10.198 16.318 9.52002 16.04C8.82302 15.754 8.75 15.172 8.75 13.911L8.75 10.75ZM8.87208 6.25L13.1279 6.25C12.8237 5.37797 11.9849 4.75 11 4.75C10.0151 4.75 9.17632 5.37797 8.87208 6.25Z"
        fill="#0A5EB0" />
    <path fill-rule="evenodd" clip-rule="evenodd"
        d="M1.8708 19.078C4.5618 20.826 7.7188 21.75 10.9998 21.75C14.2808 21.75 17.4368 20.826 20.1278 19.078C21.0178 18.5 21.6048 18.118 21.7298 17.369C21.8578 16.6111 21.3859 16.0281 20.5241 14.9633C18.1771 12.0653 17.5508 8.29199 17.5508 6.51899C17.5508 3.06199 14.6118 0.25 10.9988 0.25C7.38582 0.25 4.44682 3.06199 4.44682 6.51899C4.44682 8.29199 3.82082 12.066 1.46982 14.969C0.61282 16.028 0.140795 16.612 0.268795 17.368C0.393732 18.1176 0.981203 18.4996 1.86945 19.0771L1.8708 19.078ZM2.68881 17.82C2.28381 17.557 1.8268 17.26 1.7538 17.13C1.80775 16.9362 2.22888 16.4171 2.64046 15.9086L2.64179 15.907C5.08279 12.893 5.94882 8.96599 5.94882 6.51899C5.94882 3.88899 8.21478 1.75 11.0008 1.75C13.7868 1.75 16.0528 3.88899 16.0528 6.51899C16.0528 8.96599 16.9188 12.893 19.3648 15.913C19.7728 16.417 20.1938 16.938 20.2468 17.131C20.1748 17.259 19.7168 17.557 19.3118 17.82C14.3398 21.049 7.65981 21.049 2.68881 17.82Z"
        fill="#0A5EB0" />
</svg>
    