<svg width="18" height="22" viewBox="0 0 18 22" fill="none" xmlns="http://www.w3.org/2000/svg">
    <path
        d="M8.20812 6.61303C8.4219 6.96782 8.30759 7.42873 7.95281 7.64251C7.23042 8.07779 6.75 8.86783 6.75 9.76934C6.75 11.1394 7.86068 12.2501 9.23077 12.2501C10.1323 12.2501 10.9223 11.7697 11.3576 11.0473C11.5714 10.6925 12.0323 10.5782 12.3871 10.792C12.7419 11.0058 12.8562 11.4667 12.6424 11.8215C11.947 12.9755 10.6797 13.7501 9.23077 13.7501C7.03225 13.7501 5.25 11.9679 5.25 9.76934C5.25 8.32041 6.02458 7.05311 7.17865 6.35772C7.53343 6.14394 7.99435 6.25825 8.20812 6.61303Z"
        fill="#0A5EB0" />
    <path
        d="M11 7C10.4477 7 10 7.44772 10 8C10 8.55229 10.4477 9 11 9H11.009C11.5613 9 12.009 8.55229 12.009 8C12.009 7.44772 11.5613 7 11.009 7H11Z"
        fill="#0A5EB0" />
    <path fill-rule="evenodd" clip-rule="evenodd"
        d="M9.00022 0.25C9.25175 0.250013 9.48652 0.37611 9.62543 0.585802C9.80783 0.861132 10.1131 1.16161 10.5484 1.49911C10.9793 1.83331 11.4959 2.1725 12.0711 2.53971C12.1839 2.61171 12.299 2.68477 12.4158 2.75895L12.4197 2.76144L12.4206 2.76199C13.4674 3.42658 14.6556 4.18089 15.6246 5.07333C16.7128 6.07562 17.618 7.33415 17.7369 8.96093C17.8515 10.5279 17.2245 12.2694 15.6768 14.2605L15.6768 17.0515C15.6768 17.9504 15.6769 18.6991 15.5979 19.2933C15.5148 19.9194 15.332 20.4855 14.8818 20.9413C14.4302 21.3984 13.8674 21.5852 13.2446 21.6699C12.6558 21.7501 11.9147 21.75 11.0281 21.75L6.9713 21.75C6.08489 21.75 5.34386 21.7501 4.75522 21.6699C4.13249 21.5852 3.56972 21.3985 3.11823 20.9415C2.66801 20.4858 2.48514 19.9199 2.40187 19.2938C2.32286 18.6998 2.32272 17.9512 2.32256 17.0525L2.32198 14.2604C0.774969 12.2693 0.148396 10.5277 0.263265 8.96079C0.382517 7.33409 1.28771 6.07561 2.37594 5.07333C3.34492 4.18088 4.53303 3.42656 5.57983 2.76196C5.69829 2.68675 5.81493 2.61269 5.92925 2.53971C6.50444 2.17251 7.02094 1.83331 7.45193 1.49911C7.88717 1.16161 8.19251 0.861111 8.37497 0.585739C8.5139 0.37606 8.74869 0.249987 9.00022 0.25ZM1.75925 9.07046C1.67881 10.1677 2.11556 11.6092 3.65695 13.5307C3.7637 13.6638 3.82189 13.8292 3.82192 13.9998L3.82252 16.8398C3.99066 16.7081 4.14757 16.5796 4.3018 16.4533C4.47223 16.3137 4.63955 16.1766 4.81497 16.0411C5.31644 15.6537 5.90127 15.2696 6.66242 15.2512C6.81105 15.2476 6.95977 15.2523 7.10785 15.2655C7.88209 15.3341 8.53969 15.6807 9.24449 16.1921C9.46054 16.0478 9.6641 15.9195 9.858 15.8087C10.4359 15.4786 10.9915 15.266 11.6208 15.2511C11.7578 15.2478 11.8948 15.2521 12.0313 15.264C12.7208 15.3241 13.2578 15.7094 13.6921 16.1045C13.855 16.2526 14.0169 16.415 14.1768 16.5808V14C14.1768 13.8293 14.235 13.6637 14.3419 13.5306C15.884 11.6091 16.3212 10.1675 16.2409 9.07032C16.1611 7.97836 15.5559 7.04938 14.6084 6.17667C13.7448 5.38128 12.6745 4.70094 11.6096 4.02404L11.6046 4.0209C11.4909 3.94863 11.3773 3.87639 11.264 3.80404C10.6888 3.43688 10.1201 3.06513 9.62918 2.68448C9.40946 2.5141 9.19655 2.33537 9.00015 2.14688C8.80375 2.33537 8.59084 2.5141 8.37111 2.68448C7.88024 3.06512 7.31153 3.43687 6.7364 3.80404C6.62333 3.87622 6.50995 3.9483 6.3965 4.02042L6.39094 4.02395C5.32605 4.70088 4.25577 5.38124 3.39213 6.17667C2.44457 7.04939 1.83931 7.97842 1.75925 9.07046ZM7.93628 17.1192L7.55911 17.3933C7.22405 17.6368 7.14984 18.1059 7.39336 18.4409C7.63689 18.776 8.10593 18.8502 8.44099 18.6067L8.73982 18.3895C9.56054 17.793 10.1276 17.3822 10.602 17.1112C11.0608 16.8491 11.3678 16.7575 11.6565 16.7506C11.7381 16.7487 11.8198 16.7513 11.9011 16.7584C12.0898 16.7748 12.3197 16.8838 12.6828 17.2141C12.8596 17.375 13.046 17.5671 13.2618 17.7945L13.3765 17.9155C13.5577 18.107 13.7567 18.3173 13.9697 18.5303C14.0245 18.5851 14.0855 18.6296 14.1506 18.6638C14.1412 18.8219 14.1284 18.9649 14.111 19.0958C14.0495 19.5589 13.943 19.7572 13.8146 19.8872C13.6875 20.0158 13.4954 20.122 13.0423 20.1836C12.5666 20.2484 11.9284 20.25 10.9757 20.25L7.02369 20.25C6.07113 20.25 5.43306 20.2484 4.95751 20.1836C4.50448 20.122 4.31239 20.0159 4.18528 19.8872C4.0569 19.7573 3.95036 19.5591 3.88878 19.0961C3.87136 18.9651 3.85853 18.822 3.84908 18.6639C3.87185 18.6519 3.89422 18.6386 3.91611 18.624C4.46857 18.2557 4.94284 17.868 5.32179 17.5581C5.4743 17.4334 5.61146 17.3213 5.73197 17.2282C6.19285 16.8722 6.44827 16.7568 6.69873 16.7507C6.79103 16.7485 6.88339 16.7515 6.97534 16.7596C7.26031 16.7849 7.5505 16.8842 7.93628 17.1192Z"
        fill="#0A5EB0" />
</svg>
    