<svg width="22" height="22" viewBox="0 0 22 22" fill="none" xmlns="http://www.w3.org/2000/svg">
    <path
        d="M8.2231 14.303C8.22348 14.3029 8.22536 14.3087 8.5 15L8.7769 14.303C8.59906 14.2323 8.40094 14.2323 8.2231 14.303Z"
        fill="#0A5EB0" />
    <path fill-rule="evenodd" clip-rule="evenodd"
        d="M12.9386 11.2566C13.3984 11.2652 13.8049 11.2846 14.159 11.3291C14.4617 11.3671 14.7501 11.4257 15.0197 11.5214L15.8429 6.01721C15.4792 5.46693 15.2827 4.92305 15.2537 4.37981C15.2165 3.68231 15.4611 3.09459 15.7787 2.61634C16.0883 2.15014 16.4954 1.74752 16.8332 1.4192L16.9035 1.3509C17.2341 1.02987 17.4781 0.792961 17.6373 0.567478C17.7778 0.368401 18.0063 0.250006 18.25 0.25C18.4937 0.249994 18.7222 0.368378 18.8627 0.567448C19.0219 0.792921 19.2659 1.02981 19.5965 1.35078L19.6669 1.4192C20.0047 1.74752 20.4118 2.15015 20.7213 2.61635C21.0389 3.09461 21.2835 3.68233 21.2463 4.37983C21.2135 4.9938 20.9669 5.6086 20.5066 6.23251L21.5844 16.581C21.6864 17.5599 21.7713 18.3755 21.7451 19.026C21.7174 19.7139 21.5629 20.3432 21.0791 20.8564C20.6002 21.3645 19.9779 21.5683 19.2835 21.6611C18.6185 21.75 17.7704 21.75 16.7407 21.75H16.0017L16 21.75L3.09945 21.75C2.63169 21.75 2.21274 21.7501 1.87384 21.7076C1.50791 21.6616 1.12305 21.555 0.802084 21.2554C0.473788 20.949 0.349526 20.5696 0.296898 20.2042C0.249886 19.8778 0.249943 19.4778 0.250004 19.0469L0.250007 15.945C0.249972 15.0491 0.249942 14.2968 0.336125 13.6985C0.42798 13.0609 0.630695 12.4904 1.1159 12.0375C1.59377 11.5915 2.18335 11.4116 2.84105 11.3291C2.91936 11.3192 3.00025 11.3106 3.08372 11.3031C2.80715 10.7288 2.70235 10.1569 2.76982 9.58752C2.88027 8.65551 3.4348 7.90435 4.03567 7.31037C4.59013 6.76227 5.2665 6.27038 5.85386 5.84321L6.00413 5.73384C6.55139 5.33479 6.97556 5.0116 7.25 4.72353V3.515C6.65408 3.18869 6.25 2.55575 6.25 1.82843C6.25 1.29801 6.4659 0.816586 6.81282 0.469669C7.10571 0.176777 7.58058 0.176777 7.87348 0.469669C8.16637 0.762564 8.16637 1.23744 7.87348 1.53033C7.79636 1.60744 7.75 1.71181 7.75 1.82843C7.75 2.06125 7.93874 2.25 8.17157 2.25C8.28819 2.25 8.39256 2.20363 8.46967 2.12652C8.76256 1.83363 9.23744 1.83363 9.53033 2.12652C9.82322 2.41942 9.82322 2.89429 9.53033 3.18718C9.31516 3.40235 9.04825 3.56712 8.75 3.66124L8.75 4.72336C9.02447 5.01148 9.44872 5.33472 9.99609 5.73383L10.1463 5.84317C10.7337 6.27034 11.4101 6.76225 11.9646 7.31036C12.5655 7.90434 13.1201 8.6555 13.2305 9.58752C13.2962 10.1416 13.1987 10.698 12.9386 11.2566ZM11.1856 11.25L4.81476 11.25C4.31084 10.6049 4.21691 10.1226 4.2594 9.76404C4.31097 9.32886 4.58463 8.8769 5.09019 8.37713C5.55997 7.91274 6.14645 7.48573 6.75458 7.04295L6.88788 6.94585C7.25773 6.67617 7.65353 6.3858 8.00009 6.07865C8.34667 6.3858 8.74249 6.67618 9.11237 6.94586L9.2456 7.04291C9.85376 7.48569 10.4403 7.91273 10.9101 8.37714C11.4157 8.87691 11.6894 9.32887 11.7409 9.76404C11.7834 10.1226 11.6895 10.6049 11.1856 11.25ZM16.3734 12.6109C16.3703 12.6318 16.3664 12.6523 16.3617 12.6724C16.5212 12.9857 16.6109 13.3309 16.6639 13.6985C16.7501 14.2968 16.75 15.0491 16.75 15.945L16.75 20.25C17.8125 20.2499 18.5416 20.247 19.0848 20.1744C19.6208 20.1027 19.8463 19.9775 19.9875 19.8276C20.1239 19.6829 20.226 19.4694 20.2463 18.9655C20.2677 18.4367 20.1959 17.7301 20.0865 16.6797L19.0523 6.75H17.2499L16.3734 12.6109ZM15.25 16L15.25 20.25L14 20.25L13.9983 20.25H11.7499V19.0021C11.7593 17.2665 11.0273 16.0826 10.2859 15.3438C9.91978 14.9789 9.55379 14.724 9.2773 14.559C9.13851 14.4762 9.0206 14.4151 8.93412 14.3734C8.89082 14.3525 8.85523 14.3364 8.82864 14.3247C8.81534 14.3189 8.80428 14.3142 8.7956 14.3106L8.7844 14.306L8.78018 14.3043L8.77842 14.3036C8.77805 14.3034 8.7769 14.303 8.5 15L8.2231 14.303L8.22158 14.3036L8.21982 14.3043L8.2156 14.306L8.2044 14.3106C8.19572 14.3142 8.18466 14.3189 8.17136 14.3247C8.14477 14.3364 8.10918 14.3525 8.06588 14.3734C7.9794 14.4151 7.86149 14.4762 7.7227 14.559C7.44622 14.724 7.08022 14.9789 6.71414 15.3438C5.97274 16.0826 5.24072 17.2665 5.25009 19.0021L5.25009 20.25H3.14287C2.61797 20.25 2.29477 20.2486 2.0606 20.2192C1.95152 20.2055 1.89123 20.1887 1.8588 20.1763C1.8334 20.1665 1.82678 20.1601 1.8254 20.1587C1.82487 20.1584 1.82344 20.1577 1.81868 20.1469C1.81059 20.1285 1.79505 20.0839 1.78157 19.9903C1.75183 19.7839 1.75001 19.4941 1.75001 19L1.75001 16C1.75001 15.0345 1.75183 14.3912 1.8208 13.9124C1.88585 13.4608 1.99695 13.267 2.13938 13.1341C2.28914 12.9943 2.51844 12.8813 3.02781 12.8174C3.55374 12.7514 4.25575 12.75 5.28572 12.75L11.7143 12.75C12.7443 12.75 13.4463 12.7514 13.9722 12.8174C14.4816 12.8813 14.7109 12.9943 14.8606 13.1341C15.0031 13.267 15.1142 13.4608 15.1792 13.9124C15.2482 14.3912 15.25 15.0345 15.25 16ZM6.75009 20.25L10.2499 20.25L10.2499 18.9957C10.2572 17.7325 9.73958 16.917 9.22702 16.4062C8.96597 16.1461 8.70374 15.9635 8.50879 15.8472L8.5 15.842L8.49121 15.8472C8.29626 15.9635 8.03403 16.1461 7.77298 16.4062C7.26042 16.917 6.74279 17.7325 6.75008 18.9957L6.75009 19L6.75009 20.25ZM16.7516 4.29988C16.764 4.53271 16.8538 4.84437 17.1346 5.25H19.3654C19.6463 4.84436 19.736 4.5327 19.7484 4.29986C19.7633 4.0208 19.673 3.74914 19.4718 3.44615C19.2626 3.1311 18.9669 2.8306 18.6215 2.49486L18.5281 2.40442C18.4385 2.31768 18.3444 2.22666 18.25 2.13235C18.1556 2.22668 18.0615 2.31772 17.9719 2.40446L17.8786 2.49486C17.5332 2.83061 17.2375 3.13111 17.0283 3.44616C16.8271 3.74916 16.7367 4.02082 16.7516 4.29988Z"
        fill="#0A5EB0" />
</svg>
    