<svg width="22" height="22" viewBox="0 0 22 22" fill="none" xmlns="http://www.w3.org/2000/svg">
    <path
        d="M8.1323 10.6373C8.22216 11.0416 7.96721 11.4423 7.56286 11.5321L6.66286 11.7321C6.25851 11.822 5.85788 11.567 5.76802 11.1627C5.67816 10.7583 5.93311 10.3577 6.33746 10.2678L7.23746 10.0678C7.64181 9.97799 8.04245 10.2329 8.1323 10.6373Z"
        fill="#0A5EB0" />
    <path
        d="M13.868 10.6373C13.9579 10.2329 14.3585 9.97799 14.7629 10.0678L15.6629 10.2678C16.0672 10.3577 16.3222 10.7583 16.2323 11.1627C16.1424 11.567 15.7418 11.822 15.3375 11.7321L14.4375 11.5321C14.0331 11.4423 13.7782 11.0416 13.868 10.6373Z"
        fill="#0A5EB0" />
    <path fill-rule="evenodd" clip-rule="evenodd"
        d="M0.25 21C0.25 20.5858 0.585786 20.25 1 20.25H1.25001L1.25 4.95393C1.24996 4.61922 1.24992 4.30621 1.28062 4.04508C1.31474 3.75475 1.3938 3.44957 1.60632 3.16937C1.81895 2.88904 2.09158 2.73075 2.36211 2.61988C2.60519 2.52027 2.90635 2.43647 3.22803 2.34697L10.2636 0.388533L10.3154 0.374022C10.5284 0.314293 10.7576 0.25 11 0.25C11.2425 0.25 11.4716 0.314293 11.6846 0.374022L11.7364 0.388533L18.7719 2.34695C19.0936 2.43645 19.3948 2.52027 19.6379 2.61988C19.9084 2.73075 20.1811 2.88904 20.3937 3.16937C20.6062 3.44957 20.6853 3.75475 20.7194 4.04508C20.7501 4.30619 20.75 4.61916 20.75 4.95383L20.75 11.9777C20.7504 11.992 20.7504 12.0064 20.75 12.0209L20.75 20.25H21C21.4142 20.25 21.75 20.5858 21.75 21C21.75 21.4142 21.4142 21.75 21 21.75L1 21.75C0.585786 21.75 0.25 21.4142 0.25 21ZM3.18746 10.9678L2.75001 11.0651L2.75001 8.5985L10.25 6.89016V9.39839L9.93746 9.46784C9.53311 9.5577 9.27816 9.95833 9.36802 10.3627C9.45692 10.7627 9.85005 11.0166 10.25 10.9349L10.25 20.25L2.75001 20.25L2.75001 12.6016L3.51286 12.4321C3.91721 12.3423 4.17216 11.9416 4.0823 11.5373C3.99245 11.1329 3.59181 10.878 3.18746 10.9678ZM11.75 20.25L11.75 10.9348C12.1501 11.0167 12.5434 10.7629 12.6323 10.3627C12.7222 9.95833 12.4672 9.5577 12.0629 9.46784L11.75 9.39832V6.88991L19.25 8.59825V11.065L18.8129 10.9678C18.4085 10.878 18.0079 11.1329 17.918 11.5373C17.8282 11.9416 18.0831 12.3423 18.4875 12.4321L19.25 12.6016V20.25H11.75ZM2.75001 7.06008L2.75001 4.9907C2.75001 4.60637 2.75121 4.38313 2.77036 4.22018C2.77903 4.14646 2.78921 4.10821 2.79546 4.09C2.79834 4.08159 2.80067 4.07705 2.80067 4.07705L2.80143 4.07585L2.8023 4.07489C2.8023 4.07489 2.80589 4.07155 2.8131 4.06659C2.82871 4.05584 2.86254 4.03587 2.9309 4.00786C3.08218 3.94586 3.29622 3.88502 3.66584 3.78213L10.6658 1.83359C10.8062 1.79453 10.8837 1.77319 10.9432 1.76C10.9697 1.75415 10.9846 1.75177 10.9924 1.75075L10.9999 1.75L11.0009 1.75005L11.0076 1.75075C11.0154 1.75177 11.0304 1.75415 11.0568 1.76C11.1163 1.77319 11.1939 1.79453 11.3342 1.83359L18.3342 3.78213C18.7038 3.88502 18.9178 3.94586 19.0691 4.00786C19.1375 4.03587 19.1713 4.05584 19.1869 4.06659C19.1941 4.07155 19.1977 4.07489 19.1977 4.07489L19.1986 4.07585L19.1993 4.07705L19.2011 4.08088C19.202 4.08304 19.2032 4.08611 19.2046 4.09C19.2108 4.10821 19.221 4.14646 19.2296 4.22018C19.2488 4.38313 19.25 4.60637 19.25 4.9907V7.05983L11.601 5.31755C11.2056 5.22748 10.7955 5.22748 10.4001 5.31755L2.75001 7.06008Z"
        fill="#0A5EB0" />
</svg>
    