<svg width="22" height="22" viewBox="0 0 22 22" fill="none" xmlns="http://www.w3.org/2000/svg">
    <path d="M11.1504 15.5V17.6" stroke="#0C11D3" stroke-width="1.5" stroke-linecap="round"
        stroke-linejoin="round" />
    <path
        d="M6.15039 21H16.1504V20C16.1504 18.9 15.2504 18 14.1504 18H8.15039C7.05039 18 6.15039 18.9 6.15039 20V21V21Z"
        stroke="#0C11D3" stroke-width="1.5" stroke-miterlimit="10" />
    <path d="M5.15039 21H17.1504" stroke="#0C11D3" stroke-width="1.5" stroke-linecap="round"
        stroke-linejoin="round" />
    <path
        d="M11 15C7.13 15 4 11.87 4 8V5C4 2.79 5.79 1 8 1H14C16.21 1 18 2.79 18 5V8C18 11.87 14.87 15 11 15Z"
        stroke="#0C11D3" stroke-width="1.5" stroke-linecap="round" stroke-linejoin="round" />
    <path
        d="M4.47004 10.6496C3.72004 10.4096 3.06004 9.96961 2.54004 9.44961C1.64004 8.44961 1.04004 7.24961 1.04004 5.84961C1.04004 4.44961 2.14004 3.34961 3.54004 3.34961H4.19004C3.99004 3.80961 3.89004 4.31961 3.89004 4.84961V7.84961C3.89004 8.84961 4.10004 9.78961 4.47004 10.6496Z"
        stroke="#0C11D3" stroke-width="1.5" stroke-linecap="round" stroke-linejoin="round" />
    <path
        d="M17.5303 10.6496C18.2803 10.4096 18.9403 9.96961 19.4603 9.44961C20.3603 8.44961 20.9603 7.24961 20.9603 5.84961C20.9603 4.44961 19.8603 3.34961 18.4603 3.34961H17.8103C18.0103 3.80961 18.1103 4.31961 18.1103 4.84961V7.84961C18.1103 8.84961 17.9003 9.78961 17.5303 10.6496Z"
        stroke="#0C11D3" stroke-width="1.5" stroke-linecap="round" stroke-linejoin="round" />
</svg>
    