<svg width="24" height="20" viewBox="0 0 24 20" fill="none" xmlns="http://www.w3.org/2000/svg">
    <path
        d="M19.3009 5.91949V11.0695C19.3009 14.1495 17.5409 15.4695 14.9009 15.4695H6.11093C5.66093 15.4695 5.23093 15.4295 4.83093 15.3395C4.58093 15.2995 4.34094 15.2295 4.12094 15.1495C2.62094 14.5895 1.71094 13.2895 1.71094 11.0695V5.91949C1.71094 2.83949 3.47093 1.51953 6.11093 1.51953H14.9009C17.1409 1.51953 18.7509 2.46953 19.1809 4.63953C19.2509 5.03953 19.3009 5.44949 19.3009 5.91949Z"
        stroke="#0A5EB0" stroke-width="1.5" stroke-miterlimit="10" stroke-linecap="round"
        stroke-linejoin="round" />
    <path
        d="M22.302 8.92059V14.0706C22.302 17.1506 20.542 18.4706 17.902 18.4706H9.11203C8.37203 18.4706 7.70204 18.3706 7.12204 18.1506C5.93204 17.7106 5.12203 16.8006 4.83203 15.3406C5.23203 15.4306 5.66203 15.4706 6.11203 15.4706H14.902C17.542 15.4706 19.302 14.1506 19.302 11.0706V5.92059C19.302 5.45059 19.262 5.03062 19.182 4.64062C21.082 5.04063 22.302 6.38059 22.302 8.92059Z"
        stroke="#0A5EB0" stroke-width="1.5" stroke-miterlimit="10" stroke-linecap="round"
        stroke-linejoin="round" />
    <path
        d="M10.4994 11.1394C11.9574 11.1394 13.1394 9.95742 13.1394 8.49939C13.1394 7.04136 11.9574 5.85938 10.4994 5.85938C9.04136 5.85938 7.85938 7.04136 7.85938 8.49939C7.85938 9.95742 9.04136 11.1394 10.4994 11.1394Z"
        stroke="#0A5EB0" stroke-width="1.5" stroke-miterlimit="10" stroke-linecap="round"
        stroke-linejoin="round" />
    <path d="M4.78125 6.29883V10.6989" stroke="#0A5EB0" stroke-width="1.5" stroke-miterlimit="10"
        stroke-linecap="round" stroke-linejoin="round" />
    <path d="M16.2227 6.30078V10.7008" stroke="#0A5EB0" stroke-width="1.5" stroke-miterlimit="10"
        stroke-linecap="round" stroke-linejoin="round" />
</svg>
    