<svg width="22" height="20" viewBox="0 0 22 20" fill="none" xmlns="http://www.w3.org/2000/svg">
    <path
        d="M9.31988 12.2507C8.53188 12.2507 7.74888 11.9507 7.15388 11.3657C6.55188 10.7747 6.23088 9.98672 6.25088 9.14772C6.27088 8.30872 6.62888 7.53572 7.26088 6.97172L9.52609 4.9486C8.50246 4.61912 6.9391 4.30444 5.01386 4.2558C4.53386 4.2438 4.06786 4.11581 3.66686 3.88581L0.628864 2.1498C0.268864 1.9448 0.14386 1.4858 0.34986 1.1268C0.55486 0.7668 1.01386 0.641796 1.37286 0.847796L4.41186 2.58381C4.59886 2.69081 4.81986 2.7498 5.05286 2.7558C7.66828 2.82239 9.85808 3.3729 11.0086 3.92104C11.8123 3.55445 12.7108 3.40487 13.6089 3.50272L14.9129 3.64572C15.7089 3.73172 16.5149 3.53973 17.1809 3.10373L20.5909 0.870718C20.9379 0.643718 21.4019 0.74071 21.6289 1.08771C21.8559 1.43471 21.7589 1.89872 21.4119 2.12572L18.0019 4.35873C17.0459 4.98373 15.8919 5.26071 14.7499 5.13671L13.4459 4.99372C12.728 4.91617 12.0096 5.06443 11.3914 5.40707C11.3772 5.41573 11.3627 5.42388 11.348 5.43154C11.1452 5.54782 10.9536 5.68526 10.7769 5.84272L8.25988 8.09071C7.94188 8.37471 7.76088 8.76273 7.75088 9.18273C7.74088 9.60173 7.90289 9.99672 8.20589 10.2947C8.75389 10.8327 9.60888 10.9017 10.2409 10.4587L11.9049 9.29071C12.3059 9.01071 12.8089 8.90472 13.2869 8.99872L13.6219 9.06471C14.5719 9.25071 15.5609 9.03073 16.3349 8.46073L16.9249 8.02572C17.2579 7.77972 17.7279 7.85073 17.9739 8.18473C18.2199 8.51773 18.1489 8.98773 17.8149 9.23373L17.2249 9.66872C16.3889 10.2845 15.3793 10.6159 14.3509 10.629C14.8934 11.8957 15.695 13.5913 17.1549 14.6898C17.8225 14.5121 19.4405 13.9979 20.4696 12.9688C20.7626 12.6758 21.2377 12.6758 21.5307 12.9688C21.8237 13.2618 21.8237 13.7368 21.5307 14.0298C20.1588 15.4016 18.0973 16.005 17.3914 16.1792C15.9087 17.7001 12.565 19.2488 8.99986 19.2488H9.00086C6.97786 19.2488 4.84086 18.3208 2.82086 16.5648C1.33086 15.2688 0.423858 13.9828 0.385858 13.9288C0.147858 13.5898 0.230861 13.1218 0.569861 12.8848C0.908861 12.6468 1.37686 12.7298 1.61486 13.0688C1.64686 13.1148 4.95086 17.7488 9.00086 17.7488C10.8169 17.7488 14.0219 17.0508 15.8509 15.5638C14.2089 14.1438 13.3899 12.2088 12.8259 10.8738L12.8164 10.8513C12.7746 10.7527 12.7347 10.6583 12.6963 10.5688L11.1029 11.6867C10.5639 12.0647 9.94088 12.2497 9.32188 12.2497L9.31988 12.2507Z"
        fill="#0A5EB0" />
</svg>
    