<svg width="16" height="22" viewBox="0 0 16 22" fill="none" xmlns="http://www.w3.org/2000/svg">
    <path fill-rule="evenodd" clip-rule="evenodd"
        d="M7.99858 5.25C7.69252 5.25003 7.43349 5.40084 7.29957 5.48118C7.13907 5.57746 6.94293 5.71421 6.72317 5.86743L6.7022 5.88204C6.62421 5.93642 6.53992 5.99405 6.45192 6.05423C6.21553 6.21587 5.95232 6.39585 5.71219 6.58021C5.37558 6.83865 5.02351 7.14946 4.75025 7.53145C4.46985 7.92343 4.26874 8.39605 4.25124 8.95763C4.23394 9.51269 4.3981 10.0871 4.73154 10.6853C4.83459 10.8702 4.9021 10.9916 4.94897 11.0831C4.97954 11.1428 4.9918 11.1719 4.99552 11.1809C4.99679 11.1896 4.99913 11.2096 5.0009 11.2483C5.0041 11.3185 5.00428 11.4113 5.00428 11.5684L5.00427 15.012C5.0042 15.2225 5.00412 15.4472 5.02899 15.6363C5.05784 15.8557 5.13174 16.1367 5.36456 16.3747C5.59964 16.615 5.88111 16.6937 6.10351 16.7243C6.29187 16.7502 6.51473 16.7501 6.71947 16.75L9.28027 16.75C9.48492 16.7501 9.70771 16.7502 9.896 16.7243C10.1183 16.6938 10.3997 16.6151 10.6348 16.3749C10.8676 16.137 10.9416 15.8561 10.9705 15.6368C10.9954 15.4478 10.9954 15.2232 10.9954 15.0128L10.9969 11.5677C10.9969 11.4109 10.9972 11.3182 11.0004 11.2482C11.0022 11.2095 11.0045 11.1895 11.0058 11.1809C11.0095 11.1718 11.0217 11.1427 11.0522 11.0831C11.099 10.9917 11.1664 10.8704 11.2693 10.6858C11.6025 10.0873 11.7664 9.51266 11.7487 8.95743C11.7308 8.39573 11.5293 7.92311 11.2486 7.5312C10.975 7.14925 10.6226 6.83847 10.2858 6.58003C10.0457 6.39585 9.78256 6.216 9.5462 6.05446C9.45794 5.99414 9.37335 5.93633 9.29516 5.88184L9.27421 5.86724C9.05439 5.71405 8.8582 5.57732 8.69766 5.48106C8.56372 5.40075 8.30466 5.24997 7.99858 5.25ZM7.56003 7.11255C7.75753 6.97486 7.89498 6.87938 7.99873 6.81267C8.10252 6.87937 8.24001 6.97484 8.43758 7.11251C8.5396 7.18361 8.63819 7.25097 8.73416 7.31656L8.73517 7.31725C8.95832 7.46973 9.16737 7.61257 9.37273 7.77013C9.65959 7.99021 9.87984 8.19625 10.0291 8.40465C10.1712 8.60308 10.2428 8.79432 10.2495 9.0052C10.2564 9.22255 10.1964 9.52919 9.95877 9.95595L9.95232 9.96753C9.85779 10.1373 9.7772 10.282 9.71694 10.3997C9.65805 10.5148 9.59269 10.6526 9.55435 10.8005C9.49616 11.0251 9.4965 11.2693 9.49682 11.5066L9.49687 11.5671L9.49545 14.9777C9.49541 15.0866 9.49534 15.1738 9.49391 15.2488C9.42468 15.25 9.34454 15.25 9.24545 15.25H6.75428C6.65515 15.25 6.57498 15.25 6.50572 15.2488C6.50432 15.1737 6.50428 15.0865 6.50428 14.9776L6.50428 11.5684L6.50436 11.5078C6.50479 11.2701 6.50523 11.0255 6.44695 10.8006C6.40855 10.6524 6.34307 10.5145 6.28406 10.3993C6.22367 10.2814 6.14304 10.1367 6.0483 9.96677L6.04175 9.95502C5.80389 9.5283 5.74374 9.22167 5.75051 9.00434C5.75708 8.79353 5.82841 8.60242 5.97024 8.40417C6.1192 8.19592 6.33912 7.98999 6.62567 7.76999C6.83099 7.61234 7.04009 7.46939 7.26332 7.31677C7.35927 7.25118 7.45803 7.18365 7.56003 7.11255Z"
        fill="#0A5EB0" />
    <path fill-rule="evenodd" clip-rule="evenodd"
        d="M9.25 19.75L6.75 19.75L6.75 21C6.75 21.4142 6.41422 21.75 6 21.75C5.58579 21.75 5.25 21.4142 5.25 21L5.25 19.75H3.95064C3.50734 19.75 3.10494 19.7501 2.75 19.7318V21C2.75 21.4142 2.41422 21.75 2 21.75C1.58579 21.75 1.25 21.4142 1.25 21L1.25 19.3608C1.13035 19.287 1.01618 19.1982 0.909015 19.091C0.526768 18.7087 0.37771 18.2375 0.311611 17.7458C0.249936 17.2871 0.249966 16.7143 0.250002 16.0494L0.250002 5.95063C0.249966 5.28579 0.249936 4.71289 0.311611 4.25416C0.37771 3.76252 0.526768 3.29126 0.909015 2.90901C1.01618 2.80184 1.13035 2.71301 1.25 2.63918L1.25 1C1.25 0.585787 1.58579 0.25 2 0.25C2.41422 0.25 2.75 0.585787 2.75 1L2.75 2.26822C3.10491 2.24995 3.50727 2.24998 3.95052 2.25L5.25 2.25L5.25 1C5.25 0.585787 5.58579 0.25 6 0.25C6.41422 0.25 6.75 0.585787 6.75 1L6.75 2.25L9.25 2.25V1C9.25 0.585787 9.58579 0.25 10 0.25C10.4142 0.25 10.75 0.585787 10.75 1V2.25L12.0494 2.25C12.4926 2.24998 12.8951 2.24995 13.25 2.26822V1C13.25 0.585787 13.5858 0.25 14 0.25C14.4142 0.25 14.75 0.585787 14.75 1V2.63918C14.8697 2.713 14.9838 2.80184 15.091 2.90901C15.4732 3.29126 15.6223 3.76252 15.6884 4.25416C15.7501 4.71289 15.75 5.2857 15.75 5.95053L15.75 16.0494C15.75 16.7142 15.7501 17.2871 15.6884 17.7458C15.6223 18.2375 15.4732 18.7087 15.091 19.091C14.9838 19.1982 14.8697 19.287 14.75 19.3608V21C14.75 21.4142 14.4142 21.75 14 21.75C13.5858 21.75 13.25 21.4142 13.25 21V19.7318C12.8951 19.7501 12.4927 19.75 12.0494 19.75H10.75V21C10.75 21.4142 10.4142 21.75 10 21.75C9.58579 21.75 9.25 21.4142 9.25 21V19.75ZM10 18.25L9.99758 18.25L6.00242 18.25L6 18.25L5.99758 18.25H4.00001C3.2717 18.25 2.80091 18.2484 2.45403 18.2018C2.12873 18.158 2.02677 18.0874 1.96968 18.0303C1.91258 17.9732 1.84197 17.8713 1.79823 17.546C1.7516 17.1991 1.75001 16.7283 1.75001 16L1.75001 6C1.75001 5.27169 1.7516 4.80091 1.79823 4.45403C1.84197 4.12873 1.91258 4.02677 1.96968 3.96967C2.02677 3.91258 2.12873 3.84197 2.45403 3.79823C2.80091 3.7516 3.2717 3.75 4.00001 3.75L12 3.75C12.7283 3.75 13.1991 3.7516 13.546 3.79823C13.8713 3.84197 13.9732 3.91258 14.0303 3.96967C14.0874 4.02677 14.158 4.12873 14.2018 4.45403C14.2484 4.80091 14.25 5.27169 14.25 6L14.25 16C14.25 16.7283 14.2484 17.1991 14.2018 17.546C14.158 17.8713 14.0874 17.9732 14.0303 18.0303C13.9732 18.0874 13.8713 18.158 13.546 18.2018C13.1991 18.2484 12.7283 18.25 12 18.25H10.0024L10 18.25Z"
        fill="#0A5EB0" />
</svg>
    