<svg width="22" height="22" viewBox="0 0 22 22" fill="none" xmlns="http://www.w3.org/2000/svg">
    <path
        d="M17.0001 6.16C16.9401 6.15 16.8701 6.15 16.8101 6.16C15.4301 6.11 14.3301 4.98 14.3301 3.58C14.3301 2.15 15.4801 1 16.9101 1C18.3401 1 19.4901 2.16 19.4901 3.58C19.4801 4.98 18.3801 6.11 17.0001 6.16Z"
        stroke="#0A5EB0" stroke-width="1.5" stroke-linecap="round" stroke-linejoin="round" />
    <path
        d="M15.9695 13.4402C17.3395 13.6702 18.8495 13.4302 19.9095 12.7202C21.3195 11.7802 21.3195 10.2402 19.9095 9.30016C18.8395 8.59016 17.3095 8.35016 15.9395 8.59016"
        stroke="#0A5EB0" stroke-width="1.5" stroke-linecap="round" stroke-linejoin="round" />
    <path
        d="M4.96852 6.16C5.02852 6.15 5.09852 6.15 5.15852 6.16C6.53852 6.11 7.63852 4.98 7.63852 3.58C7.63852 2.15 6.48852 1 5.05852 1C3.62852 1 2.47852 2.16 2.47852 3.58C2.48852 4.98 3.58852 6.11 4.96852 6.16Z"
        stroke="#0A5EB0" stroke-width="1.5" stroke-linecap="round" stroke-linejoin="round" />
    <path
        d="M5.99945 13.4402C4.62945 13.6702 3.11945 13.4302 2.05945 12.7202C0.649453 11.7802 0.649453 10.2402 2.05945 9.30016C3.12945 8.59016 4.65945 8.35016 6.02945 8.59016"
        stroke="#0A5EB0" stroke-width="1.5" stroke-linecap="round" stroke-linejoin="round" />
    <path
        d="M11.0001 13.6297C10.9401 13.6197 10.8701 13.6197 10.8101 13.6297C9.43008 13.5797 8.33008 12.4497 8.33008 11.0497C8.33008 9.61973 9.48008 8.46973 10.9101 8.46973C12.3401 8.46973 13.4901 9.62973 13.4901 11.0497C13.4801 12.4497 12.3801 13.5897 11.0001 13.6297Z"
        stroke="#0A5EB0" stroke-width="1.5" stroke-linecap="round" stroke-linejoin="round" />
    <path
        d="M8.0907 16.7794C6.6807 17.7194 6.6807 19.2594 8.0907 20.1994C9.6907 21.2694 12.3107 21.2694 13.9107 20.1994C15.3207 19.2594 15.3207 17.7194 13.9107 16.7794C12.3207 15.7194 9.6907 15.7194 8.0907 16.7794Z"
        stroke="#0A5EB0" stroke-width="1.5" stroke-linecap="round" stroke-linejoin="round" />
</svg>
    