<svg width="80" height="85" viewBox="0 0 80 85" fill="none" xmlns="http://www.w3.org/2000/svg">
    <path
        d="M42.3811 17.1907C54.2613 17.1907 63.8853 26.8465 63.8853 38.7628C63.8853 50.6791 54.2474 60.3349 42.3811 60.3349C30.5148 60.3349 20.877 50.6791 20.877 38.7628C20.877 26.8465 30.5009 17.1907 42.3811 17.1907Z"
        fill="#F3EACE" />
    <path
        d="M15.654 13.0605C15.654 13.0605 4.70692 22.814 4.70692 36.7675V66.9768H0.138672V36.7815C0.138672 32.3024 1.03004 23.1768 15.654 13.0605Z"
        fill="#DCB565" />
    <path
        d="M64.248 13.0605C64.248 13.0605 75.1951 22.814 75.1951 36.7675V66.9768H79.7634V36.7815C79.7634 32.3024 78.872 23.1768 64.248 13.0605Z"
        fill="#DCB565" />
    <path
        d="M40.0282 0C40.0282 0 51.1702 5.44186 60.3067 13.8419C69.4432 22.2558 71.8805 30.0837 71.8805 36.8791C71.8805 43.6744 71.9084 56.4558 71.9084 56.4558H67.9669V36.9628C67.9669 32.5116 64.7635 16.8558 40.1396 8.62326C15.432 16.8 12.1591 31.814 12.1591 36.9628V56.4837H8.17578V36.9767C8.17578 32.5395 8.35684 23.5814 19.666 13.8279C30.9892 4.10232 40.0282 0 40.0282 0Z"
        fill="#DCB565" />
    <path
        d="M42.3808 60.321C30.5006 60.321 20.8766 50.6652 20.8766 38.7489C20.8766 28.1163 28.5507 19.2977 38.6343 17.5256C25.7234 17.9442 15.3613 28.5489 15.3613 41.6233C15.3613 54.9349 26.1273 65.7349 39.4143 65.7349C52.0883 65.7349 62.4505 55.9117 63.3836 43.4512C61.2388 53.107 52.6454 60.321 42.3808 60.321Z"
        fill="#0A519A" />
    <path
        d="M44.8872 40.2838C45.3607 40.4931 45.7785 40.7163 46.1546 40.9535L48.8426 39.2372C47.7702 38.4698 46.2799 37.6465 44.1769 36.5582C37.2827 32.9721 35.4443 33.4186 35.4025 26.4419C31.0292 35.1489 40.2493 38.2605 44.8872 40.2838Z"
        fill="#0A519A" />
    <path
        d="M48.4819 37.814C48.9833 38.0652 49.4011 38.3303 49.805 38.6093L52.6323 36.8093C50.2785 35.0233 46.0446 33.0977 40.8357 30.4884C33.9136 27.014 38.7465 22.7582 42.2702 22.7582C45.7939 22.7582 48.2591 25.3535 47.2423 30.5442C50.7939 27.0698 49.4708 20.8047 43.3287 20.8047C37.1866 20.8047 35.2507 24.9907 35.9889 28.9954C36.7967 33.321 42.7019 34.9814 48.4819 37.814Z"
        fill="#0A519A" />
    <path
        d="M39.4006 42.1396C40.5148 42.6559 41.434 43.0884 42.2139 43.4791L45.2084 41.5675C43.8435 40.8838 41.6568 40.0466 38.0078 37.8838C32.9939 34.9256 33.551 29.8884 33.551 29.8884C30.3337 38.2326 35.473 40.3256 39.4006 42.1396Z"
        fill="#0A519A" />
    <path
        d="M54.3025 38.5535C54.0936 38.1768 53.7594 37.814 53.3694 37.4512L50.57 39.2372C53.8012 42.1395 52.687 45.9767 52.687 45.9767C52.687 45.9767 52.2273 46.0047 51.5588 46.0047C51.5588 42.8791 51.4613 41.4279 49.609 39.8372L46.9627 41.5256C49.4558 43.5628 48.9961 45.9907 48.9961 45.9907C48.9961 45.9907 48.7037 46.0186 47.7287 46.0186C47.4084 43.6744 47.0881 42.7954 46.0853 42.0698L43.1466 43.9535C45.9042 45.4465 45.9321 46.1163 45.6535 47.8605C45.2775 50.1767 40.6535 54.2651 36.5588 50.8326C31.6424 46.7163 36.712 42.7535 36.712 42.7535C31.1131 45.307 31.907 50.707 35.2496 53.2047C38.9544 55.9814 45.6953 54.7116 46.9488 49.3814C49.7204 49.3814 48.7455 49.3814 52.7427 49.3814C55.4168 44.6372 55.6675 40.8837 54.3025 38.5535Z"
        fill="#0A519A" />
    <path
        d="M1.02372 73.4133L1.46973 73.7914L1.95004 73.3102L1.43542 72.8977L1.09234 73.3102L0.612022 72.8977L0.166016 73.4133L0.646331 73.7914L1.02372 73.4133Z"
        fill="#0A519A" />
    <path
        d="M2.84357 77.366H3.22096H5.38238V75.3725C5.38238 74.96 5.27946 74.4444 5.0393 73.8601L4.2159 74.6163C4.45606 74.8913 4.6276 75.1319 4.69622 75.4068H2.98081C2.84357 75.4068 2.77496 75.3725 2.70634 75.3381C2.63772 75.2693 2.56911 75.1319 2.56911 74.96L2.46618 73.6882L1.88294 74.1694L1.91725 74.41C1.43694 74.6506 1.05955 74.9256 0.750771 75.235C0.613538 75.9224 0.544922 76.3349 0.544922 76.4036V76.438C1.12816 76.7473 1.47124 76.9536 1.60848 77.0223C1.67709 77.0223 1.74571 76.9192 1.91725 76.7473C2.02017 76.6442 2.08879 76.5067 2.19172 76.4036L2.36326 77.0223C2.43187 77.2629 2.60342 77.366 2.84357 77.366ZM1.88294 75.7849C1.60848 75.6131 1.40263 75.5099 1.23109 75.4756C1.50555 75.2693 1.74571 75.1319 1.95156 75.0631L2.02018 75.6131L1.88294 75.7849Z"
        fill="#0A519A" />
    <path
        d="M4.21538 78.2943L3.73507 77.8818L3.28906 78.363L3.76938 78.7755L4.14677 78.363L4.59277 78.7755L5.07309 78.2943L4.59277 77.8818L4.21538 78.2943Z"
        fill="#0A519A" />
    <path
        d="M8.8814 78.2255L8.40108 77.8474L7.95508 78.3286L8.43539 78.741L8.81278 78.3286L9.25879 78.741L9.73911 78.2598L9.25879 77.813L8.8814 78.2255Z"
        fill="#0A519A" />
    <path
        d="M20.7865 79.3597L20.3405 78.9473L19.8945 79.4628L20.3748 79.8409L20.7522 79.4628L21.1982 79.8409L21.6443 79.3597L21.1639 78.9473L20.7865 79.3597Z"
        fill="#0A519A" />
    <path
        d="M15.5365 76.6099C15.5365 76.3693 15.5365 76.0944 15.5022 75.7163C15.4679 75.1663 15.4336 74.8913 15.4336 74.8226C15.3993 74.3758 15.3993 73.9977 15.3993 73.7914L15.5708 73.6196C15.3993 73.3102 15.2964 72.9321 15.2964 72.4509L14.4044 73.1384L14.7131 75.3725H14.5759C14.3014 75.3725 14.0956 75.3382 13.9584 75.3038C13.7525 75.2351 13.581 75.1319 13.4437 74.9601L12.7919 74.1695C12.5517 73.8946 12.2772 73.7571 11.9685 73.7571C11.694 73.7571 11.4538 73.8946 11.2823 74.1695C11.1451 74.4101 11.0765 74.6507 11.0765 74.9601L11.1108 75.0288C11.1451 75.0288 11.2137 74.9945 11.3166 74.8913C11.4195 74.7882 11.5225 74.7539 11.6254 74.7539C11.9342 74.7539 12.3459 74.9601 12.8948 75.3382H10.5618H10.3217C10.1501 75.3382 10.0129 75.2694 9.87567 75.1663C9.73844 75.0632 9.70413 74.9257 9.70413 74.7539C9.70413 74.7195 9.70413 74.6164 9.73844 74.5476C9.77275 74.4445 9.77275 74.3758 9.77275 74.3414L9.73844 74.307C9.63551 74.3758 9.46397 74.4445 9.25812 74.5476C9.25812 75.0632 8.98366 75.3382 8.46904 75.3382H7.50841C7.37117 75.0288 7.23394 74.7882 7.09671 74.6164C6.78793 75.0632 6.54778 75.3725 6.37623 75.6132C6.78793 75.9912 7.09671 76.335 7.23394 76.6787C7.0624 76.988 6.78793 77.263 6.41054 77.5036C6.03315 77.7786 5.65576 77.8817 5.34699 77.8817C5.20976 77.8817 5.14114 77.8817 5.14114 77.8817L5.00391 77.9504C5.03821 78.0879 5.24406 78.2254 5.69007 78.4317C6.10177 78.6379 6.37623 78.741 6.54778 78.741H6.58208C6.85655 78.6723 7.13102 78.5004 7.33686 78.1911C7.50841 77.9504 7.67995 77.6755 7.74856 77.3318H8.91504C9.01797 77.3318 9.12089 77.2974 9.22382 77.2286C9.36105 77.1599 9.42967 77.0911 9.42967 77.0224C9.5669 77.2286 9.73844 77.3318 9.9786 77.3318H10.1844H10.5618H15.5022C15.5365 76.9193 15.5365 76.6787 15.5365 76.6099Z"
        fill="#0A519A" />
    <path d="M12.5529 72.7946L11.9697 72.2791L11.4551 72.829L12.0383 73.3446L12.5529 72.7946Z"
        fill="#0A519A" />
    <path
        d="M16.9087 72.3479L15.9824 73.0697L16.2569 77.7099C16.5657 77.435 16.7372 77.2287 16.8401 77.0912C17.0117 76.7819 17.0803 76.4382 17.0803 76.0944L16.9087 72.3479Z"
        fill="#0A519A" />
    <path d="M28.8137 78.6722L29.3283 78.0879L28.7794 77.6067L28.2305 78.1566L28.8137 78.6722Z"
        fill="#0A519A" />
    <path
        d="M31.0105 75.3725C30.6674 75.4069 30.3587 75.2694 30.0842 74.9944C29.8784 74.7194 29.6382 74.4788 29.398 74.2039C29.1236 73.8945 28.8491 73.757 28.5403 73.757C28.2659 73.757 28.0257 73.8945 27.8542 74.1695C27.7169 74.4101 27.6483 74.6507 27.6483 74.9601L27.6826 75.0288C27.7169 75.0288 27.7856 74.9944 27.8885 74.8913C27.9914 74.7882 28.0943 74.7538 28.1972 74.7538C28.506 74.7538 28.9177 74.9601 29.4667 75.3381H27.4425C27.0994 75.3725 26.7906 75.235 26.5161 74.9601C26.3103 74.6851 26.0701 74.4445 25.83 74.1695C25.5555 73.8601 25.281 73.7227 24.9723 73.7227C24.6978 73.7227 24.4577 73.8601 24.2861 74.1351C24.1489 74.3757 24.0803 74.6163 24.0803 74.9257L24.1146 74.9944C24.1489 74.9944 24.2175 74.96 24.3204 74.8569C24.4233 74.7538 24.5263 74.7194 24.6292 74.7194C24.938 74.7194 25.3497 74.9257 25.8986 75.3038H23.5999H23.1882H21.0611C20.6837 75.785 20.5122 76.1631 20.5122 76.438C20.5122 76.5412 20.6151 76.6443 20.821 76.7474C20.8896 76.7818 21.0954 76.8505 21.4042 76.9193C21.6444 76.988 21.7816 77.0224 21.8159 77.0911C21.4042 77.263 20.9582 77.3317 20.4779 77.3317C19.6545 77.3317 19.2771 77.0224 19.2771 76.4037C19.2771 76.1631 19.3114 75.9225 19.4143 75.6819L19.483 75.51L19.5173 75.3381L19.4143 75.235L19.2428 75.3038C19.0713 75.4756 18.8997 75.7162 18.7625 76.06C18.6253 76.4037 18.5566 76.6787 18.5566 76.9536C18.5566 76.988 18.5566 77.0911 18.5566 77.263C18.5909 77.7098 18.7625 78.0535 19.1056 78.2941C19.4143 78.5347 19.826 78.6379 20.2721 78.6379C21.0954 78.6379 21.7816 78.3629 22.3649 77.8129C22.4335 77.7442 22.4678 77.6411 22.5364 77.5036C22.5707 77.3661 22.605 77.263 22.605 77.1599C22.605 77.0567 22.4678 76.8849 22.1933 76.6443C22.3992 76.6786 22.5707 76.7818 22.7422 76.988C22.8795 77.1942 23.0167 77.263 23.1196 77.263H23.5999H26.722H26.7906H30.3587L31.0105 75.3725Z"
        fill="#0A519A" />
    <path
        d="M32.3128 77.0912C32.4843 76.7819 32.5529 76.4382 32.5529 76.0944L32.3814 72.3479L31.4551 73.0697L31.7295 77.7099C32.0383 77.435 32.2442 77.2287 32.3128 77.0912Z"
        fill="#0A519A" />
    <path
        d="M37.4936 77.3661L37.5279 76.7818V76.6443V76.6099C37.5279 76.6443 37.5279 76.5068 37.4936 76.1631L37.3906 73.7914L37.5622 73.6196C37.3906 73.2759 37.2877 72.8978 37.2877 72.4509L36.3957 73.1384L36.7045 75.3725H35.538H35.1949H34.6803C34.543 75.0632 34.4058 74.8226 34.2686 74.6507C33.9598 75.0976 33.7197 75.4069 33.5481 75.6475C33.9598 76.0256 34.2686 76.3693 34.4058 76.7131C34.2343 77.0224 33.9598 77.2974 33.5824 77.538C33.205 77.813 32.8276 77.9161 32.5189 77.9161C32.3816 77.9161 32.313 77.9161 32.313 77.9161L32.1758 77.9848C32.2101 78.1223 32.4159 78.2598 32.8619 78.466C33.2736 78.6723 33.5481 78.7754 33.7197 78.7754H33.754C34.0284 78.7066 34.3029 78.5348 34.5087 78.2254C34.6803 77.9848 34.8518 77.7098 34.9204 77.3661H35.2292H35.5723H37.4936Z"
        fill="#0A519A" />
    <path
        d="M38.8675 77.0912C39.039 76.7819 39.1076 76.4382 39.1076 76.0944L38.9361 72.3479L38.0098 73.0697L38.2842 77.7099C38.593 77.435 38.7989 77.2287 38.8675 77.0912Z"
        fill="#0A519A" />
    <path d="M43.0861 74.3413L42.5029 73.8257L41.9883 74.3756L42.5372 74.8912L43.0861 74.3413Z"
        fill="#0A519A" />
    <path
        d="M44.4255 76.4382C44.4255 75.7508 44.2539 75.0977 43.9452 74.479L43.0531 75.3039C43.259 75.5445 43.3962 75.682 43.4305 75.7851C43.5678 75.957 43.6364 76.1289 43.6707 76.3351C43.1904 76.7476 42.7444 76.9882 42.367 76.9882C42.0925 76.9882 41.8867 76.885 41.7494 76.7132C41.6122 76.5413 41.5093 76.3351 41.5093 76.0945C41.5093 76.0257 41.5093 75.9226 41.5436 75.8195C41.5779 75.7164 41.5779 75.6133 41.5779 75.5445C41.5779 75.407 41.5436 75.3727 41.4407 75.3727L41.2691 75.4758C40.9947 75.7851 40.8574 76.3007 40.8574 76.9882C40.8574 77.4694 40.9947 77.9162 41.2348 78.2255C41.5093 78.6036 41.921 78.8099 42.4013 78.8099C43.0875 78.8099 43.6021 78.5693 43.9452 78.1224C44.2882 77.6756 44.4255 77.1256 44.4255 76.4382Z"
        fill="#0A519A" />
    <path
        d="M51.8345 78.2599L51.3542 77.8474L50.9082 78.363L51.3885 78.7411L51.7659 78.363L52.2119 78.7411L52.6922 78.2599L52.2119 77.8474L51.8345 78.2599Z"
        fill="#0A519A" />
    <path
        d="M58.7651 77.3662H59.6571V75.3726C59.6571 75.0289 59.5542 74.6165 59.3826 74.1352L58.6278 74.8227C58.7994 75.0289 58.9023 75.2352 58.9709 75.5101C58.8337 75.5101 58.6965 75.4758 58.5592 75.407C58.422 75.3383 58.3191 75.2695 58.2505 75.132L58.1818 74.9602C58.1475 74.8571 58.1132 74.8227 58.0789 74.8227C58.0789 74.8227 57.976 74.9602 57.8388 75.1664C57.7358 75.3383 57.5986 75.407 57.4271 75.407C57.2555 75.407 57.084 75.3039 56.9467 75.0977L56.7409 74.8227C56.6037 75.0633 56.5007 75.1664 56.5007 75.2008C56.3978 75.3039 56.2606 75.3726 56.089 75.3726H55.0255L54.9569 73.7915L55.1284 73.6197C54.9569 73.2759 54.8539 72.8979 54.8539 72.451L53.9619 73.1385L54.2707 75.3726H53.1728H52.8298C52.6582 75.3726 52.521 75.3039 52.3837 75.2008C52.2465 75.0977 52.2122 74.9602 52.2122 74.7883C52.2122 74.7196 52.2465 74.5821 52.2808 74.3415V74.3071C52.075 74.4102 51.9034 74.479 51.8005 74.5477C51.8005 75.0633 51.526 75.3383 50.9771 75.3383H50.1194H49.8106H49.4332C49.3303 75.2352 49.2274 75.0633 49.1245 74.8227C49.0215 74.5477 48.9186 74.3415 48.8843 74.2727C48.7471 74.1009 48.5755 73.9978 48.3697 73.9978C48.1638 73.9978 47.9923 74.1009 47.8208 74.2727C47.7521 74.3415 47.6149 74.5133 47.3747 74.8571C47.2032 75.0977 47.0317 75.2352 46.9287 75.3383H46.1053C45.8995 75.3383 45.7966 75.3039 45.7623 75.2695C45.6936 75.2351 45.6936 75.0977 45.6593 74.8914L45.5907 72.3479L44.8359 72.8979L44.9389 76.61C44.9389 76.7819 45.0075 76.9194 45.1104 77.0569C45.2476 77.2287 45.3849 77.2975 45.5221 77.2975H45.728H46.071H47.0317C47.1003 77.2975 47.2375 77.2287 47.4434 77.1256C47.9923 77.5037 48.3011 77.6756 48.404 77.6756C48.4726 77.6756 48.5755 77.6412 48.6785 77.5381C48.7814 77.4693 48.8157 77.3662 48.85 77.2975H49.8449H50.1537H51.4574C51.526 77.2975 51.629 77.2631 51.7662 77.1944C51.9034 77.1256 51.972 77.0569 51.972 76.9881C52.075 77.1256 52.1436 77.1944 52.2122 77.2287C52.2808 77.2975 52.4181 77.2975 52.521 77.2975H52.8298H53.2415H54.8196H55.1284H56.4321C56.6723 77.2975 56.8438 77.2287 57.0154 77.0569C57.1869 77.2287 57.3927 77.2975 57.6672 77.2975C57.976 77.2975 58.1818 77.2287 58.3191 77.0569C58.4563 77.2975 58.6278 77.3662 58.7651 77.3662ZM48.6098 75.9226C48.1981 75.682 47.958 75.4758 47.8208 75.3383C47.958 75.132 48.0952 75.0289 48.1981 75.0289C48.3354 75.0289 48.4383 75.132 48.5412 75.3383C48.6098 75.5101 48.6442 75.682 48.6442 75.8538V75.9226H48.6098Z"
        fill="#0A519A" />
    <path
        d="M61.8538 73.3103L62.2998 73.6884L62.7801 73.2071L62.2998 72.7947L61.9224 73.1728L61.4421 72.7947L60.9961 73.2759L61.4764 73.6884L61.8538 73.3103Z"
        fill="#0A519A" />
    <path
        d="M67.3426 77.366H67.9602H68.2346H69.5726C69.8128 77.366 69.9843 77.2972 70.1559 77.1254C70.3274 77.2972 70.5333 77.366 70.8077 77.366C71.1165 77.366 71.3224 77.2972 71.4596 77.1254C71.6997 77.2972 71.8713 77.366 71.9742 77.366H72.8662V75.3724C72.8662 75.0287 72.7633 74.6162 72.5918 74.135L71.837 74.8225C72.0085 75.0287 72.1114 75.2349 72.1801 75.5099C72.0428 75.5099 71.9056 75.4755 71.7684 75.4068C71.6311 75.338 71.5282 75.2693 71.4596 75.1318L71.391 74.9599C71.3567 74.8568 71.3224 74.8225 71.288 74.8225C71.288 74.8225 71.1851 74.9599 71.0479 75.1662C70.945 75.338 70.8077 75.4068 70.6362 75.4068C70.4647 75.4068 70.2931 75.3037 70.1559 75.1318L69.95 74.8225C69.8128 75.0631 69.7099 75.1662 69.7099 75.2006C69.6069 75.3037 69.4697 75.3724 69.2982 75.3724H68.2346C68.2346 75.0287 68.1317 74.6162 67.9602 74.135L67.2054 74.8225C67.3769 75.0287 67.4798 75.2349 67.5485 75.5099C67.4112 75.5099 67.274 75.4755 67.1368 75.4068C66.9995 75.338 66.8966 75.2693 66.828 75.1318L66.7594 74.9599C66.7251 74.8568 66.6907 74.8225 66.6564 74.8225C66.6564 74.8225 66.5535 74.9599 66.4163 75.1662C66.3134 75.338 66.1761 75.4068 66.0046 75.4068C65.833 75.4068 65.6615 75.3037 65.5243 75.1318L65.3184 74.8225C65.1812 75.0631 65.0783 75.1662 65.0783 75.2006C64.9753 75.3037 64.8381 75.3724 64.6666 75.3724H63.5687C63.4315 75.3724 63.3628 75.338 63.2942 75.3037C63.2256 75.2349 63.157 75.0974 63.157 74.9256L63.0541 73.6538L62.4708 74.135L62.5051 74.3756C62.0248 74.6162 61.6474 74.8912 61.3387 75.2006C61.2014 75.888 61.1328 76.3005 61.1328 76.3692V76.4036C61.7161 76.7129 62.0591 76.9192 62.1964 76.9879C62.265 76.9879 62.3336 76.8848 62.5051 76.7129C62.6081 76.6098 62.6767 76.4723 62.7796 76.3692L62.9511 76.9879C63.0198 77.1598 63.157 77.2629 63.3628 77.2972V77.3316H63.4658H63.8432H64.9753C65.2155 77.3316 65.387 77.2629 65.5586 77.091C65.7301 77.2629 65.936 77.3316 66.2104 77.3316C66.5192 77.3316 66.7251 77.2629 66.8623 77.091C67.0681 77.2972 67.2397 77.366 67.3426 77.366ZM62.4708 75.7849C62.1964 75.613 61.9905 75.5099 61.819 75.4755C62.0934 75.2693 62.3336 75.1318 62.5395 75.0631L62.6081 75.613L62.4708 75.7849Z"
        fill="#0A519A" />
    <path
        d="M73.1403 73.7571L73.0717 73.9633C73.5863 73.654 73.8951 73.4821 73.998 73.4477L74.1009 73.104V73.0696H74.0666C73.9294 73.1384 73.7921 73.2071 73.6549 73.2071C73.4834 73.2071 73.3804 73.1728 73.3118 73.1384C73.4148 73.0009 73.4834 72.9322 73.552 72.9322L73.7235 73.0353C73.8265 72.9322 73.8608 72.8634 73.8608 72.7603C73.8608 72.6572 73.7921 72.6228 73.6549 72.6228C73.552 72.6228 73.4834 72.6572 73.4148 72.6915C73.3118 72.7603 73.2432 72.8978 73.1403 73.0353C73.0374 73.2071 72.9688 73.3446 72.9688 73.4477V73.4821C73.106 73.5508 73.2089 73.5852 73.3118 73.6196C73.2432 73.654 73.2089 73.7227 73.1403 73.7571Z"
        fill="#0A519A" />
    <path
        d="M78.8348 77.3316L79.5896 75.9567L79.6925 75.7505C79.6925 75.7161 79.6582 75.7161 79.5553 75.6474C79.3494 75.5786 79.2122 75.4068 79.1436 75.1318C78.972 74.7193 78.9034 74.4787 78.8691 74.4444C78.7319 74.2038 78.526 74.0663 78.2859 74.0663C78.08 74.0663 77.9085 74.1694 77.7026 74.3412C77.634 74.41 77.4968 74.5819 77.2909 74.9256C77.1194 75.1662 76.9821 75.3037 76.8449 75.3724H75.9529H75.6784H75.5755C75.3353 74.2381 74.9923 73.6538 74.5806 73.6538C74.3061 73.6538 74.0316 73.9632 73.7572 74.5819C73.517 75.0631 73.3455 75.5099 73.2769 75.888C73.2426 76.0942 73.2082 76.2317 73.2082 76.3692C73.2082 76.6098 73.3112 76.816 73.517 77.0223C73.7229 77.2285 73.963 77.3316 74.2032 77.3316C74.512 77.3316 74.7864 77.1598 74.9923 76.816C74.9237 77.1254 74.7178 77.4004 74.409 77.6066C74.1003 77.8128 73.7572 77.9159 73.4141 77.9159C73.2425 77.9159 73.1053 77.9159 73.0024 77.8816L72.7622 77.8472C72.6936 77.8472 72.625 77.8816 72.625 77.9159C72.625 77.9503 72.7622 78.0878 73.071 78.294C73.3112 78.4659 73.4827 78.569 73.5856 78.6034C73.7915 78.7065 73.9973 78.7409 74.2032 78.7409C74.8207 78.7409 75.2667 78.294 75.5069 77.366H75.6784H76.9821C77.0508 77.366 77.188 77.2972 77.3938 77.1941C77.9428 77.5722 78.2515 77.7441 78.3545 77.7441C78.526 77.7097 78.6976 77.6066 78.8348 77.3316ZM74.8893 75.3724C74.7178 75.3724 74.5806 75.338 74.409 75.2349C74.2375 75.1318 74.1346 75.0287 74.1346 74.8568L74.2032 74.685L74.3747 74.6162C74.512 74.6162 74.6835 74.7193 74.8207 74.8912C74.9237 75.0287 75.0266 75.2005 75.0609 75.3724C74.9923 75.3724 74.9237 75.3724 74.8893 75.3724ZM78.2172 75.0287C78.3545 75.0287 78.4574 75.1318 78.5603 75.338C78.6289 75.5099 78.6632 75.6818 78.6632 75.8536V75.9224C78.2515 75.6818 78.0114 75.4755 77.8742 75.338C77.9771 75.1318 78.08 75.0287 78.2172 75.0287Z"
        fill="#0A519A" />
    <path
        d="M1.95027 82.4532C1.53857 82.3157 1.36703 82.1782 1.36703 81.9032C1.36703 81.697 1.53857 81.4907 1.91597 81.4907C2.19043 81.4907 2.39628 81.5595 2.4649 81.6282L2.56782 81.3189C2.43059 81.2501 2.22474 81.1814 1.91597 81.1814C1.33273 81.1814 0.955335 81.4907 0.955335 81.9376C0.955335 82.3157 1.26411 82.5563 1.74442 82.7281C2.15612 82.8656 2.29336 83.0375 2.29336 83.2781C2.29336 83.5531 2.0532 83.7593 1.67581 83.7593C1.40134 83.7593 1.16118 83.6906 0.989644 83.5874L0.886719 83.8968C1.05826 83.9999 1.36703 84.0686 1.6415 84.0686C2.36197 84.0686 2.67075 83.6906 2.67075 83.2437C2.70505 82.8656 2.43059 82.625 1.95027 82.4532Z"
        fill="#0A519A" />
    <path
        d="M4.93637 82.9001C4.93637 83.5188 4.6619 83.7938 4.2159 83.7938C3.8042 83.7938 3.52973 83.5188 3.52973 82.9001V81.2502H3.15234V82.9001C3.15234 83.7594 3.59835 84.1031 4.2159 84.1031C4.86775 84.1031 5.34807 83.7594 5.34807 82.9001V81.2502H4.97068V82.9001H4.93637Z"
        fill="#0A519A" />
    <path d="M6.30903 81.2158H5.93164V84.0343H7.57843V83.725H6.30903V81.2158Z" fill="#0A519A" />
    <path
        d="M8.70893 81.2158L7.67969 83.9999H8.09139L8.40016 83.1063H9.46371L9.77249 83.9999H10.1842L9.15494 81.2158H8.70893ZM8.50308 82.8657L8.81186 82.0407C8.88048 81.8689 8.91478 81.697 8.94909 81.5252C8.9834 81.697 9.05202 81.8689 9.12063 82.0407L9.42941 82.8313H8.50308V82.8657Z"
        fill="#0A519A" />
    <path d="M10.9399 81.2158H10.5625V83.9999H10.9399V81.2158Z" fill="#0A519A" />
    <path
        d="M13.8223 81.2158L13.2734 82.5563C13.1362 82.9 13.0333 83.2094 12.9646 83.4844C12.896 83.175 12.7931 82.9 12.6559 82.5563L12.1412 81.2158H11.6609L11.4551 83.9999H11.8325L11.9011 82.7969C11.9354 82.3845 11.9354 81.9033 11.9697 81.5595C12.0383 81.9033 12.1756 82.247 12.3128 82.6594L12.7931 83.9999H13.1019L13.6165 82.6251C13.7537 82.247 13.891 81.8689 13.9939 81.5595C13.9939 81.9033 14.0282 82.3845 14.0282 82.7626L14.0968 83.9999H14.4742L14.3027 81.2158H13.8223Z"
        fill="#0A519A" />
    <path
        d="M15.7421 81.2158L14.7129 83.9999H15.1246L15.4334 83.1063H16.4969L16.8057 83.9999H17.2174L16.1881 81.2158H15.7421ZM15.5363 82.8657L15.8451 82.0407C15.9137 81.8689 15.948 81.697 15.9823 81.5252C16.0166 81.697 16.0852 81.8689 16.1538 82.0407L16.4626 82.8313H15.5363V82.8657Z"
        fill="#0A519A" />
    <path
        d="M19.4475 82.4188C19.4475 82.8657 19.4475 83.2094 19.4818 83.5531C19.3446 83.2781 19.173 82.9688 18.9329 82.6594L17.9722 81.2502H17.5605V84.0343H17.9379V82.8313C17.9379 82.3501 17.9379 82.0407 17.9036 81.6627C18.0409 81.972 18.2467 82.2814 18.4526 82.5907L19.4132 83.9999H19.8249V81.2158H19.4475V82.4188Z"
        fill="#0A519A" />
    <path
        d="M22.1924 82.6938C22.5012 82.5906 22.7413 82.35 22.7413 81.9719C22.7413 81.7657 22.6384 81.5595 22.5012 81.422C22.3296 81.2501 22.0552 81.1814 21.6435 81.1814C21.369 81.1814 21.0945 81.2158 20.8887 81.2501V83.9999H21.2661V82.7969H21.6435C21.9865 82.7969 22.1581 82.9687 22.261 83.3468C22.3296 83.6905 22.3982 83.9311 22.4668 83.9999H22.8785C22.8099 83.8968 22.7413 83.6218 22.6384 83.2437C22.5355 82.9687 22.3982 82.7625 22.1924 82.6938ZM21.6778 82.5563H21.2661V81.5251C21.3347 81.5251 21.4719 81.4907 21.6435 81.4907C22.0552 81.4907 22.3296 81.6626 22.3296 82.0063C22.3639 82.35 22.0895 82.5563 21.6778 82.5563Z"
        fill="#0A519A" />
    <path
        d="M24.0117 81.2158L22.9824 83.9999H23.3941L23.7029 83.1063H24.7665L25.0752 83.9999H25.4869L24.4577 81.2158H24.0117ZM23.7715 82.8657L24.0803 82.0407C24.1489 81.8689 24.1832 81.697 24.2175 81.5252C24.2518 81.697 24.3204 81.8689 24.3891 82.0407L24.6978 82.8313H23.7715V82.8657Z"
        fill="#0A519A" />
    <path
        d="M26.5505 83.072C26.5505 83.6219 26.3446 83.7594 26.0015 83.7594C25.8643 83.7594 25.7614 83.725 25.6585 83.6907L25.5898 84C25.6928 84.0344 25.8643 84.0687 26.0015 84.0687C26.5162 84.0687 26.8936 83.8281 26.8936 83.1063V81.2502H26.5162V83.072H26.5505Z"
        fill="#0A519A" />
    <path
        d="M29.2949 82.4188H27.854V81.2158H27.4766V84.0343H27.854V82.7282H29.2949V84.0343H29.7066V81.2158H29.2949V82.4188Z"
        fill="#0A519A" />
    <path d="M30.6665 81.2158H30.2891V83.9999H30.6665V81.2158Z" fill="#0A519A" />
    <path
        d="M33.5148 81.4907C33.755 81.4907 33.9608 81.5251 34.0981 81.5938L34.201 81.2845C34.0981 81.2501 33.8579 81.147 33.4805 81.147C32.5542 81.147 31.9023 81.7313 31.9023 82.625C31.9023 83.553 32.5199 84.0342 33.3776 84.0342C33.755 84.0342 34.0295 83.9655 34.1667 83.8967L34.0981 83.6218C33.9265 83.6905 33.6864 83.7249 33.4805 83.7249C32.7601 83.7249 32.3484 83.278 32.3484 82.5906C32.3484 81.9032 32.7944 81.4907 33.5148 81.4907Z"
        fill="#0A519A" />
    <path
        d="M36.4308 82.4188H34.9898V81.2158H34.5781V84.0343H34.9898V82.7282H36.4308V84.0343H36.8082V81.2158H36.4308V82.4188Z"
        fill="#0A519A" />
    <path
        d="M38.1796 81.2158L37.1504 83.9999H37.5621L37.8709 83.1063H38.9344L39.2432 83.9999H39.6549L38.6256 81.2158H38.1796ZM37.9395 82.8657L38.2483 82.0407C38.3169 81.8689 38.3512 81.697 38.3855 81.5252C38.4198 81.697 38.4884 81.8689 38.557 82.0407L38.8658 82.8313H37.9395V82.8657Z"
        fill="#0A519A" />
    <path
        d="M41.3018 82.6938C41.6105 82.5906 41.8507 82.35 41.8507 81.9719C41.8507 81.7657 41.7478 81.5595 41.6105 81.422C41.439 81.2501 41.1645 81.1814 40.7528 81.1814C40.4784 81.1814 40.2039 81.2158 39.998 81.2501V83.9999H40.3754V82.7969H40.7528C41.0959 82.7969 41.2675 82.9687 41.3704 83.3468C41.439 83.6905 41.5076 83.9311 41.5762 83.9999H41.9879C41.9193 83.8968 41.8507 83.6218 41.7478 83.2437C41.6791 82.9687 41.5419 82.7625 41.3018 82.6938ZM40.7871 82.5563H40.4097V81.5251C40.4784 81.5251 40.6156 81.4907 40.7871 81.4907C41.1988 81.4907 41.4733 81.6626 41.4733 82.0063C41.4733 82.35 41.1988 82.5563 40.7871 82.5563Z"
        fill="#0A519A" />
    <path d="M42.6743 81.2158H42.2969V83.9999H42.6743V81.2158Z" fill="#0A519A" />
    <path d="M45.145 81.2158H42.9492V81.5252H43.8412V84.0343H44.2529V81.5252H45.145V81.2158Z"
        fill="#0A519A" />
    <path
        d="M45.8652 81.2158L44.8359 83.9999H45.2476L45.5564 83.1063H46.62L46.9287 83.9999H47.3404L46.3112 81.2158H45.8652ZM45.625 82.8657L45.9338 82.0407C46.0024 81.8689 46.0367 81.697 46.071 81.5252C46.1053 81.697 46.174 81.8689 46.2426 82.0407L46.5513 82.8313H45.625V82.8657Z"
        fill="#0A519A" />
    <path
        d="M48.953 82.522C49.2618 82.4188 49.4676 82.1782 49.4676 81.9033C49.4676 81.697 49.3647 81.5252 49.2275 81.422C49.0559 81.2846 48.7815 81.2158 48.4041 81.2158C48.1296 81.2158 47.8551 81.2502 47.6836 81.2846V84.0343C47.8208 84.0343 48.0267 84.0687 48.2668 84.0687C48.7471 84.0687 49.0902 84 49.2961 83.7937C49.4676 83.6562 49.5705 83.4844 49.5705 83.2438C49.5705 82.8313 49.2618 82.5907 48.953 82.522ZM48.0953 81.5252C48.1639 81.5252 48.2668 81.4908 48.4384 81.4908C48.8158 81.4908 49.0902 81.6283 49.0902 81.9376C49.0902 82.2126 48.8501 82.4188 48.4384 82.4188H48.0953V81.5252ZM48.4041 83.7593C48.2668 83.7593 48.1639 83.7593 48.0953 83.725V82.6938H48.4041C48.8158 82.6938 49.1932 82.8657 49.1932 83.2438C49.1588 83.6219 48.8158 83.7593 48.4041 83.7593Z"
        fill="#0A519A" />
    <path d="M50.395 81.2158H50.0176V84.0343H51.6644V83.725H50.395V81.2158Z" fill="#0A519A" />
    <path
        d="M52.4176 82.7282H53.5497V82.4188H52.4176V81.5252H53.6183V81.2158H52.0059V84.0343H53.687V83.725H52.4176V82.7282Z"
        fill="#0A519A" />
    <path
        d="M54.957 84.0343H55.3344V82.7626H56.4666V82.4532H55.3344V81.5252H56.5695V81.2158H54.957V84.0343Z"
        fill="#0A519A" />
    <path
        d="M58.2512 81.1814C57.4621 81.1814 56.8789 81.7657 56.8789 82.6594C56.8789 83.5187 57.4278 84.0686 58.2169 84.0686C58.9717 84.0686 59.5893 83.5531 59.5893 82.5907C59.5893 81.7657 59.0746 81.1814 58.2512 81.1814ZM58.2169 83.7937C57.5994 83.7937 57.2563 83.2437 57.2563 82.6594C57.2563 82.0407 57.5651 81.4907 58.2169 81.4907C58.8688 81.4907 59.1776 82.0751 59.1776 82.625C59.1776 83.2437 58.8345 83.7937 58.2169 83.7937Z"
        fill="#0A519A" />
    <path
        d="M61.8192 82.9001C61.8192 83.5188 61.5447 83.7938 61.0987 83.7938C60.687 83.7938 60.4125 83.5188 60.4125 82.9001V81.2502H60.0352V82.9001C60.0352 83.7594 60.4812 84.1031 61.0987 84.1031C61.7506 84.1031 62.2309 83.7594 62.2309 82.9001V81.2502H61.8535V82.9001H61.8192Z"
        fill="#0A519A" />
    <path
        d="M64.6662 82.4188C64.6662 82.8657 64.6663 83.2094 64.7006 83.5531C64.5633 83.2781 64.3918 82.9688 64.1516 82.6594L63.191 81.2502H62.7793V84.0343H63.1567V82.8313C63.1567 82.3501 63.1567 82.0407 63.1224 81.6627C63.2596 81.972 63.4655 82.2814 63.6713 82.5907L64.6319 83.9999H65.0093V81.2158H64.6319V82.4188H64.6662Z"
        fill="#0A519A" />
    <path
        d="M66.4152 81.2158C66.1064 81.2158 65.832 81.2502 65.5918 81.2846V84.0343C65.7976 84.0687 66.0035 84.0687 66.278 84.0687C66.8612 84.0687 67.3072 83.9312 67.616 83.6562C67.8905 83.3813 68.062 83.0375 68.062 82.5563C68.062 82.1095 67.8905 81.7658 67.6503 81.5595C67.3758 81.3189 66.9984 81.2158 66.4152 81.2158ZM66.3809 83.7593C66.2437 83.7593 66.0721 83.7593 66.0035 83.7593V81.5595C66.1064 81.5252 66.2437 81.5252 66.4495 81.5252C67.2729 81.5252 67.6503 81.9376 67.6503 82.5907C67.6503 83.3469 67.2043 83.7593 66.3809 83.7593Z"
        fill="#0A519A" />
    <path
        d="M69.1953 81.2158L68.166 83.9999H68.5777L68.8865 83.1063H69.95L70.2588 83.9999H70.6705L69.6413 81.2158H69.1953ZM68.9894 82.8657L69.2982 82.0407C69.3668 81.8689 69.4011 81.697 69.4354 81.5252C69.4697 81.697 69.5383 81.8689 69.607 82.0407L69.9157 82.8313H68.9894V82.8657Z"
        fill="#0A519A" />
    <path d="M70.3613 81.5252H71.2533V84.0343H71.665V81.5252H72.5571V81.2158H70.3613V81.5252Z"
        fill="#0A519A" />
    <path d="M73.1743 81.2158H72.7969V83.9999H73.1743V81.2158Z" fill="#0A519A" />
    <path
        d="M74.9934 81.1814C74.2043 81.1814 73.6211 81.7657 73.6211 82.6594C73.6211 83.5187 74.17 84.0686 74.9591 84.0686C75.7139 84.0686 76.3314 83.5531 76.3314 82.5907C76.3314 81.7657 75.8168 81.1814 74.9934 81.1814ZM74.9591 83.7937C74.3416 83.7937 73.9985 83.2437 73.9985 82.6594C73.9985 82.0407 74.3073 81.4907 74.9591 81.4907C75.611 81.4907 75.9197 82.0751 75.9197 82.625C75.9197 83.2437 75.5767 83.7937 74.9591 83.7937Z"
        fill="#0A519A" />
    <path
        d="M78.6291 81.2158V82.3844C78.6291 82.8313 78.6291 83.175 78.6634 83.5187C78.5262 83.2437 78.3547 82.9344 78.1145 82.625L77.1539 81.2158H76.7422V83.9999H77.1196V82.7969C77.1196 82.3157 77.1196 82.0063 77.0853 81.6282C77.2225 81.9376 77.4284 82.2469 77.6342 82.5563L78.5948 83.9655H78.9722V81.1814H78.6291V81.2158Z"
        fill="#0A519A" />
</svg>
    