<svg width="95" height="101" viewBox="0 0 95 101" fill="none" xmlns="http://www.w3.org/2000/svg">
    <path
        d="M50.3341 20.4653C64.4716 20.4653 75.9241 31.9604 75.9241 46.1464C75.9241 60.3324 64.455 71.8275 50.3341 71.8275C36.2132 71.8275 24.7441 60.3324 24.7441 46.1464C24.7441 31.9604 36.1966 20.4653 50.3341 20.4653Z"
        fill="#F3EACE" />
    <path
        d="M18.5296 15.5483C18.5296 15.5483 5.50262 27.1596 5.50262 43.7709V79.7344H0.0664062V43.7875C0.0664062 38.4553 1.12713 27.5915 18.5296 15.5483Z"
        fill="#DCB565" />
    <path
        d="M76.3555 15.5483C76.3555 15.5483 89.3825 27.1596 89.3825 43.7709V79.7344H94.8187V43.7875C94.8187 38.4553 93.758 27.5915 76.3555 15.5483Z"
        fill="#DCB565" />
    <path
        d="M47.5332 0C47.5332 0 60.7923 6.4784 71.6647 16.4784C82.5371 26.495 85.4375 35.814 85.4375 43.9037C85.4375 51.9934 85.4707 67.2093 85.4707 67.2093H80.7803V44.0033C80.7803 38.7043 76.9683 20.0664 47.6658 10.2658C18.2639 20 14.369 37.8738 14.369 44.0033V67.2425H9.62891V44.0199C9.62891 38.7375 9.84437 28.0731 23.3023 16.4618C36.7768 4.88372 47.5332 0 47.5332 0Z"
        fill="#DCB565" />
    <path
        d="M50.3348 71.8106C36.1974 71.8106 24.7449 60.3156 24.7449 46.1296C24.7449 33.4717 33.877 22.9734 45.8765 20.8638C30.5126 21.3621 18.1816 33.9867 18.1816 49.5515C18.1816 65.3987 30.9932 78.2558 46.8046 78.2558C61.8868 78.2558 74.2177 66.5615 75.3282 51.7276C72.7758 63.2226 62.5497 71.8106 50.3348 71.8106Z"
        fill="#0B2546" />
    <path
        d="M53.3173 47.9569C53.8808 48.2061 54.378 48.4719 54.8255 48.7543L58.0242 46.7111C56.7481 45.7975 54.9747 44.8174 52.472 43.5217C44.268 39.2526 42.0802 39.7842 42.0305 31.4785C36.8263 41.844 47.7982 45.5483 53.3173 47.9569Z"
        fill="#0B2546" />
    <path
        d="M57.5948 45.0167C58.1915 45.3158 58.6887 45.6314 59.1693 45.9636L62.5338 43.8207C59.7328 41.6945 54.6944 39.4021 48.4958 36.2958C40.2586 32.1596 46.0097 27.0932 50.2029 27.0932C54.3961 27.0932 57.3296 30.1829 56.1198 36.3623C60.3461 32.2261 58.7716 24.7676 51.4625 24.7676C44.1535 24.7676 41.8497 29.751 42.7281 34.5184C43.6894 39.6679 50.7167 41.6447 57.5948 45.0167Z"
        fill="#0B2546" />
    <path
        d="M46.7882 50.1663C48.1141 50.7809 49.208 51.2958 50.1361 51.7609L53.6995 49.4852C52.0753 48.6712 49.4732 47.6746 45.1308 45.0998C39.1643 41.5782 39.8272 35.5815 39.8272 35.5815C35.9987 45.5151 42.1144 48.0068 46.7882 50.1663Z"
        fill="#0B2546" />
    <path
        d="M64.5213 45.8973C64.2727 45.4487 63.8749 45.0169 63.4108 44.585L60.0795 46.7112C63.9246 50.1664 62.5987 54.7345 62.5987 54.7345C62.5987 54.7345 62.0518 54.7677 61.2562 54.7677C61.2562 51.0468 61.1402 49.3192 58.9359 47.4255L55.7869 49.4355C58.7536 51.8607 58.2066 54.7511 58.2066 54.7511C58.2066 54.7511 57.8586 54.7843 56.6984 54.7843C56.3172 51.9936 55.936 50.9471 54.7427 50.0833L51.2456 52.3258C54.5273 54.1032 54.5604 54.9006 54.2289 56.977C53.7814 59.7345 48.2789 64.6016 43.4062 60.5152C37.5557 55.6149 43.5885 50.8973 43.5885 50.8973C36.9259 53.9371 37.8706 60.3657 41.8483 63.3391C46.2569 66.6448 54.2786 65.1331 55.7703 58.7876C59.0685 58.7876 57.9083 58.7876 62.665 58.7876C65.8472 53.1398 66.1455 48.6713 64.5213 45.8973Z"
        fill="#0B2546" />
    <path
        d="M1.12028 87.397L1.65103 87.8471L2.2226 87.2742L1.6102 86.7832L1.20193 87.2742L0.630357 86.7832L0.0996094 87.397L0.671184 87.8471L1.12028 87.397Z"
        fill="white" />
    <path
        d="M3.28422 92.1025H3.73332H6.3054V89.7292C6.3054 89.2381 6.18292 88.6243 5.89714 87.9287L4.91729 88.8289C5.20308 89.1563 5.40721 89.4427 5.48887 89.7701H3.44753C3.28422 89.7701 3.20257 89.7292 3.12091 89.6882C3.03926 89.6064 2.95761 89.4427 2.95761 89.2381L2.83513 87.7241L2.14107 88.297L2.1819 88.5834C1.61032 88.8698 1.16123 89.1972 0.793789 89.5655C0.630482 90.3839 0.548828 90.8749 0.548828 90.9567V90.9976C1.24288 91.3659 1.65115 91.6114 1.81446 91.6933C1.89611 91.6933 1.97777 91.5705 2.1819 91.3659C2.30438 91.2432 2.38603 91.0795 2.50851 90.9567L2.71265 91.6933C2.7943 91.9797 2.99843 92.1025 3.28422 92.1025ZM2.14107 90.2202C1.81446 90.0156 1.5695 89.8928 1.36536 89.8519C1.69198 89.6064 1.97777 89.4427 2.22273 89.3609L2.30438 90.0156L2.14107 90.2202Z"
        fill="white" />
    <path
        d="M4.91678 93.2073L4.3452 92.7163L3.81445 93.2892L4.38603 93.7802L4.83512 93.2892L5.36587 93.7802L5.93745 93.2073L5.36587 92.7163L4.91678 93.2073Z"
        fill="white" />
    <path
        d="M10.4695 93.1258L9.89794 92.6757L9.36719 93.2486L9.93876 93.7396L10.3879 93.2486L10.9186 93.7396L11.4902 93.1667L10.9186 92.6348L10.4695 93.1258Z"
        fill="white" />
    <path
        d="M24.6357 94.4759L24.105 93.9849L23.5742 94.5987L24.1458 95.0488L24.5949 94.5987L25.1256 95.0488L25.6564 94.4759L25.0848 93.9849L24.6357 94.4759Z"
        fill="white" />
    <path
        d="M18.3893 91.2022C18.3893 90.9158 18.3893 90.5884 18.3485 90.1383C18.3076 89.4836 18.2668 89.1562 18.2668 89.0744C18.226 88.5424 18.226 88.0923 18.226 87.8468L18.4301 87.6422C18.226 87.274 18.1035 86.8238 18.1035 86.251L17.042 87.0694L17.4094 89.7291H17.2461C16.9195 89.7291 16.6746 89.6882 16.5113 89.6473C16.2663 89.5654 16.0622 89.4427 15.8989 89.2381L15.1231 88.2969C14.8374 87.9696 14.5107 87.8059 14.1433 87.8059C13.8167 87.8059 13.5309 87.9696 13.3268 88.2969C13.1635 88.5834 13.0818 88.8698 13.0818 89.2381L13.1226 89.3199C13.1635 89.3199 13.2451 89.279 13.3676 89.1562C13.4901 89.0335 13.6126 88.9926 13.735 88.9926C14.1025 88.9926 14.5924 89.2381 15.2456 89.6882H12.4694H12.1836C11.9795 89.6882 11.8162 89.6063 11.6529 89.4836C11.4896 89.3608 11.4487 89.1971 11.4487 88.9926C11.4487 88.9516 11.4487 88.8289 11.4896 88.747C11.5304 88.6243 11.5304 88.5424 11.5304 88.5015L11.4896 88.4606C11.3671 88.5424 11.163 88.6243 10.918 88.747C10.918 89.3608 10.5914 89.6882 9.97897 89.6882H8.83582C8.67252 89.3199 8.50921 89.0335 8.3459 88.8289C7.97846 89.3608 7.69267 89.7291 7.48854 90.0155C7.97846 90.4656 8.3459 90.8748 8.50921 91.284C8.30508 91.6523 7.97846 91.9796 7.52937 92.2661C7.08027 92.5934 6.63118 92.7162 6.26374 92.7162C6.10043 92.7162 6.01878 92.7162 6.01878 92.7162L5.85547 92.798C5.8963 92.9617 6.14126 93.1254 6.672 93.3709C7.16193 93.6164 7.48854 93.7392 7.69267 93.7392H7.7335C8.06012 93.6573 8.38673 93.4527 8.63169 93.0845C8.83582 92.798 9.03996 92.4707 9.12161 92.0615H10.5097C10.6322 92.0615 10.7547 92.0206 10.8772 91.9387C11.0405 91.8569 11.1221 91.7751 11.1221 91.6932C11.2854 91.9387 11.4896 92.0615 11.7754 92.0615H12.0203H12.4694H18.3485C18.3893 91.5705 18.3893 91.284 18.3893 91.2022Z"
        fill="white" />
    <path d="M14.8377 86.6602L14.1437 86.0464L13.5312 86.7011L14.2253 87.3149L14.8377 86.6602Z"
        fill="white" />
    <path
        d="M20.0222 86.1284L18.9199 86.9877L19.2465 92.5118C19.614 92.1844 19.8181 91.9389 19.9406 91.7753C20.1447 91.407 20.2264 90.9978 20.2264 90.5886L20.0222 86.1284Z"
        fill="white" />
    <path d="M34.1901 93.6577L34.8026 92.962L34.1493 92.3892L33.4961 93.0439L34.1901 93.6577Z"
        fill="white" />
    <path
        d="M36.8025 89.7293C36.3943 89.7702 36.0268 89.6065 35.7002 89.2791C35.4553 88.9518 35.1695 88.6654 34.8837 88.338C34.5571 87.9697 34.2305 87.8061 33.863 87.8061C33.5364 87.8061 33.2506 87.9697 33.0465 88.2971C32.8832 88.5835 32.8015 88.87 32.8015 89.2382L32.8423 89.3201C32.8832 89.3201 32.9648 89.2791 33.0873 89.1564C33.2098 89.0336 33.3323 88.9927 33.4547 88.9927C33.8222 88.9927 34.3121 89.2382 34.9653 89.6883H32.5566C32.1483 89.7293 31.7808 89.5656 31.4542 89.2382C31.2093 88.9109 30.9235 88.6244 30.6377 88.2971C30.3111 87.9288 29.9845 87.7651 29.617 87.7651C29.2904 87.7651 29.0046 87.9288 28.8005 88.2562C28.6372 88.5426 28.5555 88.829 28.5555 89.1973L28.5964 89.2791C28.6372 89.2791 28.7188 89.2382 28.8413 89.1155C28.9638 88.9927 29.0863 88.9518 29.2088 88.9518C29.5762 88.9518 30.0661 89.1973 30.7193 89.6474H27.984H27.494H24.9628C24.5137 90.2203 24.3095 90.6704 24.3095 90.9977C24.3095 91.1205 24.432 91.2433 24.677 91.366C24.7586 91.4069 25.0036 91.4888 25.371 91.5706C25.6568 91.6524 25.8201 91.6934 25.861 91.7752C25.371 91.9798 24.8403 92.0616 24.2687 92.0616C23.2889 92.0616 22.8398 91.6934 22.8398 90.9568C22.8398 90.6704 22.8806 90.384 23.0031 90.0975L23.0847 89.8929L23.1256 89.6883L23.0031 89.5656L22.799 89.6474C22.5948 89.852 22.3907 90.1384 22.2274 90.5476C22.0641 90.9568 21.9824 91.2842 21.9824 91.6115C21.9824 91.6525 21.9824 91.7752 21.9824 91.9798C22.0232 92.5117 22.2274 92.9209 22.6356 93.2074C23.0031 93.4938 23.493 93.6166 24.0238 93.6166C25.0036 93.6166 25.8201 93.2892 26.5142 92.6345C26.5958 92.5527 26.6367 92.4299 26.7183 92.2662C26.7592 92.1026 26.8 91.9798 26.8 91.857C26.8 91.7343 26.6367 91.5297 26.3101 91.2433C26.555 91.2842 26.7592 91.4069 26.9633 91.6524C27.1266 91.898 27.2899 91.9798 27.4124 91.9798H27.984H31.6992H31.7808H36.0268L36.8025 89.7293Z"
        fill="white" />
    <path
        d="M38.3547 91.7753C38.5588 91.407 38.6404 90.9978 38.6404 90.5886L38.4363 86.1284L37.334 86.9877L37.6606 92.5118C38.028 92.1844 38.273 91.9389 38.3547 91.7753Z"
        fill="white" />
    <path
        d="M44.5176 92.1024L44.5584 91.4068V91.2431V91.2022C44.5584 91.2431 44.5584 91.0794 44.5176 90.6702L44.3951 87.8468L44.5993 87.6422C44.3951 87.233 44.2726 86.7829 44.2726 86.251L43.2111 87.0694L43.5786 89.7291H42.1905H41.7822H41.1698C41.0065 89.3608 40.8432 89.0744 40.6799 88.8698C40.3124 89.4017 40.0267 89.77 39.8225 90.0565C40.3124 90.5066 40.6799 90.9158 40.8432 91.3249C40.6391 91.6932 40.3124 92.0206 39.8634 92.307C39.4143 92.6344 38.9652 92.7571 38.5977 92.7571C38.4344 92.7571 38.3528 92.7571 38.3528 92.7571L38.1895 92.839C38.2303 93.0026 38.4752 93.1663 39.006 93.4118C39.4959 93.6573 39.8225 93.7801 40.0267 93.7801H40.0675C40.3941 93.6983 40.7207 93.4937 40.9657 93.1254C41.1698 92.8389 41.3739 92.5116 41.4556 92.1024H41.823H42.2313H44.5176Z"
        fill="white" />
    <path
        d="M46.1515 91.7753C46.3557 91.407 46.4373 90.9978 46.4373 90.5886L46.2332 86.1284L45.1309 86.9877L45.4575 92.5118C45.8249 92.1844 46.0699 91.9389 46.1515 91.7753Z"
        fill="white" />
    <path d="M51.1736 88.5015L50.4796 87.8877L49.8672 88.5424L50.5204 89.1562L51.1736 88.5015Z"
        fill="white" />
    <path
        d="M52.7655 90.9979C52.7655 90.1795 52.5614 89.4021 52.1939 88.6655L51.1324 89.6476C51.3774 89.934 51.5407 90.0977 51.5815 90.2204C51.7448 90.425 51.8265 90.6296 51.8673 90.8752C51.2958 91.3662 50.765 91.6526 50.3159 91.6526C49.9893 91.6526 49.7443 91.5299 49.581 91.3253C49.4177 91.1207 49.2952 90.8752 49.2952 90.5887C49.2952 90.5069 49.2952 90.3841 49.3361 90.2614C49.3769 90.1386 49.3769 90.0159 49.3769 89.934C49.3769 89.7703 49.3361 89.7294 49.2136 89.7294L49.0095 89.8522C48.6828 90.2204 48.5195 90.8342 48.5195 91.6526C48.5195 92.2255 48.6828 92.7574 48.9686 93.1257C49.2952 93.5758 49.7852 93.8213 50.3567 93.8213C51.1733 93.8213 51.7857 93.5349 52.1939 93.0029C52.6022 92.471 52.7655 91.8163 52.7655 90.9979Z"
        fill="white" />
    <path
        d="M61.5847 93.1663L61.0132 92.6753L60.4824 93.2891L61.054 93.7392L61.5031 93.2891L62.0338 93.7392L62.6054 93.1663L62.0338 92.6753L61.5847 93.1663Z"
        fill="white" />
    <path
        d="M69.8315 92.1026H70.893V89.7293C70.893 89.3201 70.7705 88.8291 70.5664 88.2562L69.6682 89.0746C69.8724 89.3201 69.9948 89.5656 70.0765 89.893C69.9132 89.893 69.7499 89.8521 69.5866 89.7702C69.4233 89.6884 69.3008 89.6065 69.2191 89.4429L69.1375 89.2383C69.0966 89.1155 69.0558 89.0746 69.015 89.0746C69.015 89.0746 68.8925 89.2383 68.7292 89.4838C68.6067 89.6884 68.4434 89.7702 68.2393 89.7702C68.0352 89.7702 67.831 89.6475 67.6677 89.4019L67.4228 89.0746C67.2594 89.361 67.137 89.4838 67.137 89.5247C67.0145 89.6475 66.8512 89.7293 66.647 89.7293H65.3814L65.2998 87.847L65.5039 87.6424C65.2998 87.2332 65.1773 86.7831 65.1773 86.2512L64.1158 87.0696L64.4832 89.7293H63.1768H62.7685C62.5644 89.7293 62.4011 89.6475 62.2377 89.5247C62.0744 89.4019 62.0336 89.2383 62.0336 89.0337C62.0336 88.9518 62.0744 88.7882 62.1153 88.5017V88.4608C61.8703 88.5836 61.6662 88.6654 61.5437 88.7472C61.5437 89.361 61.2171 89.6884 60.5639 89.6884H59.5432H59.1757H58.7266C58.6042 89.5656 58.4817 89.361 58.3592 89.0746C58.2367 88.7472 58.1142 88.5017 58.0734 88.4199C57.9101 88.2153 57.706 88.0925 57.461 88.0925C57.2161 88.0925 57.0119 88.2153 56.8078 88.4199C56.7261 88.5017 56.5628 88.7063 56.277 89.1155C56.0729 89.4019 55.8688 89.5656 55.7463 89.6884H54.7665C54.5215 89.6884 54.399 89.6475 54.3582 89.6065C54.2765 89.5656 54.2765 89.4019 54.2357 89.1564L54.1541 86.1284L53.2559 86.7831L53.3783 91.2024C53.3783 91.407 53.46 91.5707 53.5825 91.7343C53.7458 91.9389 53.9091 92.0208 54.0724 92.0208H54.3174H54.7256H55.8688C55.9504 92.0208 56.1137 91.9389 56.3587 91.8162C57.0119 92.2663 57.3794 92.4709 57.5018 92.4709C57.5835 92.4709 57.706 92.43 57.8285 92.3072C57.9509 92.2254 57.9918 92.1026 58.0326 92.0208H59.2166H59.584H61.1354C61.2171 92.0208 61.3396 91.9798 61.5029 91.898C61.6662 91.8162 61.7478 91.7343 61.7478 91.6525C61.8703 91.8162 61.952 91.898 62.0336 91.9389C62.1153 92.0208 62.2786 92.0208 62.4011 92.0208H62.7685H63.2584H65.1365H65.5039H67.0553C67.3411 92.0208 67.5452 91.9389 67.7494 91.7343C67.9535 91.9389 68.1985 92.0208 68.5251 92.0208C68.8925 92.0208 69.1375 91.9389 69.3008 91.7343C69.4641 92.0208 69.6682 92.1026 69.8315 92.1026ZM57.7468 90.384C57.2569 90.0976 56.9711 89.8521 56.8078 89.6884C56.9711 89.4429 57.1344 89.3201 57.2569 89.3201C57.4202 89.3201 57.5427 89.4429 57.6652 89.6884C57.7468 89.893 57.7876 90.0976 57.7876 90.3022V90.384H57.7468Z"
        fill="white" />
    <path
        d="M73.505 87.2739L74.0358 87.7241L74.6074 87.1512L74.0358 86.6602L73.5867 87.1103L73.0151 86.6602L72.4844 87.233L73.0559 87.7241L73.505 87.2739Z"
        fill="white" />
    <path
        d="M80.0381 92.1024H80.773H81.0996H82.6918C82.9776 92.1024 83.1817 92.0205 83.3859 91.8159C83.59 92.0205 83.835 92.1024 84.1616 92.1024C84.529 92.1024 84.774 92.0205 84.9373 91.8159C85.2231 92.0205 85.4272 92.1024 85.5497 92.1024H86.6112V89.7291C86.6112 89.3199 86.4887 88.8288 86.2846 88.256L85.3864 89.0744C85.5905 89.3199 85.713 89.5654 85.7947 89.8927C85.6314 89.8927 85.468 89.8518 85.3047 89.77C85.1414 89.6881 85.019 89.6063 84.9373 89.4426L84.8556 89.238C84.8148 89.1153 84.774 89.0744 84.7332 89.0744C84.7332 89.0744 84.6107 89.238 84.4474 89.4835C84.3249 89.6881 84.1616 89.77 83.9575 89.77C83.7533 89.77 83.5492 89.6472 83.3859 89.4426L83.1409 89.0744C82.9776 89.3608 82.8551 89.4835 82.8551 89.5245C82.7326 89.6472 82.5693 89.7291 82.3652 89.7291H81.0996C81.0996 89.3199 80.9771 88.8288 80.773 88.256L79.8748 89.0744C80.0789 89.3199 80.2014 89.5654 80.283 89.8927C80.1197 89.8927 79.9564 89.8518 79.7931 89.77C79.6298 89.6881 79.5073 89.6063 79.4257 89.4426L79.344 89.238C79.3032 89.1153 79.2624 89.0744 79.2215 89.0744C79.2215 89.0744 79.0991 89.238 78.9358 89.4835C78.8133 89.6881 78.65 89.77 78.4458 89.77C78.2417 89.77 78.0376 89.6472 77.8743 89.4426L77.6293 89.0744C77.466 89.3608 77.3435 89.4835 77.3435 89.5245C77.221 89.6472 77.0577 89.7291 76.8536 89.7291H75.5471C75.3838 89.7291 75.3022 89.6881 75.2205 89.6472C75.1389 89.5654 75.0572 89.4017 75.0572 89.1971L74.9347 87.6831L74.2407 88.256L74.2815 88.5424C73.7099 88.8288 73.2608 89.1562 72.8934 89.5245C72.7301 90.3428 72.6484 90.8339 72.6484 90.9157V90.9566C73.3425 91.3249 73.7508 91.5704 73.9141 91.6523C73.9957 91.6523 74.0774 91.5295 74.2815 91.3249C74.404 91.2021 74.4856 91.0385 74.6081 90.9157L74.8123 91.6523C74.8939 91.8568 75.0572 91.9796 75.3022 92.0205V92.0614H75.4247H75.8738H77.221C77.5068 92.0614 77.711 91.9796 77.9151 91.775C78.1192 91.9796 78.3642 92.0614 78.6908 92.0614C79.0582 92.0614 79.3032 91.9796 79.4665 91.775C79.7115 92.0205 79.9156 92.1024 80.0381 92.1024ZM74.2407 90.2201C73.9141 90.0155 73.6691 89.8927 73.465 89.8518C73.7916 89.6063 74.0774 89.4426 74.3223 89.3608L74.404 90.0155L74.2407 90.2201Z"
        fill="white" />
    <path
        d="M86.9385 87.8059L86.8569 88.0514C87.4693 87.6831 87.8367 87.4785 87.9592 87.4376L88.0817 87.0284V86.9875H88.0408C87.8775 87.0694 87.7142 87.1512 87.5509 87.1512C87.3468 87.1512 87.2243 87.1103 87.1426 87.0694C87.2651 86.9057 87.3468 86.8238 87.4284 86.8238L87.6326 86.9466C87.755 86.8238 87.7959 86.742 87.7959 86.6192C87.7959 86.4965 87.7142 86.4556 87.5509 86.4556C87.4284 86.4556 87.3468 86.4965 87.2651 86.5374C87.1426 86.6192 87.061 86.7829 86.9385 86.9466C86.816 87.1512 86.7344 87.3149 86.7344 87.4376V87.4785C86.8977 87.5604 87.0202 87.6013 87.1426 87.6422C87.061 87.6831 87.0202 87.765 86.9385 87.8059Z"
        fill="white" />
    <path
        d="M93.7139 92.0614L94.6121 90.4247L94.7345 90.1792C94.7345 90.1383 94.6937 90.1383 94.5712 90.0564C94.3263 89.9746 94.163 89.77 94.0813 89.4426C93.8772 88.9516 93.7955 88.6652 93.7547 88.6242C93.5914 88.3378 93.3464 88.1741 93.0606 88.1741C92.8157 88.1741 92.6115 88.2969 92.3666 88.5015C92.2849 88.5833 92.1216 88.7879 91.8767 89.1971C91.6725 89.4835 91.5092 89.6472 91.3459 89.7291H90.2844H89.9578H89.8353C89.5495 88.3787 89.1413 87.6831 88.6513 87.6831C88.3247 87.6831 87.9981 88.0514 87.6715 88.7879C87.3857 89.3608 87.1816 89.8927 87.0999 90.3428C87.0591 90.5884 87.0183 90.752 87.0183 90.9157C87.0183 91.2021 87.1408 91.4477 87.3857 91.6932C87.6307 91.9387 87.9165 92.0614 88.2023 92.0614C88.5697 92.0614 88.8963 91.8568 89.1413 91.4477C89.0596 91.8159 88.8147 92.1433 88.4472 92.3888C88.0798 92.6343 87.6715 92.7571 87.2632 92.7571C87.0591 92.7571 86.8958 92.7571 86.7733 92.7162L86.4875 92.6752C86.4059 92.6752 86.3242 92.7162 86.3242 92.7571C86.3242 92.798 86.4875 92.9617 86.855 93.2072C87.1408 93.4118 87.3449 93.5345 87.4674 93.5755C87.7123 93.6982 87.9573 93.7391 88.2023 93.7391C88.9371 93.7391 89.4679 93.2072 89.7537 92.1024H89.9578H91.5092C91.5909 92.1024 91.7542 92.0205 91.9991 91.8978C92.6524 92.3479 93.0198 92.5525 93.1423 92.5525C93.3464 92.5116 93.5506 92.3888 93.7139 92.0614ZM89.0188 89.7291C88.8147 89.7291 88.6513 89.6881 88.4472 89.5654C88.2431 89.4426 88.1206 89.3199 88.1206 89.1153L88.2023 88.9107L88.4064 88.8288C88.5697 88.8288 88.7738 88.9516 88.9371 89.1562C89.0596 89.3199 89.1821 89.5245 89.2229 89.7291C89.1413 89.7291 89.0596 89.7291 89.0188 89.7291ZM92.979 89.3199C93.1423 89.3199 93.2648 89.4426 93.3873 89.6881C93.4689 89.8927 93.5097 90.0973 93.5097 90.3019V90.3838C93.0198 90.0973 92.734 89.8518 92.5707 89.6881C92.6932 89.4426 92.8157 89.3199 92.979 89.3199Z"
        fill="white" />
    <path
        d="M2.22266 98.1585C1.73274 97.9949 1.52861 97.8312 1.52861 97.5038C1.52861 97.2583 1.73274 97.0128 2.18183 97.0128C2.50845 97.0128 2.75341 97.0946 2.83506 97.1765L2.95754 96.8082C2.79424 96.7264 2.54928 96.6445 2.18183 96.6445C1.48778 96.6445 1.03869 97.0128 1.03869 97.5447C1.03869 97.9949 1.40613 98.2813 1.9777 98.4859C2.46762 98.6496 2.63093 98.8542 2.63093 99.1406C2.63093 99.468 2.34514 99.7135 1.89605 99.7135C1.56943 99.7135 1.28365 99.6316 1.07951 99.5089L0.957031 99.8771C1.16117 99.9999 1.52861 100.082 1.85522 100.082C2.71258 100.082 3.08002 99.6316 3.08002 99.0997C3.12085 98.6496 2.79424 98.3631 2.22266 98.1585Z"
        fill="white" />
    <path
        d="M5.77338 98.6907C5.77338 99.4272 5.44677 99.7546 4.91602 99.7546C4.4261 99.7546 4.09948 99.4272 4.09948 98.6907V96.7266H3.65039V98.6907C3.65039 99.7137 4.18114 100.123 4.91602 100.123C5.69173 100.123 6.2633 99.7137 6.2633 98.6907V96.7266H5.81421V98.6907H5.77338Z"
        fill="white" />
    <path d="M7.40613 96.6855H6.95703V100.041H8.91672V99.6726H7.40613V96.6855Z" fill="white" />
    <path
        d="M10.2658 96.6855L9.04102 100H9.53094L9.89838 98.9361H11.164L11.5314 100H12.0214L10.7966 96.6855H10.2658ZM10.0209 98.6497L10.3883 97.6676C10.47 97.463 10.5108 97.2584 10.5516 97.0538C10.5924 97.2584 10.6741 97.463 10.7557 97.6676L11.1232 98.6087H10.0209V98.6497Z"
        fill="white" />
    <path d="M12.9178 96.6855H12.4688V100H12.9178V96.6855Z" fill="white" />
    <path
        d="M16.3483 96.6855L15.6951 98.2814C15.5318 98.6906 15.4093 99.0588 15.3276 99.3862C15.246 99.0179 15.1235 98.6906 14.9602 98.2814L14.3478 96.6855H13.7762L13.5312 100H13.9803L14.062 98.5678C14.1028 98.0768 14.1028 97.5039 14.1437 97.0947C14.2253 97.5039 14.3886 97.9131 14.5519 98.4041L15.1235 100H15.4909L16.1033 98.3632C16.2666 97.9131 16.43 97.463 16.5524 97.0947C16.5524 97.5039 16.5933 98.0768 16.5933 98.5269L16.6749 100H17.124L16.9199 96.6855H16.3483Z"
        fill="white" />
    <path
        d="M18.635 96.6855L17.4102 100H17.9001L18.2675 98.9361H19.5332L19.9006 100H20.3905L19.1657 96.6855H18.635ZM18.39 98.6497L18.7574 97.6676C18.8391 97.463 18.8799 97.2584 18.9207 97.0538C18.9616 97.2584 19.0432 97.463 19.1249 97.6676L19.4923 98.6087H18.39V98.6497Z"
        fill="white" />
    <path
        d="M23.0443 98.1177C23.0443 98.6497 23.0443 99.0588 23.0851 99.468C22.9218 99.1407 22.7177 98.7724 22.4319 98.4041L21.2887 96.7265H20.7988V100.041H21.2479V98.6087C21.2479 98.0359 21.2479 97.6676 21.2071 97.2175C21.3704 97.5858 21.6154 97.954 21.8603 98.3223L23.0035 100H23.4934V96.6855H23.0443V98.1177Z"
        fill="white" />
    <path
        d="M26.3092 98.445C26.6767 98.3222 26.9625 98.0358 26.9625 97.5857C26.9625 97.3402 26.84 97.0946 26.6767 96.931C26.4725 96.7264 26.1459 96.6445 25.656 96.6445C25.3294 96.6445 25.0028 96.6854 24.7578 96.7264V99.9999H25.2069V98.5677H25.656C26.0643 98.5677 26.2684 98.7723 26.3909 99.2224C26.4725 99.6316 26.5542 99.9181 26.6358 99.9999H27.1258C27.0441 99.8771 26.9625 99.5498 26.84 99.0997C26.7175 98.7723 26.5542 98.5268 26.3092 98.445ZM25.6968 98.2813H25.2069V97.0537C25.2886 97.0537 25.4519 97.0128 25.656 97.0128C26.1459 97.0128 26.4725 97.2174 26.4725 97.6266C26.5134 98.0358 26.1868 98.2813 25.6968 98.2813Z"
        fill="white" />
    <path
        d="M28.4729 96.6855L27.248 100H27.738L28.1054 98.9361H29.371L29.7385 100H30.2284L29.0036 96.6855H28.4729ZM28.1871 98.6497L28.5545 97.6676C28.6362 97.463 28.677 97.2584 28.7178 97.0538C28.7586 97.2584 28.8403 97.463 28.9219 97.6676L29.2894 98.6087H28.1871V98.6497Z"
        fill="white" />
    <path
        d="M31.4947 98.8953C31.4947 99.55 31.2498 99.7137 30.8415 99.7137C30.6782 99.7137 30.5557 99.6727 30.4332 99.6318L30.3516 100C30.474 100.041 30.6782 100.082 30.8415 100.082C31.4539 100.082 31.903 99.7955 31.903 98.9362V96.7266H31.4539V98.8953H31.4947Z"
        fill="white" />
    <path
        d="M34.7615 98.1177H33.0468V96.6855H32.5977V100.041H33.0468V98.486H34.7615V100.041H35.2514V96.6855H34.7615V98.1177Z"
        fill="white" />
    <path d="M36.3944 96.6855H35.9453V100H36.3944V96.6855Z" fill="white" />
    <path
        d="M39.7821 97.0127C40.0679 97.0127 40.3129 97.0536 40.4762 97.1355L40.5987 96.7672C40.4762 96.7263 40.1904 96.6035 39.7413 96.6035C38.639 96.6035 37.8633 97.2991 37.8633 98.363C37.8633 99.4678 38.5982 100.041 39.6188 100.041C40.0679 100.041 40.3945 99.9589 40.5578 99.877L40.4762 99.5497C40.2721 99.6315 39.9863 99.6724 39.7413 99.6724C38.884 99.6724 38.394 99.1405 38.394 98.3221C38.394 97.5037 38.9248 97.0127 39.7821 97.0127Z"
        fill="white" />
    <path
        d="M43.2535 98.1177H41.5387V96.6855H41.0488V100.041H41.5387V98.486H43.2535V100.041H43.7026V96.6855H43.2535V98.1177Z"
        fill="white" />
    <path
        d="M45.3342 96.6855L44.1094 100H44.5993L44.9667 98.9361H46.2324L46.5998 100H47.0897L45.8649 96.6855H45.3342ZM45.0484 98.6497L45.4158 97.6676C45.4975 97.463 45.5383 97.2584 45.5791 97.0538C45.62 97.2584 45.7016 97.463 45.7833 97.6676L46.1507 98.6087H45.0484V98.6497Z"
        fill="white" />
    <path
        d="M49.0495 98.445C49.4169 98.3222 49.7027 98.0358 49.7027 97.5857C49.7027 97.3402 49.5802 97.0946 49.4169 96.931C49.2128 96.7264 48.8862 96.6445 48.3962 96.6445C48.0696 96.6445 47.743 96.6854 47.498 96.7264V99.9999H47.9471V98.5677H48.3962C48.8045 98.5677 49.0086 98.7723 49.1311 99.2224C49.2128 99.6316 49.2944 99.9181 49.3761 99.9999H49.866C49.7843 99.8771 49.7027 99.5498 49.5802 99.0997C49.4986 98.7723 49.3353 98.5268 49.0495 98.445ZM48.4371 98.2813H47.988V97.0537C48.0696 97.0537 48.2329 97.0128 48.4371 97.0128C48.927 97.0128 49.2536 97.2174 49.2536 97.6266C49.2536 98.0358 48.927 98.2813 48.4371 98.2813Z"
        fill="white" />
    <path d="M50.6835 96.6855H50.2344V100H50.6835V96.6855Z" fill="white" />
    <path d="M53.6227 96.6855H51.0098V97.0538H52.0713V100.041H52.5612V97.0538H53.6227V96.6855Z"
        fill="white" />
    <path
        d="M54.4807 96.6855L53.2559 100H53.7458L54.1132 98.9361H55.3789L55.7463 100H56.2362L55.0114 96.6855H54.4807ZM54.1949 98.6497L54.5623 97.6676C54.644 97.463 54.6848 97.2584 54.7256 97.0538C54.7665 97.2584 54.8481 97.463 54.9298 97.6676L55.2972 98.6087H54.1949V98.6497Z"
        fill="white" />
    <path
        d="M58.1551 98.2405C58.5226 98.1177 58.7675 97.8313 58.7675 97.5039C58.7675 97.2584 58.645 97.0538 58.4817 96.9311C58.2776 96.7674 57.951 96.6855 57.5019 96.6855C57.1753 96.6855 56.8487 96.7265 56.6445 96.7674V100.041C56.8078 100.041 57.0528 100.082 57.3386 100.082C57.9102 100.082 58.3184 100 58.5634 99.7545C58.7675 99.5908 58.89 99.3862 58.89 99.0998C58.89 98.6087 58.5226 98.3223 58.1551 98.2405ZM57.1345 97.0538C57.2161 97.0538 57.3386 97.0129 57.5427 97.0129C57.9918 97.0129 58.3184 97.1766 58.3184 97.5448C58.3184 97.8722 58.0326 98.1177 57.5427 98.1177H57.1345V97.0538ZM57.5019 99.7136C57.3386 99.7136 57.2161 99.7136 57.1345 99.6726V98.4451H57.5019C57.9918 98.4451 58.4409 98.6497 58.4409 99.0998C58.4001 99.5499 57.9918 99.7136 57.5019 99.7136Z"
        fill="white" />
    <path d="M59.869 96.6855H59.4199V100.041H61.3796V99.6726H59.869V96.6855Z" fill="white" />
    <path
        d="M62.279 98.486H63.6263V98.1177H62.279V97.0538H63.7079V96.6855H61.7891V100.041H63.7896V99.6726H62.279V98.486Z"
        fill="white" />
    <path
        d="M65.2988 100.041H65.7479V98.5269H67.0952V98.1586H65.7479V97.0538H67.2177V96.6855H65.2988V100.041Z"
        fill="white" />
    <path
        d="M69.219 96.6445C68.28 96.6445 67.5859 97.3402 67.5859 98.404C67.5859 99.427 68.2392 100.082 69.1782 100.082C70.0764 100.082 70.8112 99.468 70.8112 98.3222C70.8112 97.3402 70.1988 96.6445 69.219 96.6445ZM69.1782 99.7544C68.4433 99.7544 68.035 99.0997 68.035 98.404C68.035 97.6675 68.4025 97.0128 69.1782 97.0128C69.9539 97.0128 70.3213 97.7084 70.3213 98.3631C70.3213 99.0997 69.9131 99.7544 69.1782 99.7544Z"
        fill="white" />
    <path
        d="M73.4648 98.6907C73.4648 99.4272 73.1382 99.7546 72.6074 99.7546C72.1175 99.7546 71.7909 99.4272 71.7909 98.6907V96.7266H71.3418V98.6907C71.3418 99.7137 71.8725 100.123 72.6074 100.123C73.3831 100.123 73.9547 99.7137 73.9547 98.6907V96.7266H73.5056V98.6907H73.4648Z"
        fill="white" />
    <path
        d="M76.8529 98.1177C76.8529 98.6497 76.8529 99.0588 76.8937 99.468C76.7304 99.1407 76.5263 98.7724 76.2405 98.4041L75.0973 96.7265H74.6074V100.041H75.0565V98.6087C75.0565 98.0359 75.0565 97.6676 75.0157 97.2175C75.179 97.5858 75.424 97.954 75.6689 98.3223L76.8121 100H77.2612V96.6855H76.8121V98.1177H76.8529Z"
        fill="white" />
    <path
        d="M78.9349 96.6855C78.5675 96.6855 78.2409 96.7265 77.9551 96.7674V100.041C78.2 100.082 78.445 100.082 78.7716 100.082C79.4657 100.082 79.9964 99.9181 80.3639 99.5908C80.6905 99.2634 80.8946 98.8543 80.8946 98.2814C80.8946 97.7494 80.6905 97.3403 80.4047 97.0947C80.0781 96.8083 79.629 96.6855 78.9349 96.6855ZM78.8941 99.7136C78.7308 99.7136 78.5267 99.7136 78.445 99.7136V97.0947C78.5675 97.0538 78.7308 97.0538 78.9757 97.0538C79.9556 97.0538 80.4047 97.5448 80.4047 98.3223C80.4047 99.2225 79.8739 99.7136 78.8941 99.7136Z"
        fill="white" />
    <path
        d="M82.2424 96.6855L81.0176 100H81.5075L81.8749 98.9361H83.1406L83.508 100H83.9979L82.7731 96.6855H82.2424ZM81.9974 98.6497L82.3649 97.6676C82.4465 97.463 82.4873 97.2584 82.5282 97.0538C82.569 97.2584 82.6507 97.463 82.7323 97.6676L83.0997 98.6087H81.9974V98.6497Z"
        fill="white" />
    <path d="M83.6309 97.0538H84.6924V100.041H85.1823V97.0538H86.2438V96.6855H83.6309V97.0538Z"
        fill="white" />
    <path d="M86.9784 96.6855H86.5293V100H86.9784V96.6855Z" fill="white" />
    <path
        d="M89.1428 96.6445C88.2038 96.6445 87.5098 97.3402 87.5098 98.404C87.5098 99.427 88.163 100.082 89.102 100.082C90.0002 100.082 90.7351 99.468 90.7351 98.3222C90.7351 97.3402 90.1227 96.6445 89.1428 96.6445ZM89.102 99.7544C88.3671 99.7544 87.9589 99.0997 87.9589 98.404C87.9589 97.6675 88.3263 97.0128 89.102 97.0128C89.8777 97.0128 90.2452 97.7084 90.2452 98.3631C90.2452 99.0997 89.8369 99.7544 89.102 99.7544Z"
        fill="white" />
    <path
        d="M93.4701 96.6855V98.0767C93.4701 98.6086 93.4701 99.0178 93.5109 99.427C93.3476 99.0997 93.1435 98.7314 92.8577 98.3631L91.7145 96.6855H91.2246V99.9999H91.6737V98.5677C91.6737 97.9949 91.6737 97.6266 91.6329 97.1765C91.7962 97.5447 92.0411 97.913 92.2861 98.2813L93.4293 99.959H93.8783V96.6445H93.4701V96.6855Z"
        fill="white" />
</svg>
    