<svg width="29" height="26" viewBox="0 0 29 26" fill="none" xmlns="http://www.w3.org/2000/svg">
    <path
        d="M1.05273 7.37395V20.3473C1.05273 22.8806 2.85273 23.9206 5.0394 22.6673L8.17273 20.8806C8.85273 20.4939 9.98607 20.454 10.6927 20.814L17.6927 24.3206C18.3994 24.6673 19.5327 24.6406 20.2127 24.254L25.9861 20.9473C26.7194 20.5206 27.3327 19.4806 27.3327 18.6273V5.65395C27.3327 3.12062 25.5327 2.08062 23.3461 3.33395L20.2127 5.12062C19.5327 5.50729 18.3994 5.54728 17.6927 5.18728L10.6927 1.69395C9.98607 1.34729 8.85273 1.37395 8.17273 1.76062L2.3994 5.06729C1.65273 5.49395 1.05273 6.53395 1.05273 7.37395Z"
        stroke="#0A5EB0" stroke-width="1.5" stroke-linecap="round" stroke-linejoin="round" />
    <path d="M9.41406 2.33398V19.6673" stroke="#0A5EB0" stroke-width="1.5" stroke-linecap="round"
        stroke-linejoin="round" />
    <path d="M18.9727 5.82617V23.6662" stroke="#0A5EB0" stroke-width="1.5" stroke-linecap="round"
        stroke-linejoin="round" />
</svg>
    