<svg width="26" height="26" viewBox="0 0 26 26" fill="none" xmlns="http://www.w3.org/2000/svg">
    <path
        d="M24.6323 0.740049C24.5395 0.395274 24.2698 0.126148 23.9249 0.0339424C23.58 -0.0582634 23.212 0.040442 22.9596 0.292916C22.7909 0.461625 22.6163 0.6431 22.4331 0.833605C20.8856 2.44296 18.7183 4.69678 14.1919 5.34341C9.18585 6.05856 5.33333 9.40829 5.33333 14.3334C5.33333 15.4335 5.53116 16.4891 5.89357 17.4654C4.75784 17.9967 3.79206 18.6087 2.98602 19.3164C1.29764 20.7987 0.379887 22.639 0.0137621 24.8357C-0.0770329 25.3805 0.290987 25.8957 0.835757 25.9865C1.38053 26.0773 1.89575 25.7093 1.98655 25.1645C2.28709 23.3612 3.00794 21.9585 4.30553 20.8193C5.63093 19.6557 7.62572 18.7078 10.576 17.9702C15.1583 16.8247 18.3351 13.9537 20.477 10.9928C20.8008 10.5453 20.7004 9.92013 20.2529 9.59642C19.8055 9.27272 19.1803 9.37305 18.8566 9.82053C16.9008 12.5241 14.0865 15.0311 10.091 16.03C9.25572 16.2388 8.47597 16.4675 7.74998 16.7187C7.48047 15.9751 7.33333 15.1722 7.33333 14.3334C7.33333 10.6847 10.1475 7.94149 14.4748 7.32331C18.955 6.68328 21.5032 4.60116 23.1313 2.984C24.8446 10.4638 23.8017 14.96 21.9348 17.5875C19.9271 20.4132 16.7839 21.3334 14.3333 21.3334C13.0567 21.3334 11.8626 20.9925 10.8341 20.3975C10.356 20.1209 9.74427 20.2843 9.46773 20.7624C9.19118 21.2404 9.35455 21.8522 9.83261 22.1287C11.1574 22.8951 12.6957 23.3334 14.3333 23.3334C17.2161 23.3334 21.0729 22.2536 23.5652 18.7459C26.0591 15.236 27.0044 9.55067 24.6323 0.740049Z"
        fill="#0A5EB0" />
</svg>
    