<svg width="24" height="30" viewBox="0 0 24 30" fill="none" xmlns="http://www.w3.org/2000/svg">
    <path
        d="M22.6673 9.99935V22.9993C22.6673 26.9993 20.2806 28.3327 17.334 28.3327H6.66732C3.72065 28.3327 1.33398 26.9993 1.33398 22.9993V9.99935C1.33398 5.66602 3.72065 4.66602 6.66732 4.66602C6.66732 5.49268 7.00061 6.23934 7.54728 6.78601C8.09395 7.33268 8.84065 7.66602 9.66732 7.66602H14.334C15.9873 7.66602 17.334 6.31935 17.334 4.66602C20.2806 4.66602 22.6673 5.66602 22.6673 9.99935Z"
        stroke="#0A5EB0" stroke-width="1.5" stroke-linecap="round" stroke-linejoin="round" />
    <path
        d="M17.3327 4.66602C17.3327 6.31935 15.986 7.66602 14.3327 7.66602H9.66602C8.83935 7.66602 8.09265 7.33268 7.54598 6.78601C6.99931 6.23934 6.66602 5.49268 6.66602 4.66602C6.66602 3.01268 8.01268 1.66602 9.66602 1.66602H14.3327C15.1593 1.66602 15.9061 1.99935 16.4527 2.54602C16.9994 3.09269 17.3327 3.83935 17.3327 4.66602Z"
        stroke="#0A5EB0" stroke-width="1.5" stroke-linecap="round" stroke-linejoin="round" />
    <path d="M6.66602 16.334H11.9993" stroke="#0A5EB0" stroke-width="1.5" stroke-linecap="round"
        stroke-linejoin="round" />
    <path d="M6.66602 21.666H17.3327" stroke="#0A5EB0" stroke-width="1.5" stroke-linecap="round"
        stroke-linejoin="round" />
</svg>
    