<svg width="24" height="30" viewBox="0 0 24 30" fill="none" xmlns="http://www.w3.org/2000/svg">
    <path
        d="M1.33229 16.668C0.780009 16.668 0.332293 17.1157 0.332293 17.668C0.332293 18.2203 0.780009 18.668 1.33229 18.668H4.52538C4.76774 18.668 5.00555 18.7226 5.21965 18.8262L7.94228 20.1435C8.42977 20.3794 8.96558 20.5015 9.50762 20.5015H10.8978C11.4665 20.5015 11.9339 20.8056 12.1686 21.2304L9.58964 21.9434C9.21484 22.047 8.81368 22.0104 8.46783 21.843L5.55731 20.4348C5.06016 20.1943 4.46214 20.4023 4.2216 20.8994C3.98106 21.3966 4.18908 21.9946 4.68623 22.2351L7.59675 23.6434C8.38157 24.0231 9.28192 24.1035 10.1226 23.8711L13.5105 22.9344C13.9773 22.8053 14.3323 22.3788 14.3323 21.8573C14.3323 21.8183 14.3316 21.7795 14.3303 21.7408L19.7497 20.0758L19.7535 20.0746C20.4167 19.8679 21.1486 20.1063 21.5844 20.7098C21.7391 20.924 21.6589 21.2186 21.4705 21.3274L11.4497 27.1092C11.0483 27.3408 10.5798 27.3955 10.1436 27.2661L1.61677 24.7359C1.0873 24.5788 0.53072 24.8806 0.373609 25.4101C0.216499 25.9396 0.518353 26.4961 1.04782 26.6532L9.57469 29.1835C10.5406 29.4701 11.5759 29.3454 12.4492 28.8415L22.47 23.0597C23.7142 22.3418 24.0345 20.6864 23.2058 19.5389C22.2819 18.2596 20.6679 17.6958 19.1605 18.1645L19.1585 18.1651L13.6558 19.8558C13.0245 19.0286 12.0143 18.5015 10.8978 18.5015H9.50762C9.26527 18.5015 9.02746 18.4468 8.81336 18.3432L6.09073 17.0259C5.60324 16.79 5.06743 16.668 4.52538 16.668H1.33229Z"
        fill="#0A5EB0" />
    <path fill-rule="evenodd" clip-rule="evenodd"
        d="M18.4501 5.65529C18.4048 5.72984 18.3576 5.80747 18.3072 5.88628C18.41 5.9716 18.51 6.06131 18.615 6.15549L18.6422 6.17981C20.0793 7.46796 21.7391 9.663 22.2742 12.6306C22.5295 14.0464 21.927 15.2666 20.9725 16.0834C20.0352 16.8856 18.7344 17.3346 17.4004 17.3346H11.9313C10.5972 17.3346 9.29652 16.8856 8.35917 16.0834C7.40472 15.2666 6.80219 14.0464 7.05746 12.6306C7.59254 9.663 9.25241 7.46796 10.6895 6.17981L10.7166 6.15549C10.8216 6.06136 10.9217 5.97156 11.0245 5.88628C10.9741 5.80751 10.9269 5.72991 10.8817 5.6554L10.8249 5.56221L10.803 5.52655L10.7624 5.44606C10.5714 5.06712 10.3908 4.70892 10.2749 4.39011C10.1448 4.03249 10.06 3.63371 10.139 3.1839C10.1912 2.88651 10.3226 2.5562 10.4888 2.30423C10.9195 1.65136 11.6074 1.40462 12.2195 1.18509C12.2664 1.16826 12.3129 1.15158 12.3588 1.13489C13.9984 0.538803 15.4276 0.505541 17.003 1.08072C17.0489 1.09745 17.0954 1.11419 17.1423 1.1311C17.789 1.36391 18.5285 1.63015 18.9565 2.39162C19.0517 2.56102 19.1394 2.78205 19.1863 2.97067C19.3075 3.45838 19.2323 3.89683 19.0947 4.29442C18.974 4.64339 18.7775 5.03296 18.5718 5.44099L18.5287 5.52655L18.5068 5.56221L18.4501 5.65529ZM13.0422 3.01452C14.2802 2.56444 15.2229 2.55992 16.3171 2.95943C16.7395 3.11362 16.95 3.19339 17.0939 3.27296C17.1869 3.32436 17.1993 3.34671 17.2109 3.3678L17.2121 3.36998L17.2168 3.37971C17.2209 3.38833 17.2256 3.39937 17.2306 3.41176C17.2355 3.42416 17.2396 3.43547 17.2425 3.44448L17.2457 3.45453L16.3171 2.95943L17.2464 3.47866C17.2444 3.50022 17.2364 3.54874 17.2047 3.64032C17.1351 3.84139 17.0074 4.10081 16.7803 4.55167C16.7107 4.66506 16.656 4.75356 16.6063 4.82987C16.552 4.91322 16.5151 4.9639 16.4879 4.99708C16.4709 5.01781 16.4607 5.02803 16.4563 5.03204L16.4549 5.03266C16.4408 5.03888 16.3823 5.06235 16.1825 5.0766C15.9738 5.09148 15.6981 5.09207 15.2605 5.09207H14.0712C13.6336 5.09207 13.3579 5.09148 13.1492 5.0766C12.9494 5.06235 12.8909 5.03888 12.8767 5.03266L12.8753 5.03204C12.871 5.02803 12.8608 5.01781 12.8438 4.99708C12.8166 4.9639 12.7797 4.91322 12.7254 4.82987C12.6756 4.75356 12.621 4.66506 12.5513 4.55167C12.3425 4.13705 12.2229 3.89485 12.1545 3.70668C12.1229 3.61978 12.1131 3.57218 12.11 3.54947C12.1085 3.53895 12.1085 3.5339 12.1085 3.53278L12.1088 3.52979C12.1091 3.52854 12.1104 3.52256 12.1135 3.5121C12.1174 3.49901 12.1228 3.48317 12.1295 3.46611C12.1363 3.44906 12.1433 3.43381 12.1495 3.42162C12.1546 3.4116 12.1576 3.40657 12.1582 3.40569L12.1594 3.40368C12.165 3.39434 12.1797 3.37005 12.2827 3.31617C12.4295 3.23942 12.6399 3.16078 13.0422 3.01452ZM13.8675 7.09207C13.098 7.09207 12.9272 7.10386 12.7057 7.18704C12.4738 7.27412 12.4029 7.32983 12.0244 7.66909C10.8301 8.73964 9.46299 10.5603 9.02572 12.9855C8.91926 13.5759 9.13969 14.119 9.65958 14.5639C10.1966 15.0235 11.0215 15.3346 11.9313 15.3346H17.4004C18.3101 15.3346 19.1351 15.0235 19.6721 14.5639C20.192 14.119 20.4124 13.5759 20.306 12.9855C19.8687 10.5603 18.5016 8.73964 17.3072 7.66909C16.9287 7.32983 16.8578 7.27412 16.626 7.18704C16.4045 7.10386 16.2337 7.09207 15.4642 7.09207H13.8675Z"
        fill="#0A5EB0" />
</svg>
    