<svg width="29" height="26" viewBox="0 0 29 26" fill="none" xmlns="http://www.w3.org/2000/svg">
    <path
        d="M1.05273 7.37322V20.3466C1.05273 22.8799 2.85273 23.9199 5.0394 22.6666L8.17273 20.8799C8.85273 20.4932 9.98607 20.4532 10.6927 20.8132L17.6927 24.3199C18.3994 24.6666 19.5327 24.6399 20.2127 24.2532L25.9861 20.9465C26.7194 20.5199 27.3327 19.4799 27.3327 18.6266V5.65322C27.3327 3.11989 25.5327 2.07989 23.3461 3.33322L20.2127 5.11989C19.5327 5.50655 18.3994 5.54655 17.6927 5.18655L10.6927 1.69322C9.98607 1.34655 8.85273 1.37322 8.17273 1.75989L2.3994 5.06655C1.65273 5.49322 1.05273 6.53322 1.05273 7.37322Z"
        stroke="#0A5EB0" stroke-width="1.5" stroke-linecap="round" stroke-linejoin="round" />
    <path d="M9.41406 2.33325V19.6666" stroke="#0A5EB0" stroke-width="1.5" stroke-linecap="round"
        stroke-linejoin="round" />
    <path d="M18.9727 5.82666V23.6667" stroke="#0A5EB0" stroke-width="1.5" stroke-linecap="round"
        stroke-linejoin="round" />
</svg>
    