<svg width="30" height="24" viewBox="0 0 30 24" fill="none" xmlns="http://www.w3.org/2000/svg">
    <path
        d="M19.52 2.94675L21.3999 6.70674C21.6533 7.22674 22.3333 7.72007 22.9066 7.82673L26.3066 8.38673C28.4799 8.74673 28.9866 10.3201 27.4266 11.8934L24.7732 14.5467C24.3332 14.9867 24.08 15.8534 24.2266 16.4801L24.9866 19.7601C25.5866 22.3467 24.1999 23.3601 21.9199 22.0001L18.7333 20.1067C18.1599 19.7601 17.1999 19.7601 16.6266 20.1067L13.4399 22.0001C11.1599 23.3467 9.77327 22.3467 10.3733 19.7601L11.1333 16.4801C11.2799 15.8667 11.0266 15.0001 10.5866 14.5467L7.93328 11.8934C6.37328 10.3334 6.87995 8.76006 9.05328 8.38673L12.4533 7.82673C13.0266 7.7334 13.7066 7.22674 13.9599 6.70674L15.8399 2.94675C16.8399 0.906748 18.4933 0.906748 19.52 2.94675Z"
        stroke="#0A5EB0" stroke-width="1.5" stroke-linecap="round" stroke-linejoin="round" />
    <path d="M9.66602 2.66675H1.66602" stroke="#0A5EB0" stroke-width="1.5" stroke-linecap="round"
        stroke-linejoin="round" />
    <path d="M5.66602 21.3333H1.66602" stroke="#0A5EB0" stroke-width="1.5" stroke-linecap="round"
        stroke-linejoin="round" />
    <path d="M2.99935 12H1.66602" stroke="#0A5EB0" stroke-width="1.5" stroke-linecap="round"
        stroke-linejoin="round" />
</svg>
    