<svg width="20" height="22" viewBox="0 0 20 22" fill="none" xmlns="http://www.w3.org/2000/svg">
    <path
        d="M3.02262 15.7497C3.43665 15.7372 3.76216 15.3914 3.74966 14.9774C3.73717 14.5634 3.39141 14.2379 2.97739 14.2504C2.21178 14.2735 1.46001 14.3492 0.908632 14.9014C0.526578 15.284 0.377648 15.7556 0.311592 16.2476C0.249936 16.7068 0.249966 17.2804 0.250002 17.9463L0.250002 18.045C0.249966 18.7109 0.249936 19.2845 0.311592 19.7438C0.377648 20.2358 0.526578 20.7074 0.908632 21.09C1.29084 21.4727 1.76218 21.6221 2.25402 21.6883C2.71284 21.7501 3.28576 21.7501 3.95058 21.75L16.0494 21.75C16.7143 21.7501 17.2872 21.7501 17.746 21.6883C18.2378 21.6221 18.7092 21.4727 19.0914 21.09C19.4734 20.7074 19.6224 20.2358 19.6884 19.7438C19.7501 19.2845 19.75 18.7109 19.75 18.045V17.9463C19.75 17.2804 19.7501 16.7069 19.6884 16.2476C19.6224 15.7556 19.4734 15.284 19.0914 14.9014C18.54 14.3492 17.7882 14.2735 17.0226 14.2504C16.6086 14.2379 16.2628 14.5634 16.2503 14.9774C16.2379 15.3914 16.5634 15.7372 16.9774 15.7497C17.7652 15.7734 17.94 15.8712 18.03 15.9613C18.0872 16.0186 18.158 16.1211 18.2018 16.4472C18.2484 16.7947 18.25 17.2664 18.25 17.9957C18.25 18.725 18.2484 19.1966 18.2018 19.5442C18.158 19.8703 18.0872 19.9727 18.03 20.0301C17.9728 20.0873 17.8709 20.158 17.5458 20.2017C17.199 20.2484 16.7283 20.25 16 20.25L4.00001 20.25C3.27167 20.25 2.80097 20.2484 2.45418 20.2017C2.12907 20.158 2.02719 20.0873 1.97006 20.0301C1.91277 19.9727 1.84203 19.8703 1.79825 19.5442C1.75159 19.1966 1.75001 18.725 1.75001 17.9957C1.75001 17.2664 1.75159 16.7947 1.79825 16.4472C1.84203 16.1211 1.91277 16.0186 1.97006 15.9613C2.05998 15.8712 2.23479 15.7734 3.02262 15.7497Z"
        fill="#0A5EB0" />
    <path fill-rule="evenodd" clip-rule="evenodd"
        d="M5 17.25C4.58579 17.25 4.25 17.5858 4.25 18C4.25 18.4142 4.58579 18.75 5 18.75L15 18.75C15.4142 18.75 15.75 18.4142 15.75 18C15.75 17.5858 15.4142 17.25 15 17.25H13.8259C14.0972 16.7002 14.25 16.0822 14.25 15.4286C14.25 13.1063 12.3326 11.25 10 11.25C7.66745 11.25 5.75 13.1063 5.75 15.4286C5.75 16.0822 5.90282 16.7002 6.17412 17.25H5ZM7.25 15.4286C7.25 16.1297 7.52608 16.7698 7.98368 17.25H12.0163C12.4739 16.7698 12.75 16.1297 12.75 15.4286C12.75 13.9637 11.5334 12.75 10 12.75C8.46657 12.75 7.25 13.9637 7.25 15.4286Z"
        fill="#0A5EB0" />
    <path
        d="M17.9998 9.75001C18.414 9.75001 18.7498 9.41422 18.7498 9.00001C18.7498 8.58579 18.414 8.25001 17.9998 8.25001H15.605C15.4232 8.25001 15.2449 8.209 15.0843 8.13131L13.0423 7.14332C12.6767 6.96642 12.2748 6.87488 11.8683 6.87488H10.8257C10.3992 6.87488 10.0486 6.64676 9.87256 6.32821L11.8068 5.79344C12.0879 5.71572 12.3888 5.7432 12.6482 5.8687L14.831 6.92488C15.2039 7.10528 15.6524 6.94927 15.8328 6.57641C16.0132 6.20354 15.8572 5.75503 15.4844 5.57462L13.3015 4.51845C12.7128 4.23365 12.0376 4.17335 11.4071 4.34768L8.86615 5.05019C8.51606 5.14699 8.24981 5.46688 8.24981 5.85801C8.24981 5.88727 8.25031 5.91639 8.25131 5.94537L4.18676 7.19416L4.18393 7.19504C3.68648 7.35003 3.13759 7.17123 2.81073 6.71862C2.69472 6.55796 2.75482 6.33701 2.89616 6.25546L10.4117 1.9191C10.7128 1.74541 11.0642 1.70435 11.3913 1.80142L17.7865 3.69907C18.1835 3.81691 18.601 3.59051 18.7188 3.19341C18.8367 2.79632 18.6103 2.37888 18.2132 2.26105L11.818 0.363389C11.0936 0.148419 10.3171 0.241946 9.66211 0.619861L2.14652 4.95621C1.21335 5.49464 0.973169 6.73617 1.59467 7.5968C2.28756 8.55628 3.49812 8.97913 4.62862 8.62761L4.63013 8.62714L8.75717 7.35915C9.23062 7.97953 9.9883 8.37488 10.8257 8.37488L11.8683 8.37488C12.0501 8.37488 12.2284 8.41588 12.389 8.49357L14.431 9.48157C14.7966 9.65847 15.1985 9.75001 15.605 9.75001H17.9998Z"
        fill="#0A5EB0" />
</svg>
    