<svg width="22" height="21" viewBox="0 0 22 21" fill="none" xmlns="http://www.w3.org/2000/svg">
    <path
        d="M9.75159 14.8604V16.8904C9.75159 18.6104 8.15158 20.0004 6.18158 20.0004C4.21158 20.0004 2.60156 18.6104 2.60156 16.8904V14.8604C2.60156 16.5804 4.20158 17.8004 6.18158 17.8004C8.15158 17.8004 9.75159 16.5704 9.75159 14.8604Z"
        stroke="#0A5EB0" stroke-width="1.5" stroke-linecap="round" stroke-linejoin="round" />
    <path
        d="M9.74982 12.1097C9.74982 12.6097 9.60981 13.0697 9.36981 13.4697C8.77981 14.4397 7.5698 15.0497 6.1698 15.0497C4.7698 15.0497 3.55979 14.4297 2.96979 13.4697C2.72979 13.0697 2.58984 12.6097 2.58984 12.1097C2.58984 11.2497 2.98982 10.4797 3.62982 9.91974C4.27982 9.34974 5.16979 9.00977 6.15979 9.00977C7.14979 9.00977 8.03982 9.35974 8.68982 9.91974C9.34982 10.4697 9.74982 11.2497 9.74982 12.1097Z"
        stroke="#0A5EB0" stroke-width="1.5" stroke-linecap="round" stroke-linejoin="round" />
    <path
        d="M9.75159 12.11V14.86C9.75159 16.58 8.15158 17.8 6.18158 17.8C4.21158 17.8 2.60156 16.57 2.60156 14.86V12.11C2.60156 10.39 4.20158 9 6.18158 9C7.17158 9 8.06161 9.34997 8.71161 9.90997C9.35161 10.47 9.75159 11.25 9.75159 12.11Z"
        stroke="#0A5EB0" stroke-width="1.5" stroke-linecap="round" stroke-linejoin="round" />
    <path
        d="M21.0002 8.97015V11.0302C21.0002 11.5802 20.5602 12.0302 20.0002 12.0502H18.0402C16.9602 12.0502 15.9702 11.2602 15.8802 10.1802C15.8202 9.55018 16.0602 8.96017 16.4802 8.55017C16.8502 8.17017 17.3602 7.9502 17.9202 7.9502H20.0002C20.5602 7.9702 21.0002 8.42015 21.0002 8.97015Z"
        stroke="#0A5EB0" stroke-width="1.5" stroke-linecap="round" stroke-linejoin="round" />
    <path
        d="M1 8.5V6.5C1 3.78 2.64 1.88 5.19 1.56C5.45 1.52 5.72 1.5 6 1.5H15C15.26 1.5 15.51 1.50999 15.75 1.54999C18.33 1.84999 20 3.76 20 6.5V7.95001H17.92C17.36 7.95001 16.85 8.16999 16.48 8.54999C16.06 8.95999 15.82 9.54999 15.88 10.18C15.97 11.26 16.96 12.05 18.04 12.05H20V13.5C20 16.5 18 18.5 15 18.5H12.5"
        stroke="#0A5EB0" stroke-width="1.5" stroke-linecap="round" stroke-linejoin="round" />
</svg>
    