<svg width="18" height="22" viewBox="0 0 18 22" fill="none" xmlns="http://www.w3.org/2000/svg">
    <path
        d="M9.00006 6.89001L7.93006 8.75001C7.69006 9.16001 7.89006 9.50001 8.36006 9.50001H9.63006C10.1101 9.50001 10.3001 9.84001 10.0601 10.25L9.00006 12.11"
        stroke="#0A5EB0" stroke-width="1.5" stroke-linecap="round" stroke-linejoin="round" />
    <path
        d="M5.29938 17.0401V15.8801C2.99938 14.4901 1.10938 11.7801 1.10938 8.90005C1.10938 3.95005 5.65938 0.0700534 10.7994 1.19005C13.0594 1.69005 15.0394 3.19005 16.0694 5.26005C18.1594 9.46005 15.9594 13.9201 12.7294 15.8701V17.0301C12.7294 17.3201 12.8394 17.9901 11.7694 17.9901H6.25938C5.15938 18.0001 5.29938 17.5701 5.29938 17.0401Z"
        stroke="#0A5EB0" stroke-width="1.5" stroke-linecap="round" stroke-linejoin="round" />
    <path d="M5.5 21C7.79 20.35 10.21 20.35 12.5 21" stroke="#0A5EB0" stroke-width="1.5"
        stroke-linecap="round" stroke-linejoin="round" />
</svg>
    