<svg width="22" height="22" viewBox="0 0 22 22" fill="none" xmlns="http://www.w3.org/2000/svg">
    <path d="M21 12V8C21 3 19 1 14 1H8C3 1 1 3 1 8V14C1 19 3 21 8 21H12" stroke="#0A5EB0"
        stroke-width="1.5" stroke-linecap="round" stroke-linejoin="round" />
    <path d="M21 12V8C21 3 19 1 14 1H8C3 1 1 3 1 8V14C1 19 3 21 8 21H12" stroke="#0A5EB0"
        stroke-width="1.5" stroke-linecap="round" stroke-linejoin="round" />
    <path d="M21 12V8C21 3 19 1 14 1H8C3 1 1 3 1 8V14C1 19 3 21 8 21H12" stroke="#0A5EB0"
        stroke-width="1.5" stroke-linecap="round" stroke-linejoin="round" />
    <path d="M15 18.43L16.58 20L20 16" stroke="#0A5EB0" stroke-width="1.5" stroke-linecap="round"
        stroke-linejoin="round" />
    <path d="M6 9.5V12.5" stroke="#0A5EB0" stroke-width="1.5" stroke-linecap="round"
        stroke-linejoin="round" />
    <path d="M11 9.5V12.5" stroke="#0A5EB0" stroke-width="1.5" stroke-linecap="round"
        stroke-linejoin="round" />
    <path d="M16 9.5V12.5" stroke="#0A5EB0" stroke-width="1.5" stroke-linecap="round"
        stroke-linejoin="round" />
</svg>