<svg width="22" height="22" viewBox="0 0 22 22" fill="none" xmlns="http://www.w3.org/2000/svg">
    <path
        d="M20.6707 13.3L20.2707 18.3C20.1207 19.83 20.0007 21 17.2907 21H4.71074C2.00074 21 1.88074 19.83 1.73074 18.3L1.33074 13.3C1.25074 12.47 1.51074 11.7 1.98074 11.11C1.99074 11.1 1.99074 11.1 2.00074 11.09C2.55074 10.42 3.38074 10 4.31074 10H17.6907C18.6207 10 19.4407 10.42 19.9807 11.07C19.9907 11.08 20.0007 11.09 20.0007 11.1C20.4907 11.69 20.7607 12.46 20.6707 13.3Z"
        stroke="#0A5EB0" stroke-width="1.5" stroke-miterlimit="10" />
    <path
        d="M2.5 10.43V5.28003C2.5 1.88003 3.35 1.03003 6.75 1.03003H8.02C9.29 1.03003 9.58 1.41003 10.06 2.05003L11.33 3.75003C11.65 4.17003 11.84 4.43003 12.69 4.43003H15.24C18.64 4.43003 19.49 5.28003 19.49 8.68003V10.47"
        stroke="#0A5EB0" stroke-width="1.5" stroke-miterlimit="10" stroke-linecap="round"
        stroke-linejoin="round" />
    <path d="M8.42969 16H13.5697" stroke="#0A5EB0" stroke-width="1.5" stroke-miterlimit="10"
        stroke-linecap="round" stroke-linejoin="round" />
</svg>
    