<svg width="22" height="22" viewBox="0 0 22 22" fill="none" xmlns="http://www.w3.org/2000/svg">
    <path
        d="M9.75086 1.44995C10.4409 0.859946 11.5708 0.859946 12.2708 1.44995L13.8509 2.81005C14.1509 3.07005 14.7108 3.28002 15.1108 3.28002H16.8109C17.8709 3.28002 18.7408 4.14996 18.7408 5.20996V6.91003C18.7408 7.30003 18.9508 7.87004 19.2108 8.17004L20.5709 9.75C21.1609 10.44 21.1609 11.57 20.5709 12.27L19.2108 13.85C18.9508 14.15 18.7408 14.71 18.7408 15.11V16.8101C18.7408 17.8701 17.8709 18.74 16.8109 18.74H15.1108C14.7208 18.74 14.1509 18.95 13.8509 19.21L12.2708 20.5699C11.5808 21.1599 10.4509 21.1599 9.75086 20.5699L8.17087 19.21C7.87087 18.95 7.31086 18.74 6.91086 18.74H5.18085C4.12085 18.74 3.25086 17.8701 3.25086 16.8101V15.1C3.25086 14.71 3.04087 14.15 2.79087 13.85L1.44086 12.26C0.860859 11.57 0.860859 10.45 1.44086 9.76L2.79087 8.17004C3.04087 7.87004 3.25086 7.31004 3.25086 6.92004V5.20996C3.25086 4.14996 4.12085 3.28002 5.18085 3.28002H6.91086C7.30086 3.28002 7.87087 3.07005 8.17087 2.81005L9.75086 1.44995Z"
        stroke="#0A5EB0" stroke-width="1.5" stroke-linecap="round" stroke-linejoin="round" />
    <path
        d="M8.88916 13.82L10.3391 14.94C10.5291 15.13 10.9492 15.22 11.2292 15.22H12.9991C13.5591 15.22 14.1691 14.8 14.3091 14.24L15.4291 10.82C15.6591 10.17 15.2392 9.60001 14.5392 9.60001H12.6692C12.3892 9.60001 12.1592 9.37008 12.1992 9.04008L12.4291 7.54008C12.5191 7.12008 12.2392 6.65005 11.8192 6.51005C11.4492 6.37005 10.9792 6.56 10.7892 6.84L8.86914 9.68998"
        stroke="#0A5EB0" stroke-width="1.5" stroke-miterlimit="10" />
    <path
        d="M6.5 13.8199V9.23999C6.5 8.57999 6.78 8.34998 7.44 8.34998H7.91C8.56 8.34998 8.85001 8.57999 8.85001 9.23999V13.8199C8.85001 14.4699 8.57 14.71 7.91 14.71H7.44C6.78 14.71 6.5 14.4799 6.5 13.8199Z"
        stroke="#0A5EB0" stroke-width="1.5" stroke-linecap="round" stroke-linejoin="round" />
</svg>
    