<svg width="22" height="20" viewBox="0 0 22 20" fill="none" xmlns="http://www.w3.org/2000/svg">
    <path
        d="M9.31988 12.2512C8.53188 12.2512 7.74888 11.9512 7.15388 11.3662C6.55188 10.7752 6.23088 9.98721 6.25088 9.14821C6.27088 8.30921 6.62888 7.53621 7.26088 6.97221L9.52609 4.94909C8.50246 4.61961 6.9391 4.30493 5.01386 4.25629C4.53386 4.24429 4.06786 4.1163 3.66686 3.8863L0.628864 2.15029C0.268864 1.94529 0.14386 1.48629 0.34986 1.12729C0.55486 0.767289 1.01386 0.642285 1.37286 0.848285L4.41186 2.5843C4.59886 2.6913 4.81986 2.75029 5.05286 2.75629C7.66828 2.82288 9.85808 3.37339 11.0086 3.92153C11.8123 3.55494 12.7108 3.40536 13.6089 3.50321L14.9129 3.64621C15.7089 3.73221 16.5149 3.54021 17.1809 3.10421L20.5909 0.871207C20.9379 0.644207 21.4019 0.741199 21.6289 1.0882C21.8559 1.4352 21.7589 1.89921 21.4119 2.12621L18.0019 4.35922C17.0459 4.98422 15.8919 5.2612 14.7499 5.1372L13.4459 4.9942C12.728 4.91666 12.0096 5.06492 11.3914 5.40756C11.3772 5.41621 11.3627 5.42437 11.348 5.43203C11.1452 5.54831 10.9536 5.68574 10.7769 5.8432L8.25988 8.0912C7.94188 8.3752 7.76088 8.76322 7.75088 9.18322C7.74088 9.60222 7.90289 9.9972 8.20589 10.2952C8.75389 10.8332 9.60888 10.9022 10.2409 10.4592L11.9049 9.2912C12.3059 9.0112 12.8089 8.90521 13.2869 8.99921L13.6219 9.0652C14.5719 9.2512 15.5609 9.03122 16.3349 8.46122L16.9249 8.02621C17.2579 7.78021 17.7279 7.85122 17.9739 8.18522C18.2199 8.51822 18.1489 8.98822 17.8149 9.23422L17.2249 9.6692C16.3889 10.2849 15.3793 10.6164 14.3509 10.6295C14.8934 11.8962 15.695 13.5918 17.1549 14.6903C17.8225 14.5126 19.4405 13.9984 20.4696 12.9693C20.7626 12.6763 21.2377 12.6763 21.5307 12.9693C21.8237 13.2623 21.8237 13.7373 21.5307 14.0303C20.1588 15.4021 18.0973 16.0055 17.3914 16.1797C15.9087 17.7006 12.565 19.2493 8.99986 19.2493H9.00086C6.97786 19.2493 4.84086 18.3213 2.82086 16.5653C1.33086 15.2693 0.423858 13.9833 0.385858 13.9293C0.147858 13.5903 0.230861 13.1223 0.569861 12.8853C0.908861 12.6473 1.37686 12.7303 1.61486 13.0693C1.64686 13.1153 4.95086 17.7493 9.00086 17.7493C10.8169 17.7493 14.0219 17.0513 15.8509 15.5643C14.2089 14.1443 13.3899 12.2093 12.8259 10.8743L12.8164 10.8518C12.7746 10.7531 12.7347 10.6588 12.6963 10.5693L11.1029 11.6872C10.5639 12.0652 9.94088 12.2502 9.32188 12.2502L9.31988 12.2512Z"
        fill="#0A5EB0" />
</svg>
    