<svg width="18" height="22" viewBox="0 0 18 22" fill="none" xmlns="http://www.w3.org/2000/svg">
    <path
        d="M1.0002 12.25C0.585983 12.25 0.250197 12.5858 0.250197 13C0.250197 13.4142 0.585983 13.75 1.0002 13.75H3.39502C3.57678 13.75 3.75514 13.791 3.91571 13.8687L5.95769 14.8567C6.3233 15.0336 6.72516 15.1251 7.13169 15.1251H8.17432C8.60084 15.1251 8.95137 15.3532 9.12745 15.6718L7.19321 16.2066C6.91211 16.2843 6.61124 16.2568 6.35185 16.1313L4.16896 15.0751C3.79609 14.8947 3.34758 15.0507 3.16717 15.4236C2.98677 15.7965 3.14279 16.245 3.51565 16.4254L5.69854 17.4816C6.28716 17.7664 6.96242 17.8267 7.59293 17.6523L10.1338 16.9498C10.4839 16.853 10.7502 16.5331 10.7502 16.142C10.7502 16.1127 10.7497 16.0836 10.7487 16.0546L14.8132 14.8058L14.8161 14.805C15.3135 14.65 15.8624 14.8288 16.1893 15.2814C16.3053 15.442 16.2452 15.663 16.1038 15.7445L8.58826 20.0809C8.28722 20.2546 7.93582 20.2957 7.60871 20.1986L1.21355 18.3009C0.816452 18.1831 0.399016 18.4095 0.281184 18.8066C0.163351 19.2037 0.389741 19.6211 0.786841 19.739L7.182 21.6366C7.90645 21.8516 8.68291 21.7581 9.3379 21.3801L16.8535 17.0438C17.7867 16.5054 18.0268 15.2638 17.4053 14.4032C16.7124 13.4437 15.5019 13.0209 14.3714 13.3724L14.3699 13.3729L10.2428 14.6409C9.76938 14.0205 9.0117 13.6251 8.17432 13.6251H7.13169C6.94993 13.6251 6.77157 13.5841 6.611 13.5064L4.56902 12.5184C4.20341 12.3415 3.80155 12.25 3.39502 12.25H1.0002Z"
        fill="#0A5EB0" />
    <path fill-rule="evenodd" clip-rule="evenodd"
        d="M13.8385 3.99049C13.8046 4.0464 13.7692 4.10463 13.7314 4.16373C13.8085 4.22772 13.8835 4.29501 13.9623 4.36564L13.9826 4.38388C15.0604 5.35 16.3053 6.99627 16.7066 9.22198C16.8981 10.2838 16.4462 11.199 15.7304 11.8116C15.0273 12.4132 14.0518 12.75 13.0513 12.75L8.94942 12.75C7.9489 12.75 6.97336 12.4132 6.27035 11.8116C5.55452 11.199 5.10262 10.2838 5.29407 9.22198C5.69538 6.99627 6.94028 5.35 8.01811 4.38388L8.03845 4.36564C8.11717 4.29505 8.19227 4.22769 8.26933 4.16373C8.23153 4.10466 8.19618 4.04646 8.16224 3.99057L8.11965 3.92068L8.10324 3.89394L8.07281 3.83357C7.92951 3.54936 7.79406 3.28071 7.70712 3.0416C7.6096 2.77339 7.546 2.4743 7.60521 2.13695C7.64435 1.91391 7.7429 1.66617 7.86756 1.4772C8.19058 0.987545 8.70652 0.802492 9.16558 0.637844C9.20079 0.625215 9.23566 0.612707 9.27009 0.600191C10.4998 0.153125 11.5717 0.128179 12.7533 0.559564C12.7876 0.572115 12.8225 0.584665 12.8577 0.597347C13.3427 0.771959 13.8974 0.971639 14.2183 1.54274C14.2897 1.66979 14.3555 1.83556 14.3907 1.97702C14.4816 2.34281 14.4252 2.67165 14.322 2.96984C14.2314 3.23157 14.0841 3.52374 13.9298 3.82977L13.8975 3.89394L13.8811 3.92068L13.8385 3.99049ZM9.78261 2.00991C10.7111 1.67235 11.4181 1.66896 12.2388 1.9686C12.5556 2.08424 12.7135 2.14407 12.8214 2.20374C12.8912 2.24229 12.9004 2.25905 12.9092 2.27487L12.9101 2.27651L12.9136 2.28381C12.9166 2.29027 12.9202 2.29855 12.9239 2.30785C12.9276 2.31714 12.9306 2.32563 12.9329 2.33239L12.9352 2.33992L12.2388 1.9686L12.9358 2.35801C12.9342 2.37419 12.9283 2.41058 12.9045 2.47927C12.8523 2.63006 12.7566 2.82463 12.5862 3.16278C12.534 3.24782 12.493 3.31419 12.4557 3.37142C12.4149 3.43394 12.3873 3.47195 12.3669 3.49683C12.3542 3.51238 12.3465 3.52005 12.3432 3.52305L12.3422 3.52352C12.3316 3.52818 12.2877 3.54579 12.1379 3.55647C11.9813 3.56763 11.7745 3.56808 11.4464 3.56808H10.5544C10.2262 3.56808 10.0194 3.56763 9.86286 3.55647C9.71302 3.54579 9.66912 3.52818 9.65852 3.52352L9.65747 3.52305C9.65424 3.52005 9.64655 3.51238 9.63381 3.49683C9.61343 3.47195 9.58576 3.43394 9.54501 3.37143C9.5077 3.31419 9.4667 3.24782 9.41448 3.16278C9.25784 2.85181 9.16814 2.67016 9.11683 2.52903C9.09313 2.46386 9.08578 2.42816 9.08344 2.41112C9.08236 2.40324 9.08237 2.39945 9.08238 2.39861L9.08261 2.39636C9.08281 2.39543 9.08379 2.39094 9.0861 2.3831C9.089 2.37328 9.09305 2.3614 9.09814 2.34861C9.10322 2.33582 9.10845 2.32438 9.11309 2.31524C9.11691 2.30773 9.1192 2.30395 9.11959 2.30329L9.12052 2.30178C9.12475 2.29478 9.13574 2.27656 9.21302 2.23615C9.32312 2.17859 9.48089 2.11961 9.78261 2.00991ZM10.4016 5.06808C9.82444 5.06808 9.69639 5.07692 9.53026 5.1393C9.35634 5.20462 9.30318 5.24639 9.01931 5.50084C8.12355 6.30376 7.09822 7.66926 6.77027 9.48815C6.69042 9.93098 6.85574 10.3383 7.24566 10.672C7.6484 11.0166 8.26713 11.25 8.94942 11.25L13.0513 11.25C13.7336 11.25 14.3523 11.0166 14.755 10.672C15.145 10.3383 15.3103 9.93098 15.2304 9.48815C14.9025 7.66926 13.8772 6.30376 12.9814 5.50084C12.6975 5.24639 12.6444 5.20462 12.4704 5.1393C12.3043 5.07692 12.1763 5.06808 11.5991 5.06808H10.4016Z"
        fill="#0A5EB0" />
</svg>
    